<mxfile host="Electron" agent="Mozilla/5.0 (Windows NT 10.0; Win64; x64) AppleWebKit/537.36 (KHTML, like Gecko) draw.io/27.0.5 Chrome/134.0.6998.205 Electron/35.3.0 Safari/537.36" version="27.0.5" pages="5">
  <diagram name="Page-1" id="lEEVBHIyu8XrA76qkRSj">
    <mxGraphModel dx="1410" dy="843" grid="1" gridSize="10" guides="1" tooltips="1" connect="1" arrows="1" fold="1" page="1" pageScale="1" pageWidth="827" pageHeight="1169" math="0" shadow="0">
      <root>
        <mxCell id="0" />
        <mxCell id="1" parent="0" />
        <mxCell id="DBf462meMkfPZxIZ3yuq-1" value="Modeling &amp; Simulation Midterm" style="shape=hexagon;perimeter=hexagonPerimeter2;whiteSpace=wrap;fixedSize=1;size=16;fillColor=#ffcccc;strokeColor=#36393d;fontFamily=Mali;fontSize=21;strokeWidth=2;align=center;spacingLeft=0;spacingBottom=5;fillStyle=hachure;fontStyle=1;rounded=1;arcSize=14;fontSource=https%3A%2F%2Ffonts.googleapis.com%2Fcss%3Ffamily%3DMali;" parent="1" vertex="1">
          <mxGeometry x="237.32" y="30" width="352.68" height="57.14" as="geometry" />
        </mxCell>
        <mxCell id="DBf462meMkfPZxIZ3yuq-2" value="" style="triangle;whiteSpace=wrap;html=1;dashed=0;direction=south;fillColor=#e51400;fontColor=#ffffff;strokeColor=#000000;strokeWidth=2;fontFamily=Kufam;fontSource=https%3A%2F%2Ffonts.googleapis.com%2Fcss%3Ffamily%3DKufam;verticalAlign=top;spacingTop=5;fontStyle=1;fontSize=16;" parent="1" vertex="1">
          <mxGeometry x="720" y="24.5" width="87" height="68.13" as="geometry" />
        </mxCell>
        <mxCell id="KJ_1naIOvZX5tw-ACzcL-1" value="KST" style="rounded=1;whiteSpace=wrap;html=1;strokeWidth=2;fillColor=#cdeb8b;strokeColor=#36393d;arcSize=24;fontFamily=Mina;fontStyle=1;fontSize=14;" parent="1" vertex="1">
          <mxGeometry x="280.00000000000017" y="210" width="90.10605000000001" height="38.34319526627219" as="geometry" />
        </mxCell>
        <mxCell id="KJ_1naIOvZX5tw-ACzcL-2" value="Chi-Test" style="rounded=1;whiteSpace=wrap;html=1;strokeWidth=2;fillColor=#cdeb8b;strokeColor=#36393d;arcSize=24;fontFamily=Mina;fontStyle=1;fontSize=14;" parent="1" vertex="1">
          <mxGeometry x="280.00000000000017" y="280" width="90.10605000000001" height="38.34319526627219" as="geometry" />
        </mxCell>
        <mxCell id="KJ_1naIOvZX5tw-ACzcL-3" value="LCM" style="rounded=1;whiteSpace=wrap;html=1;strokeWidth=2;fillColor=#cdeb8b;strokeColor=#36393d;arcSize=24;fontFamily=Mina;fontStyle=1;fontSize=14;" parent="1" vertex="1">
          <mxGeometry x="280.00000000000017" y="350" width="90.10605000000001" height="38.34319526627219" as="geometry" />
        </mxCell>
        <mxCell id="KJ_1naIOvZX5tw-ACzcL-4" value="CLCM" style="rounded=1;whiteSpace=wrap;html=1;strokeWidth=2;fillColor=#cdeb8b;strokeColor=#36393d;arcSize=24;fontFamily=Mina;fontStyle=1;fontSize=14;" parent="1" vertex="1">
          <mxGeometry x="280.00000000000017" y="420" width="90.10605000000001" height="38.34319526627219" as="geometry" />
        </mxCell>
      </root>
    </mxGraphModel>
  </diagram>
  <diagram id="9OG0z2pM3CK_l_f7Ve0v" name="KST">
    <mxGraphModel dx="1410" dy="-1495" grid="1" gridSize="10" guides="1" tooltips="1" connect="1" arrows="1" fold="1" page="1" pageScale="1" pageWidth="827" pageHeight="1169" math="1" shadow="0">
      <root>
        <mxCell id="0" />
        <mxCell id="1" parent="0" />
        <mxCell id="92YQbH5iBJ2PhjtS2n_j-3" value="&lt;font data-font-src=&quot;https://fonts.googleapis.com/css?family=Mali&quot; face=&quot;Mali&quot;&gt;Rank the array in ascending order&lt;/font&gt; &lt;font style=&quot;font-size: 14px;&quot; face=&quot;Beiruti&quot; data-font-src=&quot;https://fonts.googleapis.com/css?family=Beiruti&quot;&gt;&quot;رتب&amp;nbsp;&lt;font style=&quot;&quot; data-font-src=&quot;https://fonts.googleapis.com/css?family=Lateef&quot;&gt;من الصغير للكبير&lt;/font&gt;&lt;font style=&quot;&quot; data-font-src=&quot;https://fonts.googleapis.com/css?family=Lateef&quot;&gt;&quot;&lt;/font&gt;&lt;/font&gt;" style="rounded=1;whiteSpace=wrap;html=1;hachureGap=4;fontFamily=Mina;strokeWidth=2;fillColor=#e1d5e7;strokeColor=#000000;fontSize=16;fontStyle=1;labelBorderColor=none;textShadow=0;labelBackgroundColor=none;align=left;spacing=7;verticalAlign=middle;" parent="1" vertex="1">
          <mxGeometry x="80" y="2480" width="400" height="40" as="geometry" />
        </mxCell>
        <mxCell id="92YQbH5iBJ2PhjtS2n_j-4" value="&lt;font data-font-src=&quot;https://fonts.googleapis.com/css?family=Mali&quot; face=&quot;Mali&quot;&gt;Kolmogrov Smirnov Test&lt;font style=&quot;color: rgb(255, 255, 204);&quot;&gt; &lt;font&gt;(KST)&lt;/font&gt;&lt;/font&gt;&lt;/font&gt;" style="rounded=1;whiteSpace=wrap;html=1;hachureGap=4;fontFamily=Mina;strokeWidth=2;fillColor=#76608a;strokeColor=default;fontSize=22;fontStyle=1;labelBorderColor=none;textShadow=0;labelBackgroundColor=none;align=left;spacing=5;verticalAlign=middle;spacingTop=0;spacingRight=2;fontColor=#ffffff;container=0;spacingLeft=5;" parent="1" vertex="1">
          <mxGeometry x="40" y="2360" width="365" height="40" as="geometry" />
        </mxCell>
        <mxCell id="92YQbH5iBJ2PhjtS2n_j-8" value="&lt;div&gt;1&lt;/div&gt;" style="rounded=1;whiteSpace=wrap;html=1;hachureGap=4;fontFamily=Mina;strokeWidth=2;fillColor=#e1d5e7;strokeColor=#000000;fontSize=25;fontStyle=1;labelBorderColor=none;textShadow=0;labelBackgroundColor=none;align=center;spacing=7;verticalAlign=middle;" parent="1" vertex="1">
          <mxGeometry x="40" y="2480" width="40" height="40" as="geometry" />
        </mxCell>
        <mxCell id="92YQbH5iBJ2PhjtS2n_j-9" value="Given an array `[a_0, a_1, ..., a_N]` contains `N` values and `\alpha = 0.05`" style="rounded=1;whiteSpace=wrap;html=1;hachureGap=4;fontFamily=Mali;strokeWidth=2;fontSize=16;fontStyle=1;labelBorderColor=none;textShadow=0;labelBackgroundColor=none;align=left;spacing=7;verticalAlign=middle;fillColor=#bac8d3;strokeColor=default;fontSource=https%3A%2F%2Ffonts.googleapis.com%2Fcss%3Ffamily%3DMali;" parent="1" vertex="1">
          <mxGeometry x="40" y="2420" width="500" height="40" as="geometry" />
        </mxCell>
        <mxCell id="92YQbH5iBJ2PhjtS2n_j-10" value="Draw Table&amp;nbsp;" style="rounded=1;whiteSpace=wrap;html=1;hachureGap=4;fontFamily=Mali;strokeWidth=2;fillColor=#e1d5e7;strokeColor=#000000;fontSize=16;fontStyle=1;labelBorderColor=none;textShadow=0;labelBackgroundColor=none;align=left;spacing=7;verticalAlign=middle;fontSource=https%3A%2F%2Ffonts.googleapis.com%2Fcss%3Ffamily%3DMali;" parent="1" vertex="1">
          <mxGeometry x="80" y="2530" width="110" height="40" as="geometry" />
        </mxCell>
        <mxCell id="92YQbH5iBJ2PhjtS2n_j-46" value="`D+ = i / N - R`" style="rounded=1;whiteSpace=wrap;html=1;hachureGap=4;fontFamily=Mina;strokeWidth=2;fillColor=#b1ddf0;strokeColor=default;fontSize=13;fontStyle=1;labelBorderColor=none;textShadow=0;labelBackgroundColor=none;align=left;spacing=7;verticalAlign=middle;" parent="1" vertex="1">
          <mxGeometry x="41.5" y="2590.23" width="128" height="44.55" as="geometry" />
        </mxCell>
        <mxCell id="92YQbH5iBJ2PhjtS2n_j-47" value="`D- = R - {i - 1}/N`" style="rounded=1;whiteSpace=wrap;html=1;hachureGap=4;fontFamily=Mina;strokeWidth=2;fillColor=#d0cee2;strokeColor=default;fontSize=13;fontStyle=1;labelBorderColor=none;textShadow=0;labelBackgroundColor=none;align=left;spacing=7;verticalAlign=middle;" parent="1" vertex="1">
          <mxGeometry x="41.5" y="2660" width="129.5" height="47" as="geometry" />
        </mxCell>
        <mxCell id="92YQbH5iBJ2PhjtS2n_j-56" value="&lt;div&gt;2&lt;/div&gt;" style="rounded=1;whiteSpace=wrap;html=1;hachureGap=4;fontFamily=Mina;strokeWidth=2;fillColor=#e1d5e7;strokeColor=#000000;fontSize=25;fontStyle=1;labelBorderColor=none;textShadow=0;labelBackgroundColor=none;align=center;spacing=7;verticalAlign=middle;" parent="1" vertex="1">
          <mxGeometry x="40" y="2530" width="40" height="40" as="geometry" />
        </mxCell>
        <mxCell id="92YQbH5iBJ2PhjtS2n_j-58" style="rounded=0;orthogonalLoop=1;jettySize=auto;html=1;" parent="1" source="92YQbH5iBJ2PhjtS2n_j-15" target="92YQbH5iBJ2PhjtS2n_j-46" edge="1">
          <mxGeometry relative="1" as="geometry" />
        </mxCell>
        <mxCell id="92YQbH5iBJ2PhjtS2n_j-59" style="rounded=0;orthogonalLoop=1;jettySize=auto;html=1;" parent="1" source="92YQbH5iBJ2PhjtS2n_j-16" target="92YQbH5iBJ2PhjtS2n_j-47" edge="1">
          <mxGeometry relative="1" as="geometry" />
        </mxCell>
        <mxCell id="92YQbH5iBJ2PhjtS2n_j-60" value="&lt;div&gt;3&lt;/div&gt;" style="rounded=1;whiteSpace=wrap;html=1;hachureGap=4;fontFamily=Mina;strokeWidth=2;fillColor=#e1d5e7;strokeColor=#000000;fontSize=25;fontStyle=1;labelBorderColor=none;textShadow=0;labelBackgroundColor=none;align=center;spacing=7;verticalAlign=middle;" parent="1" vertex="1">
          <mxGeometry x="40" y="2720" width="40" height="40" as="geometry" />
        </mxCell>
        <mxCell id="92YQbH5iBJ2PhjtS2n_j-61" value="`D = max(D+, D-)`" style="rounded=1;whiteSpace=wrap;html=1;hachureGap=4;fontFamily=Mina;strokeWidth=2;fillColor=#e1d5e7;strokeColor=#000000;fontSize=16;fontStyle=1;labelBorderColor=none;textShadow=0;labelBackgroundColor=none;align=left;spacing=7;verticalAlign=middle;" parent="1" vertex="1">
          <mxGeometry x="80" y="2720" width="175" height="40" as="geometry" />
        </mxCell>
        <mxCell id="92YQbH5iBJ2PhjtS2n_j-88" value="" style="edgeStyle=orthogonalEdgeStyle;rounded=0;orthogonalLoop=1;jettySize=auto;html=1;sketch=1;curveFitting=1;jiggle=2;strokeWidth=0.5;" parent="1" source="92YQbH5iBJ2PhjtS2n_j-62" target="92YQbH5iBJ2PhjtS2n_j-85" edge="1">
          <mxGeometry relative="1" as="geometry" />
        </mxCell>
        <mxCell id="92YQbH5iBJ2PhjtS2n_j-62" value="`D = max(0.26,&amp;nbsp;0.21)`" style="rounded=1;whiteSpace=wrap;html=1;hachureGap=4;strokeWidth=2;textShadow=0;align=left;spacing=7;verticalAlign=middle;fontSize=16;fillColor=#E9E8FF;strokeColor=default;" parent="1" vertex="1">
          <mxGeometry x="272.5" y="2720" width="181.5" height="40" as="geometry" />
        </mxCell>
        <mxCell id="92YQbH5iBJ2PhjtS2n_j-63" value="&lt;div&gt;4&lt;/div&gt;" style="rounded=1;whiteSpace=wrap;html=1;hachureGap=4;fontFamily=Mina;strokeWidth=2;fillColor=#e1d5e7;strokeColor=#000000;fontSize=25;fontStyle=1;labelBorderColor=none;textShadow=0;labelBackgroundColor=none;align=center;spacing=7;verticalAlign=middle;" parent="1" vertex="1">
          <mxGeometry x="40" y="2780" width="40" height="40" as="geometry" />
        </mxCell>
        <mxCell id="92YQbH5iBJ2PhjtS2n_j-64" value="`D_\alpha`" style="rounded=1;whiteSpace=wrap;html=1;hachureGap=4;fontFamily=Mina;strokeWidth=2;fillColor=#e1d5e7;strokeColor=#000000;fontSize=16;fontStyle=1;labelBorderColor=none;textShadow=0;labelBackgroundColor=none;align=left;spacing=7;verticalAlign=middle;" parent="1" vertex="1">
          <mxGeometry x="80" y="2780" width="40" height="40" as="geometry" />
        </mxCell>
        <mxCell id="92YQbH5iBJ2PhjtS2n_j-65" value="`D_{0.05} = 0.565`" style="rounded=1;whiteSpace=wrap;html=1;hachureGap=4;strokeWidth=2;textShadow=0;align=left;spacing=7;verticalAlign=middle;fontSize=16;fillColor=#E9E8FF;strokeColor=default;" parent="1" vertex="1">
          <mxGeometry x="133.75" y="2780" width="126.25" height="40" as="geometry" />
        </mxCell>
        <mxCell id="92YQbH5iBJ2PhjtS2n_j-66" value="&lt;div&gt;5&lt;/div&gt;" style="rounded=1;whiteSpace=wrap;html=1;hachureGap=4;fontFamily=Mina;strokeWidth=2;fillColor=#e1d5e7;strokeColor=#000000;fontSize=25;fontStyle=1;labelBorderColor=none;textShadow=0;labelBackgroundColor=none;align=center;spacing=7;verticalAlign=middle;" parent="1" vertex="1">
          <mxGeometry x="40" y="2840" width="40" height="40" as="geometry" />
        </mxCell>
        <mxCell id="92YQbH5iBJ2PhjtS2n_j-67" value="&lt;font data-font-src=&quot;https://fonts.googleapis.com/css?family=Mali&quot; face=&quot;Mali&quot;&gt;Accept if &lt;/font&gt;`D &amp;lt; D_\alpha` &lt;font face=&quot;Lateef&quot;&gt;اللي بجيبها من الجدول&lt;/font&gt;, &lt;font data-font-src=&quot;https://fonts.googleapis.com/css?family=Mali&quot; face=&quot;Mali&quot;&gt;Otherwise Reject&lt;/font&gt;" style="rounded=1;whiteSpace=wrap;html=1;hachureGap=4;fontFamily=Mina;strokeWidth=2;fillColor=#e1d5e7;strokeColor=#000000;fontSize=16;fontStyle=1;labelBorderColor=none;textShadow=0;labelBackgroundColor=none;align=left;spacing=7;verticalAlign=middle;textDirection=ltr;" parent="1" vertex="1">
          <mxGeometry x="80" y="2840" width="440" height="40" as="geometry" />
        </mxCell>
        <mxCell id="92YQbH5iBJ2PhjtS2n_j-70" style="edgeStyle=orthogonalEdgeStyle;rounded=1;orthogonalLoop=1;jettySize=auto;html=1;strokeColor=#EA6B66;endArrow=baseDash;endFill=0;curved=0;" parent="1" source="92YQbH5iBJ2PhjtS2n_j-68" edge="1">
          <mxGeometry relative="1" as="geometry">
            <mxPoint x="173" y="2868" as="targetPoint" />
            <Array as="points">
              <mxPoint x="173" y="2904" />
            </Array>
          </mxGeometry>
        </mxCell>
        <mxCell id="92YQbH5iBJ2PhjtS2n_j-68" value="اللي انا حاسبها" style="text;whiteSpace=wrap;fontFamily=Beiruti;fontSource=https%3A%2F%2Ffonts.googleapis.com%2Fcss%3Ffamily%3DBeiruti;fontStyle=1" parent="1" vertex="1">
          <mxGeometry x="100" y="2890" width="60" height="27" as="geometry" />
        </mxCell>
        <mxCell id="92YQbH5iBJ2PhjtS2n_j-71" value="قيمة الـ `D_\alpha` دي بروح اجيبها من الجدول اللي هو مديهولي بمعلومية الـ `\alpha, N` بسكده" style="text;whiteSpace=wrap;fontFamily=Beiruti;fontSource=https%3A%2F%2Ffonts.googleapis.com%2Fcss%3Ffamily%3DBeiruti;align=center;fontStyle=1" parent="1" vertex="1">
          <mxGeometry x="285.5" y="2788.25" width="320" height="23.5" as="geometry" />
        </mxCell>
        <mxCell id="92YQbH5iBJ2PhjtS2n_j-74" value="هيديك شوية ارقام عددهم `N` و قيمة `\alpha` هنستخدمها تحت" style="text;whiteSpace=wrap;fontFamily=Beiruti;fontSource=https%3A%2F%2Ffonts.googleapis.com%2Fcss%3Ffamily%3DBeiruti;align=center;fontStyle=1;textDirection=rtl;fontSize=15;labelBackgroundColor=none;labelBorderColor=none;textShadow=0;" parent="1" vertex="1">
          <mxGeometry x="550" y="2415.5" width="151.24" height="49" as="geometry" />
        </mxCell>
        <mxCell id="92YQbH5iBJ2PhjtS2n_j-79" style="edgeStyle=orthogonalEdgeStyle;rounded=1;orthogonalLoop=1;jettySize=auto;html=1;flowAnimation=0;labelBorderColor=none;curved=0;strokeWidth=0.5;entryX=0.5;entryY=0;entryDx=0;entryDy=0;" parent="1" source="92YQbH5iBJ2PhjtS2n_j-71" target="5jQKQcuQU8hK-RTX6Nid-2" edge="1">
          <mxGeometry relative="1" as="geometry">
            <Array as="points">
              <mxPoint x="270" y="2800" />
              <mxPoint x="270" y="2770" />
              <mxPoint x="750" y="2770" />
              <mxPoint x="750" y="2780" />
            </Array>
            <mxPoint x="664.2666666666667" y="2780" as="targetPoint" />
          </mxGeometry>
        </mxCell>
        <mxCell id="92YQbH5iBJ2PhjtS2n_j-82" value="&lt;font style=&quot;font-size: 6px;&quot; data-font-src=&quot;https://fonts.googleapis.com/css?family=Beiruti&quot; face=&quot;Beiruti&quot;&gt;&lt;b style=&quot;background-color: rgb(255, 255, 204);&quot;&gt;اعمل زووم حبة حلوين&lt;/b&gt;&lt;/font&gt;" style="edgeLabel;html=1;align=center;verticalAlign=middle;resizable=0;points=[];strokeOpacity=30;" parent="92YQbH5iBJ2PhjtS2n_j-79" vertex="1" connectable="0">
          <mxGeometry x="0.2078" y="3" relative="1" as="geometry">
            <mxPoint x="127" as="offset" />
          </mxGeometry>
        </mxCell>
        <mxCell id="92YQbH5iBJ2PhjtS2n_j-83" value="هنا بنرقم الـ values بـداية من 1" style="text;whiteSpace=wrap;fontFamily=Beiruti;fontSource=https%3A%2F%2Ffonts.googleapis.com%2Fcss%3Ffamily%3DBeiruti;align=center;fontStyle=1;textDirection=rtl;fontSize=13;labelBackgroundColor=none;labelBorderColor=none;textShadow=0;" parent="1" vertex="1">
          <mxGeometry x="620" y="2498.25" width="134.5" height="31.75" as="geometry" />
        </mxCell>
        <mxCell id="92YQbH5iBJ2PhjtS2n_j-84" style="edgeStyle=orthogonalEdgeStyle;rounded=1;orthogonalLoop=1;jettySize=auto;html=1;entryX=1;entryY=0.5;entryDx=0;entryDy=0;sketch=1;curveFitting=1;jiggle=2;curved=0;strokeWidth=0.5;" parent="1" source="92YQbH5iBJ2PhjtS2n_j-42" target="92YQbH5iBJ2PhjtS2n_j-83" edge="1">
          <mxGeometry relative="1" as="geometry">
            <Array as="points">
              <mxPoint x="770" y="2550" />
              <mxPoint x="770" y="2514" />
            </Array>
          </mxGeometry>
        </mxCell>
        <mxCell id="92YQbH5iBJ2PhjtS2n_j-85" value="هنا بجيب اكبر قيمة في الصف بتاع الـ `D+` و اكبر قيمة من الصف بتاع الـ `D-` و بعد كده بجيب الأكبر فيهم وبعتبره هو الـ `D` بسكده" style="text;whiteSpace=wrap;fontFamily=Beiruti;fontSource=https%3A%2F%2Ffonts.googleapis.com%2Fcss%3Ffamily%3DBeiruti;align=center;fontStyle=1" parent="1" vertex="1">
          <mxGeometry x="480" y="2718.25" width="260" height="43.5" as="geometry" />
        </mxCell>
        <mxCell id="92YQbH5iBJ2PhjtS2n_j-89" value="القيمة ديه عملتلها Skip عشان هتطلع سالبة وانا مهتم بالـ Max " style="text;whiteSpace=wrap;fontFamily=Beiruti;fontSource=https%3A%2F%2Ffonts.googleapis.com%2Fcss%3Ffamily%3DBeiruti;align=center;fontStyle=1;textDirection=rtl;fontSize=10;" parent="1" vertex="1">
          <mxGeometry x="495.5" y="2480" width="110" height="35" as="geometry" />
        </mxCell>
        <mxCell id="92YQbH5iBJ2PhjtS2n_j-90" style="edgeStyle=orthogonalEdgeStyle;rounded=0;orthogonalLoop=1;jettySize=auto;html=1;endArrow=none;endFill=0;startFill=0;startArrow=baseDash;" parent="1" target="92YQbH5iBJ2PhjtS2n_j-89" edge="1">
          <mxGeometry relative="1" as="geometry">
            <mxPoint x="546" y="2626" as="sourcePoint" />
            <Array as="points">
              <mxPoint x="540" y="2626" />
            </Array>
          </mxGeometry>
        </mxCell>
        <mxCell id="92YQbH5iBJ2PhjtS2n_j-22" value="&lt;span&gt;`0.05 - {1-1}/5=0.05`&lt;/span&gt;" style="rounded=0;whiteSpace=wrap;html=1;strokeWidth=2;fillColor=#d0cee2;strokeColor=default;container=0;fontSize=13;fontStyle=1;fontFamily=Mina;fontSource=https%3A%2F%2Ffonts.googleapis.com%2Fcss%3Ffamily%3DMina;" parent="1" vertex="1">
          <mxGeometry x="266" y="2650" width="144" height="45" as="geometry" />
        </mxCell>
        <mxCell id="92YQbH5iBJ2PhjtS2n_j-19" value="&lt;span style=&quot;font-size: 16px; font-weight: 700;&quot;&gt;`1`&lt;/span&gt;" style="rounded=0;whiteSpace=wrap;html=1;strokeWidth=2;fillColor=#bac8d3;strokeColor=default;container=0;fontSize=16;fontFamily=Mina;fontSource=https%3A%2F%2Ffonts.googleapis.com%2Fcss%3Ffamily%3DMina;" parent="1" vertex="1">
          <mxGeometry x="266.06620689655176" y="2530" width="143.9337931034483" height="36.04" as="geometry" />
        </mxCell>
        <mxCell id="92YQbH5iBJ2PhjtS2n_j-20" value="`0.05`" style="rounded=0;whiteSpace=wrap;html=1;strokeWidth=2;fillColor=#fad7ac;strokeColor=default;container=0;fontSize=14;fontStyle=1;fontFamily=Mina;fontSource=https%3A%2F%2Ffonts.googleapis.com%2Fcss%3Ffamily%3DMina;" parent="1" vertex="1">
          <mxGeometry x="266.06620689655176" y="2566.04" width="143.9337931034483" height="36.04" as="geometry" />
        </mxCell>
        <mxCell id="92YQbH5iBJ2PhjtS2n_j-21" value="`1/5 - 0.05 = 0.15`" style="rounded=0;strokeWidth=2;fillColor=#b1ddf0;strokeColor=default;container=0;fontSize=14;fontStyle=1;fontFamily=Mina;fontSource=https%3A%2F%2Ffonts.googleapis.com%2Fcss%3Ffamily%3DMina;labelBorderColor=none;textShadow=0;whiteSpace=wrap;html=1;" parent="1" vertex="1">
          <mxGeometry x="266" y="2602.08" width="143.9337931034483" height="47.92" as="geometry" />
        </mxCell>
        <mxCell id="92YQbH5iBJ2PhjtS2n_j-48" value="" style="group;strokeColor=default;" parent="1" vertex="1" connectable="0">
          <mxGeometry x="590" y="2530" width="149" height="165" as="geometry" />
        </mxCell>
        <mxCell id="92YQbH5iBJ2PhjtS2n_j-42" value="&lt;b&gt;`5`&lt;/b&gt;" style="rounded=0;whiteSpace=wrap;html=1;strokeWidth=2;fillColor=#bac8d3;strokeColor=default;container=0;fontSize=16;fontFamily=Mina;fontSource=https%3A%2F%2Ffonts.googleapis.com%2Fcss%3Ffamily%3DMina;" parent="92YQbH5iBJ2PhjtS2n_j-48" vertex="1">
          <mxGeometry x="0.0685057471265691" width="148.93149425287336" height="36.040000000000006" as="geometry" />
        </mxCell>
        <mxCell id="92YQbH5iBJ2PhjtS2n_j-43" value="`0.93`" style="rounded=0;whiteSpace=wrap;html=1;strokeWidth=2;fillColor=#fad7ac;strokeColor=default;container=0;fontSize=14;fontStyle=1;fontFamily=Mina;fontSource=https%3A%2F%2Ffonts.googleapis.com%2Fcss%3Ffamily%3DMina;" parent="92YQbH5iBJ2PhjtS2n_j-48" vertex="1">
          <mxGeometry x="0.0685057471265691" y="36.03999999999997" width="148.93149425287336" height="36.040000000000006" as="geometry" />
        </mxCell>
        <mxCell id="92YQbH5iBJ2PhjtS2n_j-44" value="&lt;span&gt;`5/5 - 0.93 = 0.07`&lt;/span&gt;" style="rounded=0;whiteSpace=wrap;html=1;strokeWidth=2;fillColor=#b1ddf0;strokeColor=default;container=0;fontSize=14;fontStyle=1;fontFamily=Mina;fontSource=https%3A%2F%2Ffonts.googleapis.com%2Fcss%3Ffamily%3DMina;" parent="92YQbH5iBJ2PhjtS2n_j-48" vertex="1">
          <mxGeometry y="72.07999999999994" width="148.93149425287336" height="47.92000000000001" as="geometry" />
        </mxCell>
        <mxCell id="92YQbH5iBJ2PhjtS2n_j-45" value="&lt;span&gt;`0.93-{5-1}/5=0.13`&lt;/span&gt;" style="rounded=0;whiteSpace=wrap;html=1;strokeWidth=2;fillColor=#d0cee2;strokeColor=default;container=0;fontSize=13;fontStyle=1;fontFamily=Mina;fontSource=https%3A%2F%2Ffonts.googleapis.com%2Fcss%3Ffamily%3DMina;" parent="92YQbH5iBJ2PhjtS2n_j-48" vertex="1">
          <mxGeometry y="120" width="148.93" height="45" as="geometry" />
        </mxCell>
        <mxCell id="92YQbH5iBJ2PhjtS2n_j-49" value="" style="group;align=left;spacingLeft=19;strokeColor=default;" parent="1" vertex="1" connectable="0">
          <mxGeometry x="220" y="2530" width="47" height="165" as="geometry" />
        </mxCell>
        <mxCell id="92YQbH5iBJ2PhjtS2n_j-12" value="" style="group;fontSize=16;fontFamily=Mina;fontSource=https%3A%2F%2Ffonts.googleapis.com%2Fcss%3Ffamily%3DMina;rounded=0;strokeColor=default;" parent="92YQbH5iBJ2PhjtS2n_j-49" vertex="1" connectable="0">
          <mxGeometry width="47" height="144" as="geometry" />
        </mxCell>
        <mxCell id="92YQbH5iBJ2PhjtS2n_j-13" value="&lt;span style=&quot;font-size: 16px; font-weight: 700;&quot;&gt;`i`&lt;/span&gt;" style="rounded=0;whiteSpace=wrap;html=1;strokeWidth=2;fillColor=#bac8d3;strokeColor=default;container=0;fontSize=16;fontFamily=Mina;fontSource=https%3A%2F%2Ffonts.googleapis.com%2Fcss%3Ffamily%3DMina;align=left;spacingLeft=13;" parent="92YQbH5iBJ2PhjtS2n_j-12" vertex="1">
          <mxGeometry x="0.021609195402298848" width="46.978390804597694" height="36.04" as="geometry" />
        </mxCell>
        <mxCell id="92YQbH5iBJ2PhjtS2n_j-14" value="`R`" style="rounded=0;whiteSpace=wrap;html=1;strokeWidth=2;fillColor=#fad7ac;strokeColor=default;container=0;fontSize=16;fontStyle=1;fontFamily=Mina;fontSource=https%3A%2F%2Ffonts.googleapis.com%2Fcss%3Ffamily%3DMina;align=left;spacingLeft=9;" parent="92YQbH5iBJ2PhjtS2n_j-12" vertex="1">
          <mxGeometry x="0.021609195402298848" y="36.04000000000002" width="46.978390804597694" height="36.04" as="geometry" />
        </mxCell>
        <mxCell id="92YQbH5iBJ2PhjtS2n_j-15" value="&lt;span style=&quot;font-size: 16px;&quot;&gt;`D+`&lt;/span&gt;" style="rounded=0;whiteSpace=wrap;html=1;strokeWidth=2;fillColor=#b1ddf0;strokeColor=default;container=0;fontSize=16;fontStyle=1;fontFamily=Mina;fontSource=https%3A%2F%2Ffonts.googleapis.com%2Fcss%3Ffamily%3DMina;align=left;spacingLeft=8;" parent="92YQbH5iBJ2PhjtS2n_j-12" vertex="1">
          <mxGeometry y="72.08" width="46.978390804597694" height="47.92" as="geometry" />
        </mxCell>
        <mxCell id="92YQbH5iBJ2PhjtS2n_j-16" value="&lt;span style=&quot;font-size: 16px;&quot;&gt;`D-`&lt;/span&gt;" style="rounded=0;whiteSpace=wrap;html=1;strokeWidth=2;fillColor=#d0cee2;strokeColor=default;container=0;fontSize=16;fontStyle=1;fontFamily=Mina;fontSource=https%3A%2F%2Ffonts.googleapis.com%2Fcss%3Ffamily%3DMina;" parent="92YQbH5iBJ2PhjtS2n_j-49" vertex="1">
          <mxGeometry y="120" width="46.978390804597694" height="45" as="geometry" />
        </mxCell>
        <mxCell id="92YQbH5iBJ2PhjtS2n_j-50" value="" style="group;strokeColor=default;" parent="1" vertex="1" connectable="0">
          <mxGeometry x="410" y="2530" width="60" height="165" as="geometry" />
        </mxCell>
        <mxCell id="92YQbH5iBJ2PhjtS2n_j-25" value="&lt;b&gt;`2`&lt;/b&gt;" style="rounded=0;whiteSpace=wrap;html=1;strokeWidth=2;fillColor=#bac8d3;strokeColor=default;container=0;fontSize=16;fontFamily=Mina;fontSource=https%3A%2F%2Ffonts.googleapis.com%2Fcss%3Ffamily%3DMina;" parent="92YQbH5iBJ2PhjtS2n_j-50" vertex="1">
          <mxGeometry x="0.027586206896565837" width="59.97241379310344" height="36.04" as="geometry" />
        </mxCell>
        <mxCell id="92YQbH5iBJ2PhjtS2n_j-26" value="`0.14`" style="rounded=0;whiteSpace=wrap;html=1;strokeWidth=2;fillColor=#fad7ac;strokeColor=default;container=0;fontSize=14;fontStyle=1;fontFamily=Mina;fontSource=https%3A%2F%2Ffonts.googleapis.com%2Fcss%3Ffamily%3DMina;" parent="92YQbH5iBJ2PhjtS2n_j-50" vertex="1">
          <mxGeometry x="0.027586206896565837" y="36.039999999999964" width="59.97241379310344" height="36.04" as="geometry" />
        </mxCell>
        <mxCell id="92YQbH5iBJ2PhjtS2n_j-27" value="&lt;span&gt;`0.26`&lt;/span&gt;" style="rounded=0;whiteSpace=wrap;html=1;strokeWidth=2;fillColor=#b1ddf0;strokeColor=default;container=0;fontSize=18;fontStyle=1;fontFamily=Mina;fontSource=https%3A%2F%2Ffonts.googleapis.com%2Fcss%3Ffamily%3DMina;fontColor=#FF0000;" parent="92YQbH5iBJ2PhjtS2n_j-50" vertex="1">
          <mxGeometry y="72.07999999999993" width="59.97241379310344" height="47.92" as="geometry" />
        </mxCell>
        <mxCell id="92YQbH5iBJ2PhjtS2n_j-28" value="&lt;span&gt;`-`&lt;/span&gt;" style="rounded=0;whiteSpace=wrap;html=1;strokeWidth=2;fillColor=#d0cee2;strokeColor=default;container=0;fontSize=14;fontStyle=1;fontFamily=Mina;fontSource=https%3A%2F%2Ffonts.googleapis.com%2Fcss%3Ffamily%3DMina;" parent="92YQbH5iBJ2PhjtS2n_j-50" vertex="1">
          <mxGeometry y="120" width="59.97241379310344" height="45" as="geometry" />
        </mxCell>
        <mxCell id="92YQbH5iBJ2PhjtS2n_j-51" value="" style="group;strokeColor=default;" parent="1" vertex="1" connectable="0">
          <mxGeometry x="470" y="2530" width="60" height="165" as="geometry" />
        </mxCell>
        <mxCell id="92YQbH5iBJ2PhjtS2n_j-30" value="" style="group;fontSize=16;fontFamily=Mina;fontSource=https%3A%2F%2Ffonts.googleapis.com%2Fcss%3Ffamily%3DMina;rounded=0;strokeColor=default;" parent="92YQbH5iBJ2PhjtS2n_j-51" vertex="1" connectable="0">
          <mxGeometry width="60.00000000000001" height="144" as="geometry" />
        </mxCell>
        <mxCell id="92YQbH5iBJ2PhjtS2n_j-31" value="&lt;b&gt;`3`&lt;/b&gt;" style="rounded=0;whiteSpace=wrap;html=1;strokeWidth=2;fillColor=#bac8d3;strokeColor=default;container=0;fontSize=16;fontFamily=Mina;fontSource=https%3A%2F%2Ffonts.googleapis.com%2Fcss%3Ffamily%3DMina;" parent="92YQbH5iBJ2PhjtS2n_j-30" vertex="1">
          <mxGeometry x="0.027586206896551727" width="59.97241379310345" height="36.04" as="geometry" />
        </mxCell>
        <mxCell id="92YQbH5iBJ2PhjtS2n_j-32" value="`0.44`" style="rounded=0;whiteSpace=wrap;html=1;strokeWidth=2;fillColor=#fad7ac;strokeColor=default;container=0;fontSize=14;fontStyle=1;fontFamily=Mina;fontSource=https%3A%2F%2Ffonts.googleapis.com%2Fcss%3Ffamily%3DMina;" parent="92YQbH5iBJ2PhjtS2n_j-30" vertex="1">
          <mxGeometry x="0.027586206896551727" y="36.04000000000002" width="59.97241379310345" height="36.04" as="geometry" />
        </mxCell>
        <mxCell id="92YQbH5iBJ2PhjtS2n_j-33" value="&lt;span&gt;`0.16`&lt;/span&gt;" style="rounded=0;whiteSpace=wrap;html=1;strokeWidth=2;fillColor=#b1ddf0;strokeColor=default;container=0;fontSize=14;fontStyle=1;fontFamily=Mina;fontSource=https%3A%2F%2Ffonts.googleapis.com%2Fcss%3Ffamily%3DMina;" parent="92YQbH5iBJ2PhjtS2n_j-30" vertex="1">
          <mxGeometry y="72.08" width="59.97241379310345" height="47.92" as="geometry" />
        </mxCell>
        <mxCell id="92YQbH5iBJ2PhjtS2n_j-34" value="`0.04`" style="rounded=0;whiteSpace=wrap;html=1;strokeWidth=2;fillColor=#d0cee2;strokeColor=default;container=0;fontSize=14;fontStyle=1;fontFamily=Mina;fontSource=https%3A%2F%2Ffonts.googleapis.com%2Fcss%3Ffamily%3DMina;" parent="92YQbH5iBJ2PhjtS2n_j-51" vertex="1">
          <mxGeometry x="0.027586206896565837" y="120" width="59.97241379310345" height="45" as="geometry" />
        </mxCell>
        <mxCell id="92YQbH5iBJ2PhjtS2n_j-52" value="" style="group;strokeColor=default;" parent="1" vertex="1" connectable="0">
          <mxGeometry x="530" y="2530" width="60" height="165" as="geometry" />
        </mxCell>
        <mxCell id="92YQbH5iBJ2PhjtS2n_j-36" value="" style="group;fontSize=16;fontFamily=Mina;fontSource=https%3A%2F%2Ffonts.googleapis.com%2Fcss%3Ffamily%3DMina;rounded=0;strokeColor=default;" parent="92YQbH5iBJ2PhjtS2n_j-52" vertex="1" connectable="0">
          <mxGeometry width="60" height="144" as="geometry" />
        </mxCell>
        <mxCell id="92YQbH5iBJ2PhjtS2n_j-37" value="&lt;b&gt;`4`&lt;/b&gt;" style="rounded=0;whiteSpace=wrap;html=1;strokeWidth=2;fillColor=#bac8d3;strokeColor=default;container=0;fontSize=16;fontFamily=Mina;fontSource=https%3A%2F%2Ffonts.googleapis.com%2Fcss%3Ffamily%3DMina;" parent="92YQbH5iBJ2PhjtS2n_j-36" vertex="1">
          <mxGeometry x="0.027586206896551724" width="59.97241379310344" height="36.04" as="geometry" />
        </mxCell>
        <mxCell id="92YQbH5iBJ2PhjtS2n_j-38" value="`0.81`" style="rounded=0;whiteSpace=wrap;html=1;strokeWidth=2;fillColor=#fad7ac;strokeColor=default;container=0;fontSize=14;fontStyle=1;fontFamily=Mina;fontSource=https%3A%2F%2Ffonts.googleapis.com%2Fcss%3Ffamily%3DMina;" parent="92YQbH5iBJ2PhjtS2n_j-36" vertex="1">
          <mxGeometry x="0.027586206896551724" y="36.04000000000002" width="59.97241379310344" height="36.04" as="geometry" />
        </mxCell>
        <mxCell id="92YQbH5iBJ2PhjtS2n_j-39" value="&lt;span&gt;`-`&lt;/span&gt;" style="rounded=0;whiteSpace=wrap;html=1;strokeWidth=2;fillColor=#b1ddf0;strokeColor=default;container=0;fontSize=14;fontStyle=1;fontFamily=Mina;fontSource=https%3A%2F%2Ffonts.googleapis.com%2Fcss%3Ffamily%3DMina;" parent="92YQbH5iBJ2PhjtS2n_j-36" vertex="1">
          <mxGeometry y="72.08" width="59.97241379310344" height="47.92" as="geometry" />
        </mxCell>
        <mxCell id="92YQbH5iBJ2PhjtS2n_j-40" value="&lt;span&gt;`0.21`&lt;/span&gt;" style="rounded=0;whiteSpace=wrap;html=1;strokeWidth=2;fillColor=#d0cee2;strokeColor=default;container=0;fontSize=18;fontStyle=1;fontFamily=Mina;fontSource=https%3A%2F%2Ffonts.googleapis.com%2Fcss%3Ffamily%3DMina;fontColor=#FF0000;" parent="92YQbH5iBJ2PhjtS2n_j-52" vertex="1">
          <mxGeometry y="120" width="59.97241379310344" height="45" as="geometry" />
        </mxCell>
        <mxCell id="5jQKQcuQU8hK-RTX6Nid-110" value="" style="group" parent="1" vertex="1" connectable="0">
          <mxGeometry x="700" y="2780" width="102.84000000000003" height="205" as="geometry" />
        </mxCell>
        <mxCell id="5jQKQcuQU8hK-RTX6Nid-2" value="&lt;div style=&quot;direction: rtl;&quot;&gt;ماتتخضش دا Given 😎&amp;nbsp;&lt;/div&gt;" style="text;html=1;align=center;verticalAlign=middle;whiteSpace=wrap;rounded=0;fontFamily=Beiruti;fontStyle=1;fontSize=7;fontSource=https://fonts.googleapis.com/css?family=Beiruti;fontColor=light-dark(#FF3333,#EDEDED);labelBorderColor=none;textShadow=1;" parent="5jQKQcuQU8hK-RTX6Nid-110" vertex="1">
          <mxGeometry x="15.789999999999964" width="67.2" height="11.03" as="geometry" />
        </mxCell>
        <mxCell id="5jQKQcuQU8hK-RTX6Nid-96" value="&lt;span&gt;D&lt;sub&gt;0.10&lt;/sub&gt;&lt;/span&gt;" style="rounded=0;whiteSpace=wrap;html=1;strokeWidth=0.5;fillColor=#76608a;strokeColor=default;fontColor=#ffffff;container=0;fontSize=5;fontFamily=Mali;fontSource=https://fonts.googleapis.com/css?family=Mali;fontStyle=0;spacingTop=0;" parent="5jQKQcuQU8hK-RTX6Nid-110" vertex="1">
          <mxGeometry x="38.68220565086881" y="11.029411764705856" width="21.376127749758933" height="16.21323529411769" as="geometry" />
        </mxCell>
        <mxCell id="5jQKQcuQU8hK-RTX6Nid-97" value="&lt;span&gt;D&lt;sub&gt;0.05&lt;/sub&gt;&lt;/span&gt;" style="rounded=0;whiteSpace=wrap;html=1;strokeWidth=0.5;fillColor=#76608a;strokeColor=default;fontColor=#ffffff;container=0;fontSize=5;fontFamily=Mali;fontSource=https://fonts.googleapis.com/css?family=Mali;fontStyle=0;spacingTop=0;" parent="5jQKQcuQU8hK-RTX6Nid-110" vertex="1">
          <mxGeometry x="60.0583334006277" y="11.029411764705856" width="21.376127749758933" height="16.21323529411769" as="geometry" />
        </mxCell>
        <mxCell id="5jQKQcuQU8hK-RTX6Nid-98" value="D&lt;sub&gt;0.01&lt;/sub&gt;" style="rounded=0;whiteSpace=wrap;html=1;strokeWidth=0.5;fillColor=#76608a;strokeColor=default;fontColor=#ffffff;container=0;fontSize=5;fontFamily=Mali;fontSource=https://fonts.googleapis.com/css?family=Mali;fontStyle=0;spacingTop=0;" parent="5jQKQcuQU8hK-RTX6Nid-110" vertex="1">
          <mxGeometry x="81.44429377584652" y="11.029411764705856" width="21.376127749758933" height="16.21323529411769" as="geometry" />
        </mxCell>
        <mxCell id="5jQKQcuQU8hK-RTX6Nid-7" value="0.950" style="rounded=0;whiteSpace=wrap;html=1;strokeWidth=0.5;fillColor=#e1d5e7;strokeColor=default;container=0;fontSize=5;fontStyle=0;fontFamily=Oxanium;fontSource=https://fonts.googleapis.com/css?family=Oxanium;spacingTop=0;" parent="5jQKQcuQU8hK-RTX6Nid-110" vertex="1">
          <mxGeometry x="38.68060908397774" y="27.23999999999978" width="21.375811785208576" height="7.028703270724857" as="geometry" />
        </mxCell>
        <mxCell id="5jQKQcuQU8hK-RTX6Nid-8" value="0.776" style="rounded=0;whiteSpace=wrap;html=1;strokeWidth=0.5;fillColor=#e1d5e7;strokeColor=default;container=0;fontSize=5;fontStyle=0;fontFamily=Oxanium;fontSource=https://fonts.googleapis.com/css?family=Oxanium;spacingTop=0;" parent="5jQKQcuQU8hK-RTX6Nid-110" vertex="1">
          <mxGeometry x="38.67077660385576" y="34.26870327072447" width="21.375811785208576" height="7.028703270724857" as="geometry" />
        </mxCell>
        <mxCell id="5jQKQcuQU8hK-RTX6Nid-9" value="0.642" style="rounded=0;whiteSpace=wrap;html=1;strokeWidth=0.5;fillColor=#e1d5e7;strokeColor=default;container=0;fontSize=5;fontStyle=0;fontFamily=Oxanium;fontSource=https://fonts.googleapis.com/css?family=Oxanium;spacingTop=0;" parent="5jQKQcuQU8hK-RTX6Nid-110" vertex="1">
          <mxGeometry x="38.67077660385576" y="41.29740654144962" width="21.375811785208576" height="7.028703270724857" as="geometry" />
        </mxCell>
        <mxCell id="5jQKQcuQU8hK-RTX6Nid-10" value="0.564" style="rounded=0;whiteSpace=wrap;html=1;strokeWidth=0.5;fillColor=#e1d5e7;strokeColor=default;container=0;fontSize=5;fontStyle=0;fontFamily=Oxanium;fontSource=https://fonts.googleapis.com/css?family=Oxanium;spacingTop=0;" parent="5jQKQcuQU8hK-RTX6Nid-110" vertex="1">
          <mxGeometry x="38.67077660385576" y="48.326109812173854" width="21.375811785208576" height="6.623051139673034" as="geometry" />
        </mxCell>
        <mxCell id="5jQKQcuQU8hK-RTX6Nid-11" value="0.975" style="rounded=0;whiteSpace=wrap;html=1;strokeWidth=0.5;fillColor=#C3B9C8;strokeColor=default;container=0;fontSize=5;fontStyle=0;fontFamily=Oxanium;fontSource=https://fonts.googleapis.com/css?family=Oxanium;spacingTop=0;" parent="5jQKQcuQU8hK-RTX6Nid-110" vertex="1">
          <mxGeometry x="60.056420869186354" y="27.23999999999978" width="21.375811785208576" height="7.028703270724857" as="geometry" />
        </mxCell>
        <mxCell id="5jQKQcuQU8hK-RTX6Nid-12" value="0.842" style="rounded=0;whiteSpace=wrap;html=1;strokeWidth=0.5;fillColor=#C3B9C8;strokeColor=default;container=0;fontSize=5;fontStyle=0;fontFamily=Oxanium;fontSource=https://fonts.googleapis.com/css?family=Oxanium;spacingTop=0;" parent="5jQKQcuQU8hK-RTX6Nid-110" vertex="1">
          <mxGeometry x="60.04658838906437" y="34.26870327072447" width="21.375811785208576" height="7.028703270724857" as="geometry" />
        </mxCell>
        <mxCell id="5jQKQcuQU8hK-RTX6Nid-13" value="0.708" style="rounded=0;whiteSpace=wrap;html=1;strokeWidth=0.5;fillColor=#C3B9C8;strokeColor=default;container=0;fontSize=5;fontStyle=0;fontFamily=Oxanium;fontSource=https://fonts.googleapis.com/css?family=Oxanium;spacingTop=0;" parent="5jQKQcuQU8hK-RTX6Nid-110" vertex="1">
          <mxGeometry x="60.04658838906437" y="41.29740654144962" width="21.375811785208576" height="7.028703270724857" as="geometry" />
        </mxCell>
        <mxCell id="5jQKQcuQU8hK-RTX6Nid-14" value="0.624" style="rounded=0;whiteSpace=wrap;html=1;strokeWidth=0.5;fillColor=#C3B9C8;strokeColor=default;container=0;fontSize=5;fontStyle=0;fontFamily=Oxanium;fontSource=https://fonts.googleapis.com/css?family=Oxanium;spacingTop=0;" parent="5jQKQcuQU8hK-RTX6Nid-110" vertex="1">
          <mxGeometry x="60.04658838906437" y="48.326109812173854" width="21.375811785208576" height="6.623051139673034" as="geometry" />
        </mxCell>
        <mxCell id="5jQKQcuQU8hK-RTX6Nid-15" value="0.995" style="rounded=0;whiteSpace=wrap;html=1;strokeWidth=0.5;fillColor=#e1d5e7;strokeColor=default;container=0;fontSize=5;fontStyle=0;fontFamily=Oxanium;fontSource=https://fonts.googleapis.com/css?family=Oxanium;spacingTop=0;" parent="5jQKQcuQU8hK-RTX6Nid-110" vertex="1">
          <mxGeometry x="81.44206513451695" y="27.23999999999978" width="21.375811785208576" height="7.028703270724857" as="geometry" />
        </mxCell>
        <mxCell id="5jQKQcuQU8hK-RTX6Nid-16" value="0.929" style="rounded=0;whiteSpace=wrap;html=1;strokeWidth=0.5;fillColor=#e1d5e7;strokeColor=default;container=0;fontSize=5;fontStyle=0;fontFamily=Oxanium;fontSource=https://fonts.googleapis.com/css?family=Oxanium;spacingTop=0;" parent="5jQKQcuQU8hK-RTX6Nid-110" vertex="1">
          <mxGeometry x="81.43223265439497" y="34.26870327072447" width="21.375811785208576" height="7.028703270724857" as="geometry" />
        </mxCell>
        <mxCell id="5jQKQcuQU8hK-RTX6Nid-17" value="0.828" style="rounded=0;whiteSpace=wrap;html=1;strokeWidth=0.5;fillColor=#e1d5e7;strokeColor=default;container=0;fontSize=5;fontStyle=0;fontFamily=Oxanium;fontSource=https://fonts.googleapis.com/css?family=Oxanium;spacingTop=0;" parent="5jQKQcuQU8hK-RTX6Nid-110" vertex="1">
          <mxGeometry x="81.43223265439497" y="41.29740654144962" width="21.375811785208576" height="7.028703270724857" as="geometry" />
        </mxCell>
        <mxCell id="5jQKQcuQU8hK-RTX6Nid-18" value="0.733" style="rounded=0;whiteSpace=wrap;html=1;strokeWidth=0.5;fillColor=#e1d5e7;strokeColor=default;container=0;fontSize=5;fontStyle=0;fontFamily=Oxanium;fontSource=https://fonts.googleapis.com/css?family=Oxanium;spacingTop=0;" parent="5jQKQcuQU8hK-RTX6Nid-110" vertex="1">
          <mxGeometry x="81.43223265439497" y="48.326109812173854" width="21.375811785208576" height="6.623051139673034" as="geometry" />
        </mxCell>
        <mxCell id="5jQKQcuQU8hK-RTX6Nid-23" value="0.510" style="rounded=0;whiteSpace=wrap;html=1;strokeWidth=0.5;fillColor=#C3B9C8;strokeColor=default;container=0;fontSize=5;fontStyle=0;fontFamily=Oxanium;fontSource=https://fonts.googleapis.com/css?family=Oxanium;spacingTop=0;" parent="5jQKQcuQU8hK-RTX6Nid-110" vertex="1">
          <mxGeometry x="38.67077660385576" y="54.94916095184726" width="21.375811785208576" height="7.028703270724857" as="geometry" />
        </mxCell>
        <mxCell id="5jQKQcuQU8hK-RTX6Nid-24" value="0.470" style="rounded=0;whiteSpace=wrap;html=1;strokeWidth=0.5;fillColor=#e1d5e7;strokeColor=default;container=0;fontSize=5;fontStyle=0;fontFamily=Oxanium;fontSource=https://fonts.googleapis.com/css?family=Oxanium;spacingTop=0;" parent="5jQKQcuQU8hK-RTX6Nid-110" vertex="1">
          <mxGeometry x="38.66094412373377" y="61.97786422257195" width="21.375811785208576" height="7.028703270724857" as="geometry" />
        </mxCell>
        <mxCell id="5jQKQcuQU8hK-RTX6Nid-25" value="0.438" style="rounded=0;whiteSpace=wrap;html=1;strokeWidth=0.5;fillColor=#e1d5e7;strokeColor=default;container=0;fontSize=5;fontStyle=0;fontFamily=Oxanium;fontSource=https://fonts.googleapis.com/css?family=Oxanium;spacingTop=0;" parent="5jQKQcuQU8hK-RTX6Nid-110" vertex="1">
          <mxGeometry x="38.66094412373377" y="69.0065674932971" width="21.375811785208576" height="7.028703270724857" as="geometry" />
        </mxCell>
        <mxCell id="5jQKQcuQU8hK-RTX6Nid-26" value="0.411" style="rounded=0;whiteSpace=wrap;html=1;strokeWidth=0.5;fillColor=#e1d5e7;strokeColor=default;container=0;fontSize=5;fontStyle=0;fontFamily=Oxanium;fontSource=https://fonts.googleapis.com/css?family=Oxanium;spacingTop=0;" parent="5jQKQcuQU8hK-RTX6Nid-110" vertex="1">
          <mxGeometry x="38.66094412373377" y="76.03527076402179" width="21.375811785208576" height="6.623051139673034" as="geometry" />
        </mxCell>
        <mxCell id="5jQKQcuQU8hK-RTX6Nid-27" value="0.565" style="rounded=0;whiteSpace=wrap;html=1;strokeWidth=0.5;fillColor=#C3B9C8;strokeColor=default;container=0;fontSize=5;fontStyle=1;fontFamily=Oxanium;fontSource=https://fonts.googleapis.com/css?family=Oxanium;spacingTop=0;" parent="5jQKQcuQU8hK-RTX6Nid-110" vertex="1">
          <mxGeometry x="60.04658838906437" y="54.94916095184726" width="21.375811785208576" height="7.028703270724857" as="geometry" />
        </mxCell>
        <mxCell id="5jQKQcuQU8hK-RTX6Nid-28" value="0.521" style="rounded=0;whiteSpace=wrap;html=1;strokeWidth=0.5;fillColor=#C3B9C8;strokeColor=default;container=0;fontSize=5;fontStyle=0;fontFamily=Oxanium;fontSource=https://fonts.googleapis.com/css?family=Oxanium;spacingTop=0;" parent="5jQKQcuQU8hK-RTX6Nid-110" vertex="1">
          <mxGeometry x="60.03675590894238" y="61.97786422257195" width="21.375811785208576" height="7.028703270724857" as="geometry" />
        </mxCell>
        <mxCell id="5jQKQcuQU8hK-RTX6Nid-29" value="0.486" style="rounded=0;whiteSpace=wrap;html=1;strokeWidth=0.5;fillColor=#C3B9C8;strokeColor=default;container=0;fontSize=5;fontStyle=0;fontFamily=Oxanium;fontSource=https://fonts.googleapis.com/css?family=Oxanium;spacingTop=0;" parent="5jQKQcuQU8hK-RTX6Nid-110" vertex="1">
          <mxGeometry x="60.03675590894238" y="69.0065674932971" width="21.375811785208576" height="7.028703270724857" as="geometry" />
        </mxCell>
        <mxCell id="5jQKQcuQU8hK-RTX6Nid-30" value="0.457" style="rounded=0;whiteSpace=wrap;html=1;strokeWidth=0.5;fillColor=#C3B9C8;strokeColor=default;container=0;fontSize=5;fontStyle=0;fontFamily=Oxanium;fontSource=https://fonts.googleapis.com/css?family=Oxanium;spacingTop=0;" parent="5jQKQcuQU8hK-RTX6Nid-110" vertex="1">
          <mxGeometry x="60.03675590894238" y="76.03527076402179" width="21.375811785208576" height="6.623051139673034" as="geometry" />
        </mxCell>
        <mxCell id="5jQKQcuQU8hK-RTX6Nid-31" value="0.669" style="rounded=0;whiteSpace=wrap;html=1;strokeWidth=0.5;fillColor=#C3B9C8;strokeColor=default;container=0;fontSize=5;fontStyle=0;fontFamily=Oxanium;fontSource=https://fonts.googleapis.com/css?family=Oxanium;spacingTop=0;" parent="5jQKQcuQU8hK-RTX6Nid-110" vertex="1">
          <mxGeometry x="81.43223265439497" y="54.94916095184726" width="21.375811785208576" height="7.028703270724857" as="geometry" />
        </mxCell>
        <mxCell id="5jQKQcuQU8hK-RTX6Nid-32" value="0.618" style="rounded=0;whiteSpace=wrap;html=1;strokeWidth=0.5;fillColor=#e1d5e7;strokeColor=default;container=0;fontSize=5;fontStyle=0;fontFamily=Oxanium;fontSource=https://fonts.googleapis.com/css?family=Oxanium;spacingTop=0;" parent="5jQKQcuQU8hK-RTX6Nid-110" vertex="1">
          <mxGeometry x="81.42240017427298" y="61.97786422257195" width="21.375811785208576" height="7.028703270724857" as="geometry" />
        </mxCell>
        <mxCell id="5jQKQcuQU8hK-RTX6Nid-33" value="0.577" style="rounded=0;whiteSpace=wrap;html=1;strokeWidth=0.5;fillColor=#e1d5e7;strokeColor=default;container=0;fontSize=5;fontStyle=0;fontFamily=Oxanium;fontSource=https://fonts.googleapis.com/css?family=Oxanium;spacingTop=0;" parent="5jQKQcuQU8hK-RTX6Nid-110" vertex="1">
          <mxGeometry x="81.42240017427298" y="69.0065674932971" width="21.375811785208576" height="7.028703270724857" as="geometry" />
        </mxCell>
        <mxCell id="5jQKQcuQU8hK-RTX6Nid-34" value="0.543" style="rounded=0;whiteSpace=wrap;html=1;strokeWidth=0.5;fillColor=#e1d5e7;strokeColor=default;container=0;fontSize=5;fontStyle=0;fontFamily=Oxanium;fontSource=https://fonts.googleapis.com/css?family=Oxanium;spacingTop=0;" parent="5jQKQcuQU8hK-RTX6Nid-110" vertex="1">
          <mxGeometry x="81.42240017427298" y="76.03527076402179" width="21.375811785208576" height="6.623051139673034" as="geometry" />
        </mxCell>
        <mxCell id="5jQKQcuQU8hK-RTX6Nid-39" value="0.388" style="rounded=0;whiteSpace=wrap;html=1;strokeWidth=0.5;fillColor=#e1d5e7;strokeColor=default;container=0;fontSize=5;fontStyle=0;fontFamily=Oxanium;fontSource=https://fonts.googleapis.com/css?family=Oxanium;spacingTop=0;" parent="5jQKQcuQU8hK-RTX6Nid-110" vertex="1">
          <mxGeometry x="38.68060908397774" y="82.6583219036952" width="21.375811785208576" height="7.028703270724857" as="geometry" />
        </mxCell>
        <mxCell id="5jQKQcuQU8hK-RTX6Nid-40" value="0.368" style="rounded=0;whiteSpace=wrap;html=1;strokeWidth=0.5;fillColor=#e1d5e7;strokeColor=default;container=0;fontSize=5;fontStyle=0;fontFamily=Oxanium;fontSource=https://fonts.googleapis.com/css?family=Oxanium;spacingTop=0;" parent="5jQKQcuQU8hK-RTX6Nid-110" vertex="1">
          <mxGeometry x="38.67077660385576" y="89.68702517441989" width="21.375811785208576" height="7.028703270724857" as="geometry" />
        </mxCell>
        <mxCell id="5jQKQcuQU8hK-RTX6Nid-41" value="0.352" style="rounded=0;whiteSpace=wrap;html=1;strokeWidth=0.5;fillColor=#e1d5e7;strokeColor=default;container=0;fontSize=5;fontStyle=0;fontFamily=Oxanium;fontSource=https://fonts.googleapis.com/css?family=Oxanium;spacingTop=0;" parent="5jQKQcuQU8hK-RTX6Nid-110" vertex="1">
          <mxGeometry x="38.67077660385576" y="96.71572844514458" width="21.375811785208576" height="7.028703270724857" as="geometry" />
        </mxCell>
        <mxCell id="5jQKQcuQU8hK-RTX6Nid-42" value="0.338" style="rounded=0;whiteSpace=wrap;html=1;strokeWidth=0.5;fillColor=#e1d5e7;strokeColor=default;container=0;fontSize=5;fontStyle=0;fontFamily=Oxanium;fontSource=https://fonts.googleapis.com/css?family=Oxanium;spacingTop=0;" parent="5jQKQcuQU8hK-RTX6Nid-110" vertex="1">
          <mxGeometry x="38.67077660385576" y="103.74443171586927" width="21.375811785208576" height="6.623051139673034" as="geometry" />
        </mxCell>
        <mxCell id="5jQKQcuQU8hK-RTX6Nid-43" value="0.432" style="rounded=0;whiteSpace=wrap;html=1;strokeWidth=0.5;fillColor=#C3B9C8;strokeColor=default;container=0;fontSize=5;fontStyle=0;fontFamily=Oxanium;fontSource=https://fonts.googleapis.com/css?family=Oxanium;spacingTop=0;" parent="5jQKQcuQU8hK-RTX6Nid-110" vertex="1">
          <mxGeometry x="60.056420869186354" y="82.6583219036952" width="21.375811785208576" height="7.028703270724857" as="geometry" />
        </mxCell>
        <mxCell id="5jQKQcuQU8hK-RTX6Nid-44" value="0.410" style="rounded=0;whiteSpace=wrap;html=1;strokeWidth=0.5;fillColor=#C3B9C8;strokeColor=default;container=0;fontSize=5;fontStyle=0;fontFamily=Oxanium;fontSource=https://fonts.googleapis.com/css?family=Oxanium;spacingTop=0;" parent="5jQKQcuQU8hK-RTX6Nid-110" vertex="1">
          <mxGeometry x="60.04658838906437" y="89.68702517441989" width="21.375811785208576" height="7.028703270724857" as="geometry" />
        </mxCell>
        <mxCell id="5jQKQcuQU8hK-RTX6Nid-45" value="0.391" style="rounded=0;whiteSpace=wrap;html=1;strokeWidth=0.5;fillColor=#C3B9C8;strokeColor=default;container=0;fontSize=5;fontStyle=0;fontFamily=Oxanium;fontSource=https://fonts.googleapis.com/css?family=Oxanium;spacingTop=0;" parent="5jQKQcuQU8hK-RTX6Nid-110" vertex="1">
          <mxGeometry x="60.04658838906437" y="96.71572844514458" width="21.375811785208576" height="7.028703270724857" as="geometry" />
        </mxCell>
        <mxCell id="5jQKQcuQU8hK-RTX6Nid-46" value="0.375" style="rounded=0;whiteSpace=wrap;html=1;strokeWidth=0.5;fillColor=#C3B9C8;strokeColor=default;container=0;fontSize=5;fontStyle=0;fontFamily=Oxanium;fontSource=https://fonts.googleapis.com/css?family=Oxanium;spacingTop=0;" parent="5jQKQcuQU8hK-RTX6Nid-110" vertex="1">
          <mxGeometry x="60.04658838906437" y="103.74443171586927" width="21.375811785208576" height="6.623051139673034" as="geometry" />
        </mxCell>
        <mxCell id="5jQKQcuQU8hK-RTX6Nid-47" value="0.514" style="rounded=0;whiteSpace=wrap;html=1;strokeWidth=0.5;fillColor=#e1d5e7;strokeColor=default;container=0;fontSize=5;fontStyle=0;fontFamily=Oxanium;fontSource=https://fonts.googleapis.com/css?family=Oxanium;spacingTop=0;" parent="5jQKQcuQU8hK-RTX6Nid-110" vertex="1">
          <mxGeometry x="81.44206513451695" y="82.6583219036952" width="21.375811785208576" height="7.028703270724857" as="geometry" />
        </mxCell>
        <mxCell id="5jQKQcuQU8hK-RTX6Nid-48" value="0.490" style="rounded=0;whiteSpace=wrap;html=1;strokeWidth=0.5;fillColor=#e1d5e7;strokeColor=default;container=0;fontSize=5;fontStyle=0;fontFamily=Oxanium;fontSource=https://fonts.googleapis.com/css?family=Oxanium;spacingTop=0;" parent="5jQKQcuQU8hK-RTX6Nid-110" vertex="1">
          <mxGeometry x="81.43223265439497" y="89.68702517441989" width="21.375811785208576" height="7.028703270724857" as="geometry" />
        </mxCell>
        <mxCell id="5jQKQcuQU8hK-RTX6Nid-49" value="0.468" style="rounded=0;whiteSpace=wrap;html=1;strokeWidth=0.5;fillColor=#e1d5e7;strokeColor=default;container=0;fontSize=5;fontStyle=0;fontFamily=Oxanium;fontSource=https://fonts.googleapis.com/css?family=Oxanium;spacingTop=0;" parent="5jQKQcuQU8hK-RTX6Nid-110" vertex="1">
          <mxGeometry x="81.43223265439497" y="96.71572844514458" width="21.375811785208576" height="7.028703270724857" as="geometry" />
        </mxCell>
        <mxCell id="5jQKQcuQU8hK-RTX6Nid-50" value="0.450" style="rounded=0;whiteSpace=wrap;html=1;strokeWidth=0.5;fillColor=#e1d5e7;strokeColor=default;container=0;fontSize=5;fontStyle=0;fontFamily=Oxanium;fontSource=https://fonts.googleapis.com/css?family=Oxanium;spacingTop=0;" parent="5jQKQcuQU8hK-RTX6Nid-110" vertex="1">
          <mxGeometry x="81.43223265439497" y="103.74443171586927" width="21.375811785208576" height="6.623051139673034" as="geometry" />
        </mxCell>
        <mxCell id="5jQKQcuQU8hK-RTX6Nid-55" value="0.325" style="rounded=0;whiteSpace=wrap;html=1;strokeWidth=0.5;fillColor=#e1d5e7;strokeColor=default;container=0;fontSize=5;fontStyle=0;fontFamily=Oxanium;fontSource=https://fonts.googleapis.com/css?family=Oxanium;spacingTop=0;" parent="5jQKQcuQU8hK-RTX6Nid-110" vertex="1">
          <mxGeometry x="38.67077660385576" y="110.36748285554268" width="21.375811785208576" height="7.028703270724857" as="geometry" />
        </mxCell>
        <mxCell id="5jQKQcuQU8hK-RTX6Nid-56" value="0.314" style="rounded=0;whiteSpace=wrap;html=1;strokeWidth=0.5;fillColor=#e1d5e7;strokeColor=default;container=0;fontSize=5;fontStyle=0;fontFamily=Oxanium;fontSource=https://fonts.googleapis.com/css?family=Oxanium;spacingTop=0;" parent="5jQKQcuQU8hK-RTX6Nid-110" vertex="1">
          <mxGeometry x="38.66094412373377" y="117.39618612626737" width="21.375811785208576" height="7.028703270724857" as="geometry" />
        </mxCell>
        <mxCell id="5jQKQcuQU8hK-RTX6Nid-57" value="0.304" style="rounded=0;whiteSpace=wrap;html=1;strokeWidth=0.5;fillColor=#e1d5e7;strokeColor=default;container=0;fontSize=5;fontStyle=0;fontFamily=Oxanium;fontSource=https://fonts.googleapis.com/css?family=Oxanium;spacingTop=0;" parent="5jQKQcuQU8hK-RTX6Nid-110" vertex="1">
          <mxGeometry x="38.66094412373377" y="124.42488939699251" width="21.375811785208576" height="7.028703270724857" as="geometry" />
        </mxCell>
        <mxCell id="5jQKQcuQU8hK-RTX6Nid-58" value="0.295" style="rounded=0;whiteSpace=wrap;html=1;strokeWidth=0.5;fillColor=#e1d5e7;strokeColor=default;container=0;fontSize=5;fontStyle=0;fontFamily=Oxanium;fontSource=https://fonts.googleapis.com/css?family=Oxanium;spacingTop=0;" parent="5jQKQcuQU8hK-RTX6Nid-110" vertex="1">
          <mxGeometry x="38.66094412373377" y="131.4535926677172" width="21.375811785208576" height="6.623051139673034" as="geometry" />
        </mxCell>
        <mxCell id="5jQKQcuQU8hK-RTX6Nid-59" value="0.361" style="rounded=0;whiteSpace=wrap;html=1;strokeWidth=0.5;fillColor=#C3B9C8;strokeColor=default;container=0;fontSize=5;fontStyle=0;fontFamily=Oxanium;fontSource=https://fonts.googleapis.com/css?family=Oxanium;spacingTop=0;" parent="5jQKQcuQU8hK-RTX6Nid-110" vertex="1">
          <mxGeometry x="60.04658838906437" y="110.36748285554268" width="21.375811785208576" height="7.028703270724857" as="geometry" />
        </mxCell>
        <mxCell id="5jQKQcuQU8hK-RTX6Nid-60" value="0.349" style="rounded=0;whiteSpace=wrap;html=1;strokeWidth=0.5;fillColor=#C3B9C8;strokeColor=default;container=0;fontSize=5;fontStyle=0;fontFamily=Oxanium;fontSource=https://fonts.googleapis.com/css?family=Oxanium;spacingTop=0;" parent="5jQKQcuQU8hK-RTX6Nid-110" vertex="1">
          <mxGeometry x="60.03675590894238" y="117.39618612626737" width="21.375811785208576" height="7.028703270724857" as="geometry" />
        </mxCell>
        <mxCell id="5jQKQcuQU8hK-RTX6Nid-61" value="0.338" style="rounded=0;whiteSpace=wrap;html=1;strokeWidth=0.5;fillColor=#C3B9C8;strokeColor=default;container=0;fontSize=5;fontStyle=0;fontFamily=Oxanium;fontSource=https://fonts.googleapis.com/css?family=Oxanium;spacingTop=0;" parent="5jQKQcuQU8hK-RTX6Nid-110" vertex="1">
          <mxGeometry x="60.03675590894238" y="124.42488939699251" width="21.375811785208576" height="7.028703270724857" as="geometry" />
        </mxCell>
        <mxCell id="5jQKQcuQU8hK-RTX6Nid-62" value="0.328" style="rounded=0;whiteSpace=wrap;html=1;strokeWidth=0.5;fillColor=#C3B9C8;strokeColor=default;container=0;fontSize=5;fontStyle=0;fontFamily=Oxanium;fontSource=https://fonts.googleapis.com/css?family=Oxanium;spacingTop=0;" parent="5jQKQcuQU8hK-RTX6Nid-110" vertex="1">
          <mxGeometry x="60.03675590894238" y="131.4535926677172" width="21.375811785208576" height="6.623051139673034" as="geometry" />
        </mxCell>
        <mxCell id="5jQKQcuQU8hK-RTX6Nid-63" value="0.433" style="rounded=0;whiteSpace=wrap;html=1;strokeWidth=0.5;fillColor=#e1d5e7;strokeColor=default;container=0;fontSize=5;fontStyle=0;fontFamily=Oxanium;fontSource=https://fonts.googleapis.com/css?family=Oxanium;spacingTop=0;" parent="5jQKQcuQU8hK-RTX6Nid-110" vertex="1">
          <mxGeometry x="81.43223265439497" y="110.36748285554268" width="21.375811785208576" height="7.028703270724857" as="geometry" />
        </mxCell>
        <mxCell id="5jQKQcuQU8hK-RTX6Nid-64" value="0.418" style="rounded=0;whiteSpace=wrap;html=1;strokeWidth=0.5;fillColor=#e1d5e7;strokeColor=default;container=0;fontSize=5;fontStyle=0;fontFamily=Oxanium;fontSource=https://fonts.googleapis.com/css?family=Oxanium;spacingTop=0;" parent="5jQKQcuQU8hK-RTX6Nid-110" vertex="1">
          <mxGeometry x="81.42240017427298" y="117.39618612626737" width="21.375811785208576" height="7.028703270724857" as="geometry" />
        </mxCell>
        <mxCell id="5jQKQcuQU8hK-RTX6Nid-65" value="0.404" style="rounded=0;whiteSpace=wrap;html=1;strokeWidth=0.5;fillColor=#e1d5e7;strokeColor=default;container=0;fontSize=5;fontStyle=0;fontFamily=Oxanium;fontSource=https://fonts.googleapis.com/css?family=Oxanium;spacingTop=0;" parent="5jQKQcuQU8hK-RTX6Nid-110" vertex="1">
          <mxGeometry x="81.42240017427298" y="124.42488939699251" width="21.375811785208576" height="7.028703270724857" as="geometry" />
        </mxCell>
        <mxCell id="5jQKQcuQU8hK-RTX6Nid-66" value="0.392" style="rounded=0;whiteSpace=wrap;html=1;strokeWidth=0.5;fillColor=#e1d5e7;strokeColor=default;container=0;fontSize=5;fontStyle=0;fontFamily=Oxanium;fontSource=https://fonts.googleapis.com/css?family=Oxanium;spacingTop=0;" parent="5jQKQcuQU8hK-RTX6Nid-110" vertex="1">
          <mxGeometry x="81.42240017427298" y="131.4535926677172" width="21.375811785208576" height="6.623051139673034" as="geometry" />
        </mxCell>
        <mxCell id="5jQKQcuQU8hK-RTX6Nid-70" value="0.286" style="rounded=0;whiteSpace=wrap;html=1;strokeWidth=0.5;fillColor=#e1d5e7;strokeColor=default;container=0;fontSize=5;fontStyle=0;fontFamily=Oxanium;fontSource=https://fonts.googleapis.com/css?family=Oxanium;spacingTop=0;" parent="5jQKQcuQU8hK-RTX6Nid-110" vertex="1">
          <mxGeometry x="38.70273216425221" y="138.0766438073906" width="21.375811785208576" height="7.028703270724857" as="geometry" />
        </mxCell>
        <mxCell id="5jQKQcuQU8hK-RTX6Nid-71" value="0.278" style="rounded=0;whiteSpace=wrap;html=1;strokeWidth=0.5;fillColor=#e1d5e7;strokeColor=default;container=0;fontSize=5;fontStyle=0;fontFamily=Oxanium;fontSource=https://fonts.googleapis.com/css?family=Oxanium;spacingTop=0;" parent="5jQKQcuQU8hK-RTX6Nid-110" vertex="1">
          <mxGeometry x="38.70273216425221" y="145.10534707811485" width="21.375811785208576" height="7.028703270724857" as="geometry" />
        </mxCell>
        <mxCell id="5jQKQcuQU8hK-RTX6Nid-72" value="0.272" style="rounded=0;whiteSpace=wrap;html=1;strokeWidth=0.5;fillColor=#e1d5e7;strokeColor=default;container=0;fontSize=5;fontStyle=0;fontFamily=Oxanium;fontSource=https://fonts.googleapis.com/css?family=Oxanium;spacingTop=0;" parent="5jQKQcuQU8hK-RTX6Nid-110" vertex="1">
          <mxGeometry x="38.70273216425221" y="152.13405034884" width="21.375811785208576" height="6.623051139673034" as="geometry" />
        </mxCell>
        <mxCell id="5jQKQcuQU8hK-RTX6Nid-73" value="0.318" style="rounded=0;whiteSpace=wrap;html=1;strokeWidth=0.5;fillColor=#C3B9C8;strokeColor=default;container=0;fontSize=5;fontStyle=0;fontFamily=Oxanium;fontSource=https://fonts.googleapis.com/css?family=Oxanium;spacingTop=0;" parent="5jQKQcuQU8hK-RTX6Nid-110" vertex="1">
          <mxGeometry x="60.07854394946082" y="138.0766438073906" width="21.375811785208576" height="7.028703270724857" as="geometry" />
        </mxCell>
        <mxCell id="5jQKQcuQU8hK-RTX6Nid-74" value="0.309" style="rounded=0;whiteSpace=wrap;html=1;strokeWidth=0.5;fillColor=#C3B9C8;strokeColor=default;container=0;fontSize=5;fontStyle=0;fontFamily=Oxanium;fontSource=https://fonts.googleapis.com/css?family=Oxanium;spacingTop=0;" parent="5jQKQcuQU8hK-RTX6Nid-110" vertex="1">
          <mxGeometry x="60.07854394946082" y="145.10534707811485" width="21.375811785208576" height="7.028703270724857" as="geometry" />
        </mxCell>
        <mxCell id="5jQKQcuQU8hK-RTX6Nid-75" value="0.301" style="rounded=0;whiteSpace=wrap;html=1;strokeWidth=0.5;fillColor=#C3B9C8;strokeColor=default;container=0;fontSize=5;fontStyle=0;fontFamily=Oxanium;fontSource=https://fonts.googleapis.com/css?family=Oxanium;spacingTop=0;" parent="5jQKQcuQU8hK-RTX6Nid-110" vertex="1">
          <mxGeometry x="60.07854394946082" y="152.13405034884" width="21.375811785208576" height="6.623051139673034" as="geometry" />
        </mxCell>
        <mxCell id="5jQKQcuQU8hK-RTX6Nid-76" value="0.381" style="rounded=0;whiteSpace=wrap;html=1;strokeWidth=0.5;fillColor=#e1d5e7;strokeColor=default;container=0;fontSize=5;fontStyle=0;fontFamily=Oxanium;fontSource=https://fonts.googleapis.com/css?family=Oxanium;spacingTop=0;" parent="5jQKQcuQU8hK-RTX6Nid-110" vertex="1">
          <mxGeometry x="81.46418821479142" y="138.0766438073906" width="21.375811785208576" height="7.028703270724857" as="geometry" />
        </mxCell>
        <mxCell id="5jQKQcuQU8hK-RTX6Nid-77" value="0.371" style="rounded=0;whiteSpace=wrap;html=1;strokeWidth=0.5;fillColor=#e1d5e7;strokeColor=default;container=0;fontSize=5;fontStyle=0;fontFamily=Oxanium;fontSource=https://fonts.googleapis.com/css?family=Oxanium;spacingTop=0;" parent="5jQKQcuQU8hK-RTX6Nid-110" vertex="1">
          <mxGeometry x="81.46418821479142" y="145.10534707811485" width="21.375811785208576" height="7.028703270724857" as="geometry" />
        </mxCell>
        <mxCell id="5jQKQcuQU8hK-RTX6Nid-78" value="0.363" style="rounded=0;whiteSpace=wrap;html=1;strokeWidth=0.5;fillColor=#e1d5e7;strokeColor=default;container=0;fontSize=5;fontStyle=0;fontFamily=Oxanium;fontSource=https://fonts.googleapis.com/css?family=Oxanium;spacingTop=0;" parent="5jQKQcuQU8hK-RTX6Nid-110" vertex="1">
          <mxGeometry x="81.46418821479142" y="152.13405034884" width="21.375811785208576" height="6.623051139673034" as="geometry" />
        </mxCell>
        <mxCell id="5jQKQcuQU8hK-RTX6Nid-83" value="0.264" style="rounded=0;whiteSpace=wrap;html=1;strokeWidth=0.5;fillColor=#e1d5e7;strokeColor=default;container=0;fontSize=5;fontStyle=0;fontFamily=Oxanium;fontSource=https://fonts.googleapis.com/css?family=Oxanium;spacingTop=0;" parent="5jQKQcuQU8hK-RTX6Nid-110" vertex="1">
          <mxGeometry x="38.70273216425221" y="158.75710148851294" width="21.375811785208576" height="7.028703270724857" as="geometry" />
        </mxCell>
        <mxCell id="5jQKQcuQU8hK-RTX6Nid-84" value="0.240" style="rounded=0;whiteSpace=wrap;html=1;strokeWidth=0.5;fillColor=#e1d5e7;strokeColor=default;container=0;fontSize=5;fontStyle=0;fontFamily=Oxanium;fontSource=https://fonts.googleapis.com/css?family=Oxanium;spacingTop=0;" parent="5jQKQcuQU8hK-RTX6Nid-110" vertex="1">
          <mxGeometry x="38.692899684130225" y="165.78580475923764" width="21.375811785208576" height="7.028703270724857" as="geometry" />
        </mxCell>
        <mxCell id="5jQKQcuQU8hK-RTX6Nid-85" value="0.220" style="rounded=0;whiteSpace=wrap;html=1;strokeWidth=0.5;fillColor=#e1d5e7;strokeColor=default;container=0;fontSize=5;fontStyle=0;fontFamily=Oxanium;fontSource=https://fonts.googleapis.com/css?family=Oxanium;spacingTop=0;" parent="5jQKQcuQU8hK-RTX6Nid-110" vertex="1">
          <mxGeometry x="38.692899684130225" y="172.81450802996278" width="21.375811785208576" height="7.028703270724857" as="geometry" />
        </mxCell>
        <mxCell id="5jQKQcuQU8hK-RTX6Nid-87" value="0.294" style="rounded=0;whiteSpace=wrap;html=1;strokeWidth=0.5;fillColor=#C3B9C8;strokeColor=default;container=0;fontSize=5;fontStyle=0;fontFamily=Oxanium;fontSource=https://fonts.googleapis.com/css?family=Oxanium;spacingTop=0;" parent="5jQKQcuQU8hK-RTX6Nid-110" vertex="1">
          <mxGeometry x="60.07854394946082" y="158.75710148851294" width="21.375811785208576" height="7.028703270724857" as="geometry" />
        </mxCell>
        <mxCell id="5jQKQcuQU8hK-RTX6Nid-88" value="0.270" style="rounded=0;whiteSpace=wrap;html=1;strokeWidth=0.5;fillColor=#C3B9C8;strokeColor=default;container=0;fontSize=5;fontStyle=0;fontFamily=Oxanium;fontSource=https://fonts.googleapis.com/css?family=Oxanium;spacingTop=0;" parent="5jQKQcuQU8hK-RTX6Nid-110" vertex="1">
          <mxGeometry x="60.06871146933895" y="165.78580475923764" width="21.375811785208576" height="7.028703270724857" as="geometry" />
        </mxCell>
        <mxCell id="5jQKQcuQU8hK-RTX6Nid-89" value="0.240" style="rounded=0;whiteSpace=wrap;html=1;strokeWidth=0.5;fillColor=#C3B9C8;strokeColor=default;container=0;fontSize=5;fontStyle=0;fontFamily=Oxanium;fontSource=https://fonts.googleapis.com/css?family=Oxanium;spacingTop=0;" parent="5jQKQcuQU8hK-RTX6Nid-110" vertex="1">
          <mxGeometry x="60.06871146933895" y="172.81450802996278" width="21.375811785208576" height="7.028703270724857" as="geometry" />
        </mxCell>
        <mxCell id="5jQKQcuQU8hK-RTX6Nid-91" value="0.356" style="rounded=0;whiteSpace=wrap;html=1;strokeWidth=0.5;fillColor=#e1d5e7;strokeColor=default;container=0;fontSize=5;fontStyle=0;fontFamily=Oxanium;fontSource=https://fonts.googleapis.com/css?family=Oxanium;spacingTop=0;" parent="5jQKQcuQU8hK-RTX6Nid-110" vertex="1">
          <mxGeometry x="81.46418821479142" y="158.75710148851294" width="21.375811785208576" height="7.028703270724857" as="geometry" />
        </mxCell>
        <mxCell id="5jQKQcuQU8hK-RTX6Nid-92" value="0.320" style="rounded=0;whiteSpace=wrap;html=1;strokeWidth=0.5;fillColor=#e1d5e7;strokeColor=default;container=0;fontSize=5;fontStyle=0;fontFamily=Oxanium;fontSource=https://fonts.googleapis.com/css?family=Oxanium;spacingTop=0;" parent="5jQKQcuQU8hK-RTX6Nid-110" vertex="1">
          <mxGeometry x="81.45435573466943" y="165.78580475923764" width="21.375811785208576" height="7.028703270724857" as="geometry" />
        </mxCell>
        <mxCell id="5jQKQcuQU8hK-RTX6Nid-93" value="0.290" style="rounded=0;whiteSpace=wrap;html=1;strokeWidth=0.5;fillColor=#e1d5e7;strokeColor=default;container=0;fontSize=5;fontStyle=0;fontFamily=Oxanium;fontSource=https://fonts.googleapis.com/css?family=Oxanium;spacingTop=0;" parent="5jQKQcuQU8hK-RTX6Nid-110" vertex="1">
          <mxGeometry x="81.45435573466943" y="172.81450802996278" width="21.375811785208576" height="7.028703270724857" as="geometry" />
        </mxCell>
        <mxCell id="5jQKQcuQU8hK-RTX6Nid-86" value="0.210" style="rounded=0;whiteSpace=wrap;html=1;strokeWidth=0.5;fillColor=#e1d5e7;strokeColor=default;container=0;fontSize=5;fontStyle=0;fontFamily=Oxanium;fontSource=https://fonts.googleapis.com/css?family=Oxanium;spacingTop=0;" parent="5jQKQcuQU8hK-RTX6Nid-110" vertex="1">
          <mxGeometry x="38.692899684130225" y="179.84321130068747" width="21.375811785208576" height="6.623051139673034" as="geometry" />
        </mxCell>
        <mxCell id="5jQKQcuQU8hK-RTX6Nid-90" value="0.230" style="rounded=0;whiteSpace=wrap;html=1;strokeWidth=0.5;fillColor=#C3B9C8;strokeColor=default;container=0;fontSize=5;fontStyle=0;fontFamily=Oxanium;fontSource=https://fonts.googleapis.com/css?family=Oxanium;spacingTop=0;" parent="5jQKQcuQU8hK-RTX6Nid-110" vertex="1">
          <mxGeometry x="60.06871146933895" y="179.84321130068747" width="21.375811785208576" height="6.623051139673034" as="geometry" />
        </mxCell>
        <mxCell id="5jQKQcuQU8hK-RTX6Nid-94" value="0.270" style="rounded=0;whiteSpace=wrap;html=1;strokeWidth=0.5;fillColor=#e1d5e7;strokeColor=default;container=0;fontSize=5;fontStyle=0;fontFamily=Oxanium;fontSource=https://fonts.googleapis.com/css?family=Oxanium;spacingTop=0;" parent="5jQKQcuQU8hK-RTX6Nid-110" vertex="1">
          <mxGeometry x="81.45435573466943" y="179.84321130068747" width="21.375811785208576" height="6.623051139673034" as="geometry" />
        </mxCell>
        <mxCell id="5jQKQcuQU8hK-RTX6Nid-100" value="`frac{1.22){sqrt{&quot;N&quot;}}`" style="rounded=0;whiteSpace=wrap;html=1;strokeWidth=0.5;fillColor=#e1d5e7;strokeColor=default;container=0;fontSize=5;fontStyle=0;fontFamily=Oxanium;fontSource=https://fonts.googleapis.com/css?family=Oxanium;spacingTop=0;" parent="5jQKQcuQU8hK-RTX6Nid-110" vertex="1">
          <mxGeometry x="38.66000000000008" y="186.4699999999998" width="21.38" height="18.53" as="geometry" />
        </mxCell>
        <mxCell id="5jQKQcuQU8hK-RTX6Nid-101" value="`frac{1.36){sqrt{&quot;N&quot;}}`" style="rounded=0;whiteSpace=wrap;html=1;strokeWidth=0.5;fillColor=#C3B9C8;strokeColor=default;container=0;fontSize=5;fontStyle=0;fontFamily=Oxanium;fontSource=https://fonts.googleapis.com/css?family=Oxanium;spacingTop=0;" parent="5jQKQcuQU8hK-RTX6Nid-110" vertex="1">
          <mxGeometry x="60.039999999999964" y="186.4699999999998" width="21.38" height="18.53" as="geometry" />
        </mxCell>
        <mxCell id="5jQKQcuQU8hK-RTX6Nid-102" value="`frac{1.63){sqrt{&quot;N&quot;}}`" style="rounded=0;whiteSpace=wrap;html=1;strokeWidth=0.5;fillColor=#e1d5e7;strokeColor=default;container=0;fontSize=5;fontStyle=0;fontFamily=Oxanium;fontSource=https://fonts.googleapis.com/css?family=Oxanium;spacingTop=0;verticalAlign=middle;spacing=0;spacingBottom=1;" parent="5jQKQcuQU8hK-RTX6Nid-110" vertex="1">
          <mxGeometry x="81.42000000000007" y="186.4699999999998" width="21.38" height="18.53" as="geometry" />
        </mxCell>
        <mxCell id="5jQKQcuQU8hK-RTX6Nid-95" value="&lt;span&gt;Degrees of Freedom (N)&lt;/span&gt;" style="rounded=0;whiteSpace=wrap;html=1;strokeWidth=0.5;fillColor=#76608a;strokeColor=default;fontColor=#ffffff;container=0;fontSize=5;fontFamily=Mali;fontSource=https://fonts.googleapis.com/css?family=Mali;fontStyle=0;spacingTop=0;" parent="5jQKQcuQU8hK-RTX6Nid-110" vertex="1">
          <mxGeometry x="0.02629173714419723" y="11.0300000000002" width="38.657397554346446" height="16.21318612585296" as="geometry" />
        </mxCell>
        <mxCell id="5jQKQcuQU8hK-RTX6Nid-3" value="1" style="rounded=0;whiteSpace=wrap;html=1;strokeWidth=0.5;fillColor=#e1d5e7;strokeColor=default;container=0;fontSize=5;fontStyle=0;fontFamily=Oxanium;fontSource=https://fonts.googleapis.com/css?family=Oxanium;spacingTop=0;" parent="5jQKQcuQU8hK-RTX6Nid-110" vertex="1">
          <mxGeometry x="0.025594480809375514" y="27.240539075056866" width="38.65682615210845" height="7.028681955476119" as="geometry" />
        </mxCell>
        <mxCell id="5jQKQcuQU8hK-RTX6Nid-4" value="2" style="rounded=0;whiteSpace=wrap;html=1;strokeWidth=0.5;fillColor=#e1d5e7;strokeColor=default;container=0;fontSize=5;fontStyle=0;fontFamily=Oxanium;fontSource=https://fonts.googleapis.com/css?family=Oxanium;spacingTop=0;" parent="5jQKQcuQU8hK-RTX6Nid-110" vertex="1">
          <mxGeometry x="0.007813052036537652" y="34.26922103053282" width="38.65682615210845" height="7.028681955476119" as="geometry" />
        </mxCell>
        <mxCell id="5jQKQcuQU8hK-RTX6Nid-5" value="3" style="rounded=0;whiteSpace=wrap;html=1;strokeWidth=0.5;fillColor=#e1d5e7;strokeColor=default;container=0;fontSize=5;fontStyle=0;fontFamily=Oxanium;fontSource=https://fonts.googleapis.com/css?family=Oxanium;spacingTop=0;" parent="5jQKQcuQU8hK-RTX6Nid-110" vertex="1">
          <mxGeometry x="0.007813052036537652" y="41.29790298600923" width="38.65682615210845" height="7.028681955476119" as="geometry" />
        </mxCell>
        <mxCell id="5jQKQcuQU8hK-RTX6Nid-6" value="4" style="rounded=0;whiteSpace=wrap;html=1;strokeWidth=0.5;fillColor=#e1d5e7;strokeColor=default;container=0;fontSize=5;fontStyle=0;fontFamily=Oxanium;fontSource=https://fonts.googleapis.com/css?family=Oxanium;spacingTop=0;" parent="5jQKQcuQU8hK-RTX6Nid-110" vertex="1">
          <mxGeometry x="0.007813052036537652" y="48.326584941484725" width="38.65682615210845" height="6.623031054605134" as="geometry" />
        </mxCell>
        <mxCell id="5jQKQcuQU8hK-RTX6Nid-19" value="5" style="rounded=0;whiteSpace=wrap;html=1;strokeWidth=0.5;fillColor=#C3B9C8;strokeColor=default;container=0;fontSize=5;fontStyle=0;fontFamily=Oxanium;fontSource=https://fonts.googleapis.com/css?family=Oxanium;spacingTop=0;" parent="5jQKQcuQU8hK-RTX6Nid-110" vertex="1">
          <mxGeometry x="0.01778142877283786" y="54.94961599609023" width="38.65682615210845" height="7.028681955476119" as="geometry" />
        </mxCell>
        <mxCell id="5jQKQcuQU8hK-RTX6Nid-20" value="6" style="rounded=0;whiteSpace=wrap;html=1;strokeWidth=0.5;fillColor=#e1d5e7;strokeColor=default;container=0;fontSize=5;fontStyle=0;fontFamily=Oxanium;fontSource=https://fonts.googleapis.com/css?family=Oxanium;spacingTop=0;" parent="5jQKQcuQU8hK-RTX6Nid-110" vertex="1">
          <mxGeometry y="61.978297951566184" width="38.65682615210845" height="7.028681955476119" as="geometry" />
        </mxCell>
        <mxCell id="5jQKQcuQU8hK-RTX6Nid-21" value="7" style="rounded=0;whiteSpace=wrap;html=1;strokeWidth=0.5;fillColor=#e1d5e7;strokeColor=default;container=0;fontSize=5;fontStyle=0;fontFamily=Oxanium;fontSource=https://fonts.googleapis.com/css?family=Oxanium;spacingTop=0;" parent="5jQKQcuQU8hK-RTX6Nid-110" vertex="1">
          <mxGeometry y="69.00697990704259" width="38.65682615210845" height="7.028681955476119" as="geometry" />
        </mxCell>
        <mxCell id="5jQKQcuQU8hK-RTX6Nid-22" value="8" style="rounded=0;whiteSpace=wrap;html=1;strokeWidth=0.5;fillColor=#e1d5e7;strokeColor=default;container=0;fontSize=5;fontStyle=0;fontFamily=Oxanium;fontSource=https://fonts.googleapis.com/css?family=Oxanium;spacingTop=0;" parent="5jQKQcuQU8hK-RTX6Nid-110" vertex="1">
          <mxGeometry y="76.03566186251855" width="38.65682615210845" height="6.623031054605134" as="geometry" />
        </mxCell>
        <mxCell id="5jQKQcuQU8hK-RTX6Nid-35" value="9" style="rounded=0;whiteSpace=wrap;html=1;strokeWidth=0.5;fillColor=#e1d5e7;strokeColor=default;container=0;fontSize=5;fontStyle=0;fontFamily=Oxanium;fontSource=https://fonts.googleapis.com/css?family=Oxanium;spacingTop=0;" parent="5jQKQcuQU8hK-RTX6Nid-110" vertex="1">
          <mxGeometry x="0.025594480809375514" y="82.65869291712406" width="38.65682615210845" height="7.028681955476119" as="geometry" />
        </mxCell>
        <mxCell id="5jQKQcuQU8hK-RTX6Nid-36" value="10" style="rounded=0;whiteSpace=wrap;html=1;strokeWidth=0.5;fillColor=#e1d5e7;strokeColor=default;container=0;fontSize=5;fontStyle=0;fontFamily=Oxanium;fontSource=https://fonts.googleapis.com/css?family=Oxanium;spacingTop=0;" parent="5jQKQcuQU8hK-RTX6Nid-110" vertex="1">
          <mxGeometry x="0.007813052036537652" y="89.6873748726" width="38.65682615210845" height="7.028681955476119" as="geometry" />
        </mxCell>
        <mxCell id="5jQKQcuQU8hK-RTX6Nid-37" value="11" style="rounded=0;whiteSpace=wrap;html=1;strokeWidth=0.5;fillColor=#e1d5e7;strokeColor=default;container=0;fontSize=5;fontStyle=0;fontFamily=Oxanium;fontSource=https://fonts.googleapis.com/css?family=Oxanium;spacingTop=0;" parent="5jQKQcuQU8hK-RTX6Nid-110" vertex="1">
          <mxGeometry x="0.007813052036537652" y="96.71605682807596" width="38.65682615210845" height="7.028681955476119" as="geometry" />
        </mxCell>
        <mxCell id="5jQKQcuQU8hK-RTX6Nid-38" value="12" style="rounded=0;whiteSpace=wrap;html=1;strokeWidth=0.5;fillColor=#e1d5e7;strokeColor=default;container=0;fontSize=5;fontStyle=0;fontFamily=Oxanium;fontSource=https://fonts.googleapis.com/css?family=Oxanium;spacingTop=0;" parent="5jQKQcuQU8hK-RTX6Nid-110" vertex="1">
          <mxGeometry x="0.007813052036537652" y="103.74473878355191" width="38.65682615210845" height="6.623031054605134" as="geometry" />
        </mxCell>
        <mxCell id="5jQKQcuQU8hK-RTX6Nid-51" value="13" style="rounded=0;whiteSpace=wrap;html=1;strokeWidth=0.5;fillColor=#e1d5e7;strokeColor=default;container=0;fontSize=5;fontStyle=0;fontFamily=Oxanium;fontSource=https://fonts.googleapis.com/css?family=Oxanium;spacingTop=0;" parent="5jQKQcuQU8hK-RTX6Nid-110" vertex="1">
          <mxGeometry x="0.01778142877283786" y="110.36776983815743" width="38.65682615210845" height="7.028681955476119" as="geometry" />
        </mxCell>
        <mxCell id="5jQKQcuQU8hK-RTX6Nid-52" value="14" style="rounded=0;whiteSpace=wrap;html=1;strokeWidth=0.5;fillColor=#e1d5e7;strokeColor=default;container=0;fontSize=5;fontStyle=0;fontFamily=Oxanium;fontSource=https://fonts.googleapis.com/css?family=Oxanium;spacingTop=0;" parent="5jQKQcuQU8hK-RTX6Nid-110" vertex="1">
          <mxGeometry y="117.39645179363337" width="38.65682615210845" height="7.028681955476119" as="geometry" />
        </mxCell>
        <mxCell id="5jQKQcuQU8hK-RTX6Nid-53" value="15" style="rounded=0;whiteSpace=wrap;html=1;strokeWidth=0.5;fillColor=#e1d5e7;strokeColor=default;container=0;fontSize=5;fontStyle=0;fontFamily=Oxanium;fontSource=https://fonts.googleapis.com/css?family=Oxanium;spacingTop=0;" parent="5jQKQcuQU8hK-RTX6Nid-110" vertex="1">
          <mxGeometry y="124.42513374910979" width="38.65682615210845" height="7.028681955476119" as="geometry" />
        </mxCell>
        <mxCell id="5jQKQcuQU8hK-RTX6Nid-54" value="16" style="rounded=0;whiteSpace=wrap;html=1;strokeWidth=0.5;fillColor=#e1d5e7;strokeColor=default;container=0;fontSize=5;fontStyle=0;fontFamily=Oxanium;fontSource=https://fonts.googleapis.com/css?family=Oxanium;spacingTop=0;" parent="5jQKQcuQU8hK-RTX6Nid-110" vertex="1">
          <mxGeometry y="131.45381570458574" width="38.65682615210845" height="6.623031054605134" as="geometry" />
        </mxCell>
        <mxCell id="5jQKQcuQU8hK-RTX6Nid-67" value="17" style="rounded=0;whiteSpace=wrap;html=1;strokeWidth=0.5;fillColor=#e1d5e7;strokeColor=default;container=0;fontSize=5;fontStyle=0;fontFamily=Oxanium;fontSource=https://fonts.googleapis.com/css?family=Oxanium;spacingTop=0;" parent="5jQKQcuQU8hK-RTX6Nid-110" vertex="1">
          <mxGeometry x="0.033205471155285014" y="138.07684675919126" width="38.65682615210845" height="7.028681955476119" as="geometry" />
        </mxCell>
        <mxCell id="5jQKQcuQU8hK-RTX6Nid-68" value="18" style="rounded=0;whiteSpace=wrap;html=1;strokeWidth=0.5;fillColor=#e1d5e7;strokeColor=default;container=0;fontSize=5;fontStyle=0;fontFamily=Oxanium;fontSource=https://fonts.googleapis.com/css?family=Oxanium;spacingTop=0;" parent="5jQKQcuQU8hK-RTX6Nid-110" vertex="1">
          <mxGeometry x="0.033205471155285014" y="145.10552871466675" width="38.65682615210845" height="7.028681955476119" as="geometry" />
        </mxCell>
        <mxCell id="5jQKQcuQU8hK-RTX6Nid-69" value="19" style="rounded=0;whiteSpace=wrap;html=1;strokeWidth=0.5;fillColor=#e1d5e7;strokeColor=default;container=0;fontSize=5;fontStyle=0;fontFamily=Oxanium;fontSource=https://fonts.googleapis.com/css?family=Oxanium;spacingTop=0;" parent="5jQKQcuQU8hK-RTX6Nid-110" vertex="1">
          <mxGeometry x="0.033205471155285014" y="152.13421067014315" width="38.65682615210845" height="6.623031054605134" as="geometry" />
        </mxCell>
        <mxCell id="5jQKQcuQU8hK-RTX6Nid-79" value="20" style="rounded=0;whiteSpace=wrap;html=1;strokeWidth=0.5;fillColor=#e1d5e7;strokeColor=default;container=0;fontSize=5;fontStyle=0;fontFamily=Oxanium;fontSource=https://fonts.googleapis.com/css?family=Oxanium;spacingTop=0;" parent="5jQKQcuQU8hK-RTX6Nid-110" vertex="1">
          <mxGeometry x="0.04317384789158523" y="158.7572417247482" width="38.65682615210845" height="7.028681955476119" as="geometry" />
        </mxCell>
        <mxCell id="5jQKQcuQU8hK-RTX6Nid-80" value="25" style="rounded=0;whiteSpace=wrap;html=1;strokeWidth=0.5;fillColor=#e1d5e7;strokeColor=default;container=0;fontSize=5;fontStyle=0;fontFamily=Oxanium;fontSource=https://fonts.googleapis.com/css?family=Oxanium;spacingTop=0;" parent="5jQKQcuQU8hK-RTX6Nid-110" vertex="1">
          <mxGeometry x="0.02539241911874737" y="165.78592368022416" width="38.65682615210845" height="7.028681955476119" as="geometry" />
        </mxCell>
        <mxCell id="5jQKQcuQU8hK-RTX6Nid-81" value="30" style="rounded=0;whiteSpace=wrap;html=1;strokeWidth=0.5;fillColor=#e1d5e7;strokeColor=default;container=0;fontSize=5;fontStyle=0;fontFamily=Oxanium;fontSource=https://fonts.googleapis.com/css?family=Oxanium;spacingTop=0;" parent="5jQKQcuQU8hK-RTX6Nid-110" vertex="1">
          <mxGeometry x="0.02539241911874737" y="172.81460563570056" width="38.65682615210845" height="7.028681955476119" as="geometry" />
        </mxCell>
        <mxCell id="5jQKQcuQU8hK-RTX6Nid-82" value="35" style="rounded=0;whiteSpace=wrap;html=1;strokeWidth=0.5;fillColor=#e1d5e7;strokeColor=default;container=0;fontSize=5;fontStyle=0;fontFamily=Oxanium;fontSource=https://fonts.googleapis.com/css?family=Oxanium;spacingTop=0;" parent="5jQKQcuQU8hK-RTX6Nid-110" vertex="1">
          <mxGeometry x="0.02539241911874737" y="179.8432875911765" width="38.65682615210845" height="6.623031054605134" as="geometry" />
        </mxCell>
        <mxCell id="5jQKQcuQU8hK-RTX6Nid-99" value="Over&lt;div&gt;35&lt;/div&gt;" style="rounded=0;whiteSpace=wrap;html=1;strokeWidth=0.5;fillColor=#e1d5e7;strokeColor=default;container=0;fontSize=5;fontStyle=0;fontFamily=Oxanium;fontSource=https://fonts.googleapis.com/css?family=Oxanium;spacingTop=0;" parent="5jQKQcuQU8hK-RTX6Nid-110" vertex="1">
          <mxGeometry y="186.47005619408642" width="38.65809814632825" height="18.529943805913568" as="geometry" />
        </mxCell>
      </root>
    </mxGraphModel>
  </diagram>
  <diagram id="q4xhOBBaB0EgW-x6xwnA" name="Chi-Test">
    <mxGraphModel dx="1426" dy="-1479" grid="1" gridSize="10" guides="1" tooltips="1" connect="1" arrows="1" fold="1" page="1" pageScale="1" pageWidth="827" pageHeight="1169" math="1" shadow="0">
      <root>
        <mxCell id="0" />
        <mxCell id="1" parent="0" />
        <mxCell id="43nDSbNnqOTWgxMdbby4-1" value="&lt;font face=&quot;Mali&quot;&gt;Because `n` not given i will assume it with `n = 10`&lt;/font&gt;" style="rounded=1;whiteSpace=wrap;html=1;hachureGap=4;fontFamily=Mina;strokeWidth=2;fillColor=#e1d5e7;strokeColor=#000000;fontSize=16;fontStyle=1;labelBorderColor=none;textShadow=0;labelBackgroundColor=none;align=left;spacing=7;verticalAlign=middle;" parent="1" vertex="1">
          <mxGeometry x="61.519999999999996" y="2491.5" width="400" height="40" as="geometry" />
        </mxCell>
        <mxCell id="43nDSbNnqOTWgxMdbby4-2" value="&lt;font data-font-src=&quot;https://fonts.googleapis.com/css?family=Mali&quot; face=&quot;Mali&quot;&gt;&lt;font style=&quot;color: rgb(255, 255, 204);&quot;&gt;Chi-Square Test&lt;/font&gt;&lt;/font&gt;" style="rounded=1;whiteSpace=wrap;html=1;hachureGap=4;fontFamily=Mina;strokeWidth=2;fillColor=#76608a;strokeColor=#000000;fontSize=22;fontStyle=1;labelBorderColor=none;textShadow=0;labelBackgroundColor=none;align=left;spacing=5;verticalAlign=middle;spacingTop=0;spacingRight=2;fontColor=#ffffff;container=0;spacingLeft=5;" parent="1" vertex="1">
          <mxGeometry x="40" y="2360" width="201" height="40" as="geometry" />
        </mxCell>
        <mxCell id="43nDSbNnqOTWgxMdbby4-3" value="&lt;div&gt;1&lt;/div&gt;" style="rounded=1;whiteSpace=wrap;html=1;hachureGap=4;fontFamily=Mina;strokeWidth=2;fillColor=#e1d5e7;strokeColor=#000000;fontSize=25;fontStyle=1;labelBorderColor=none;textShadow=0;labelBackgroundColor=none;align=center;spacing=7;verticalAlign=middle;" parent="1" vertex="1">
          <mxGeometry x="21.52" y="2491.5" width="40" height="40" as="geometry" />
        </mxCell>
        <mxCell id="43nDSbNnqOTWgxMdbby4-4" value="&lt;div style=&quot;line-height: 140%;&quot;&gt;Given a matrix with size `10\cdot 10` that&#39;s mean `N = 100`&amp;nbsp;and `\alpha`&lt;br&gt;&lt;/div&gt;" style="rounded=1;whiteSpace=wrap;html=1;hachureGap=4;fontFamily=Mali;strokeWidth=2;fontSize=16;fontStyle=1;labelBorderColor=none;textShadow=0;labelBackgroundColor=none;align=left;spacing=7;verticalAlign=middle;fillColor=#bac8d3;strokeColor=#23445d;fontSource=https%3A%2F%2Ffonts.googleapis.com%2Fcss%3Ffamily%3DMali;fontColor=default;" parent="1" vertex="1">
          <mxGeometry x="40" y="2420" width="480" height="43" as="geometry" />
        </mxCell>
        <mxCell id="43nDSbNnqOTWgxMdbby4-5" value="Draw Table&amp;nbsp;" style="rounded=1;whiteSpace=wrap;html=1;hachureGap=4;fontFamily=Mali;strokeWidth=2;fillColor=#e1d5e7;strokeColor=#000000;fontSize=16;fontStyle=1;labelBorderColor=none;textShadow=0;labelBackgroundColor=none;align=left;spacing=7;verticalAlign=middle;fontSource=https%3A%2F%2Ffonts.googleapis.com%2Fcss%3Ffamily%3DMali;" parent="1" vertex="1">
          <mxGeometry x="61.519999999999996" y="2627.61" width="110" height="40" as="geometry" />
        </mxCell>
        <mxCell id="43nDSbNnqOTWgxMdbby4-11" value="&lt;div&gt;2&lt;/div&gt;" style="rounded=1;whiteSpace=wrap;html=1;hachureGap=4;fontFamily=Mina;strokeWidth=2;fillColor=#e1d5e7;strokeColor=#000000;fontSize=25;fontStyle=1;labelBorderColor=none;textShadow=0;labelBackgroundColor=none;align=center;spacing=7;verticalAlign=middle;" parent="1" vertex="1">
          <mxGeometry x="21.52" y="2627.61" width="40" height="40" as="geometry" />
        </mxCell>
        <mxCell id="43nDSbNnqOTWgxMdbby4-12" value="ميزة الـ Chi-Square بقي ان لو عندي عدد قيم اكبر من `5` او `10` حتي هيبقي مش سهل عليا احل بطريقة الـ KST عشان كده هنعرف الـ Chi-Square اللي بيبقي فعال معايا لما تكون الـ `N` اكبر من `25`" style="text;whiteSpace=wrap;fontFamily=Beiruti;fontSource=https%3A%2F%2Ffonts.googleapis.com%2Fcss%3Ffamily%3DBeiruti;align=right;fontStyle=0;textDirection=rtl;fontSize=15;labelBackgroundColor=none;labelBorderColor=none;textShadow=0;" parent="1" vertex="1">
          <mxGeometry x="460" y="2370" width="348.5" height="67" as="geometry" />
        </mxCell>
        <mxCell id="43nDSbNnqOTWgxMdbby4-13" value="هنا بنعد كام مرة ظهر رقم في رينج الـ interval." style="text;whiteSpace=wrap;fontFamily=Beiruti;fontSource=https%3A%2F%2Ffonts.googleapis.com%2Fcss%3Ffamily%3DBeiruti;align=center;fontStyle=1;textDirection=rtl;fontSize=13;" parent="1" vertex="1">
          <mxGeometry x="266" y="2677.39" width="110" height="45.22" as="geometry" />
        </mxCell>
        <mxCell id="z8cir35tBxigorARFN-r-1" value="ممكن يديك array كبيرة مثلا او matrix المهم ان حجمهم اللي هو الـ `N` و كمان قيمة الـ `\alpha` و ممكن يديك قيمة `n` ودي عدد الـ intervals اللي عندي او هقسم ال data بتاعتي كام جزء ,,, طب لو مش given وقتها لازم اتصرف فــهفرض قيمة من عندي بحيث اعرف أقسم الـ `N` لعدد intervals تكون متساوية." style="text;whiteSpace=wrap;fontFamily=Beiruti;fontSource=https%3A%2F%2Ffonts.googleapis.com%2Fcss%3Ffamily%3DBeiruti;align=right;fontStyle=0;textDirection=rtl;fontSize=15;labelBackgroundColor=none;labelBorderColor=none;textShadow=0;" parent="1" vertex="1">
          <mxGeometry x="340" y="2570" width="478.5" height="70" as="geometry" />
        </mxCell>
        <mxCell id="D0P-cQOBXl9gxgHHSvNB-1" value="`\chi_{\circ}^2 = \sum_{i=1}^k {(O_i - E_i)^2}/E_i`" style="rounded=1;whiteSpace=wrap;html=1;hachureGap=4;fontFamily=Mina;strokeWidth=2;fillColor=#b1ddf0;strokeColor=default;fontSize=13;fontStyle=1;labelBorderColor=none;textShadow=0;labelBackgroundColor=none;align=left;spacing=7;verticalAlign=middle;fontColor=default;" parent="1" vertex="1">
          <mxGeometry x="79.95999999999998" y="2550" width="152" height="54.55" as="geometry" />
        </mxCell>
        <mxCell id="D0P-cQOBXl9gxgHHSvNB-2" value="`E = N / n`" style="rounded=1;whiteSpace=wrap;html=1;hachureGap=4;fontFamily=Mina;strokeWidth=2;fillColor=#b1ddf0;strokeColor=default;fontSize=13;fontStyle=1;labelBorderColor=none;textShadow=0;labelBackgroundColor=none;align=left;spacing=7;verticalAlign=middle;fontColor=default;" parent="1" vertex="1">
          <mxGeometry x="250" y="2550" width="70" height="54.55" as="geometry" />
        </mxCell>
        <mxCell id="D0P-cQOBXl9gxgHHSvNB-46" value="5" style="rounded=0;whiteSpace=wrap;html=1;strokeWidth=2;fillColor=#cdeb8b;strokeColor=#000000;container=0;fontSize=16;fontStyle=0;fontFamily=Oxanium;fontSource=https%3A%2F%2Ffonts.googleapis.com%2Fcss%3Ffamily%3DOxanium;" parent="1" vertex="1">
          <mxGeometry x="109.03999999999999" y="2923.12" width="86.96" height="36.04" as="geometry" />
        </mxCell>
        <mxCell id="D0P-cQOBXl9gxgHHSvNB-47" value="&lt;span style=&quot;font-size: 16px;&quot;&gt;6&lt;/span&gt;" style="rounded=0;whiteSpace=wrap;html=1;strokeWidth=2;fillColor=#cdeb8b;strokeColor=#000000;container=0;fontSize=16;fontStyle=0;fontFamily=Oxanium;fontSource=https%3A%2F%2Ffonts.googleapis.com%2Fcss%3Ffamily%3DOxanium;" parent="1" vertex="1">
          <mxGeometry x="109" y="2959.16" width="86.96" height="36.04" as="geometry" />
        </mxCell>
        <mxCell id="D0P-cQOBXl9gxgHHSvNB-48" value="&lt;span style=&quot;font-size: 16px;&quot;&gt;7&lt;/span&gt;" style="rounded=0;whiteSpace=wrap;html=1;strokeWidth=2;fillColor=#cdeb8b;strokeColor=#000000;container=0;fontSize=16;fontStyle=0;fontFamily=Oxanium;fontSource=https%3A%2F%2Ffonts.googleapis.com%2Fcss%3Ffamily%3DOxanium;" parent="1" vertex="1">
          <mxGeometry x="109" y="2995.2" width="86.96" height="36.04" as="geometry" />
        </mxCell>
        <mxCell id="D0P-cQOBXl9gxgHHSvNB-49" value="&lt;span style=&quot;font-size: 16px;&quot;&gt;8&lt;/span&gt;" style="rounded=0;whiteSpace=wrap;html=1;strokeWidth=2;fillColor=#cdeb8b;strokeColor=#000000;container=0;fontSize=16;fontStyle=0;fontFamily=Oxanium;fontSource=https%3A%2F%2Ffonts.googleapis.com%2Fcss%3Ffamily%3DOxanium;" parent="1" vertex="1">
          <mxGeometry x="109" y="3031.24" width="86.96" height="33.96" as="geometry" />
        </mxCell>
        <mxCell id="D0P-cQOBXl9gxgHHSvNB-54" value="14" style="rounded=0;whiteSpace=wrap;html=1;strokeWidth=2;fillColor=#cce5ff;strokeColor=#000000;container=0;fontSize=16;fontStyle=0;fontFamily=Oxanium;fontSource=https%3A%2F%2Ffonts.googleapis.com%2Fcss%3Ffamily%3DOxanium;" parent="1" vertex="1">
          <mxGeometry x="283.96000000000004" y="2923.12" width="86.96" height="36.04" as="geometry" />
        </mxCell>
        <mxCell id="D0P-cQOBXl9gxgHHSvNB-55" value="7" style="rounded=0;whiteSpace=wrap;html=1;strokeWidth=2;fillColor=#cce5ff;strokeColor=#000000;container=0;fontSize=16;fontStyle=0;fontFamily=Oxanium;fontSource=https%3A%2F%2Ffonts.googleapis.com%2Fcss%3Ffamily%3DOxanium;" parent="1" vertex="1">
          <mxGeometry x="283.9200000000001" y="2959.16" width="86.96" height="36.04" as="geometry" />
        </mxCell>
        <mxCell id="D0P-cQOBXl9gxgHHSvNB-56" value="11" style="rounded=0;whiteSpace=wrap;html=1;strokeWidth=2;fillColor=#cce5ff;strokeColor=#000000;container=0;fontSize=16;fontStyle=0;fontFamily=Oxanium;fontSource=https%3A%2F%2Ffonts.googleapis.com%2Fcss%3Ffamily%3DOxanium;" parent="1" vertex="1">
          <mxGeometry x="283.9200000000001" y="2995.2" width="86.96" height="36.04" as="geometry" />
        </mxCell>
        <mxCell id="D0P-cQOBXl9gxgHHSvNB-57" value="15" style="rounded=0;whiteSpace=wrap;html=1;strokeWidth=2;fillColor=#cce5ff;strokeColor=#000000;container=0;fontSize=16;fontStyle=0;fontFamily=Oxanium;fontSource=https%3A%2F%2Ffonts.googleapis.com%2Fcss%3Ffamily%3DOxanium;" parent="1" vertex="1">
          <mxGeometry x="283.9200000000001" y="3031.24" width="86.96" height="33.96" as="geometry" />
        </mxCell>
        <mxCell id="D0P-cQOBXl9gxgHHSvNB-58" value="10" style="rounded=0;whiteSpace=wrap;html=1;strokeWidth=2;fillColor=#ffcccc;strokeColor=#000000;container=0;fontSize=16;fontStyle=0;fontFamily=Oxanium;fontSource=https%3A%2F%2Ffonts.googleapis.com%2Fcss%3Ffamily%3DOxanium;" parent="1" vertex="1">
          <mxGeometry x="370.9600000000001" y="2923.12" width="86.96" height="36.04" as="geometry" />
        </mxCell>
        <mxCell id="D0P-cQOBXl9gxgHHSvNB-59" value="10" style="rounded=0;whiteSpace=wrap;html=1;strokeWidth=2;fillColor=#ffcccc;strokeColor=#000000;container=0;fontSize=16;fontStyle=0;fontFamily=Oxanium;fontSource=https%3A%2F%2Ffonts.googleapis.com%2Fcss%3Ffamily%3DOxanium;" parent="1" vertex="1">
          <mxGeometry x="370.9200000000001" y="2959.16" width="86.96" height="36.04" as="geometry" />
        </mxCell>
        <mxCell id="D0P-cQOBXl9gxgHHSvNB-60" value="10" style="rounded=0;whiteSpace=wrap;html=1;strokeWidth=2;fillColor=#ffcccc;strokeColor=#000000;container=0;fontSize=16;fontStyle=0;fontFamily=Oxanium;fontSource=https%3A%2F%2Ffonts.googleapis.com%2Fcss%3Ffamily%3DOxanium;" parent="1" vertex="1">
          <mxGeometry x="370.9200000000001" y="2995.2" width="86.96" height="36.04" as="geometry" />
        </mxCell>
        <mxCell id="D0P-cQOBXl9gxgHHSvNB-61" value="10" style="rounded=0;whiteSpace=wrap;html=1;strokeWidth=2;fillColor=#ffcccc;strokeColor=#000000;container=0;fontSize=16;fontStyle=0;fontFamily=Oxanium;fontSource=https%3A%2F%2Ffonts.googleapis.com%2Fcss%3Ffamily%3DOxanium;" parent="1" vertex="1">
          <mxGeometry x="370.9200000000001" y="3031.24" width="86.96" height="33.96" as="geometry" />
        </mxCell>
        <mxCell id="D0P-cQOBXl9gxgHHSvNB-62" value="4" style="rounded=0;whiteSpace=wrap;html=1;strokeWidth=2;fillColor=#ffcccc;strokeColor=#000000;container=0;fontSize=16;fontStyle=0;fontFamily=Oxanium;fontSource=https%3A%2F%2Ffonts.googleapis.com%2Fcss%3Ffamily%3DOxanium;" parent="1" vertex="1">
          <mxGeometry x="458.0400000000001" y="2923.12" width="86.96" height="36.04" as="geometry" />
        </mxCell>
        <mxCell id="D0P-cQOBXl9gxgHHSvNB-63" value="-3" style="rounded=0;whiteSpace=wrap;html=1;strokeWidth=2;fillColor=#ffcccc;strokeColor=#000000;container=0;fontSize=16;fontStyle=0;fontFamily=Oxanium;fontSource=https%3A%2F%2Ffonts.googleapis.com%2Fcss%3Ffamily%3DOxanium;" parent="1" vertex="1">
          <mxGeometry x="458.00000000000006" y="2959.16" width="86.96" height="36.04" as="geometry" />
        </mxCell>
        <mxCell id="D0P-cQOBXl9gxgHHSvNB-64" value="-1" style="rounded=0;whiteSpace=wrap;html=1;strokeWidth=2;fillColor=#ffcccc;strokeColor=#000000;container=0;fontSize=16;fontStyle=0;fontFamily=Oxanium;fontSource=https%3A%2F%2Ffonts.googleapis.com%2Fcss%3Ffamily%3DOxanium;" parent="1" vertex="1">
          <mxGeometry x="458.00000000000006" y="2995.2" width="86.96" height="36.04" as="geometry" />
        </mxCell>
        <mxCell id="D0P-cQOBXl9gxgHHSvNB-65" value="5" style="rounded=0;whiteSpace=wrap;html=1;strokeWidth=2;fillColor=#ffcccc;strokeColor=#000000;container=0;fontSize=16;fontStyle=0;fontFamily=Oxanium;fontSource=https%3A%2F%2Ffonts.googleapis.com%2Fcss%3Ffamily%3DOxanium;" parent="1" vertex="1">
          <mxGeometry x="458.00000000000006" y="3031.24" width="86.96" height="33.96" as="geometry" />
        </mxCell>
        <mxCell id="D0P-cQOBXl9gxgHHSvNB-66" value="16" style="rounded=0;whiteSpace=wrap;html=1;strokeWidth=2;fillColor=#ffcccc;strokeColor=#000000;container=0;fontSize=16;fontStyle=0;fontFamily=Oxanium;fontSource=https%3A%2F%2Ffonts.googleapis.com%2Fcss%3Ffamily%3DOxanium;" parent="1" vertex="1">
          <mxGeometry x="545.0400000000002" y="2923.12" width="86.96" height="36.04" as="geometry" />
        </mxCell>
        <mxCell id="D0P-cQOBXl9gxgHHSvNB-67" value="9" style="rounded=0;whiteSpace=wrap;html=1;strokeWidth=2;fillColor=#ffcccc;strokeColor=#000000;container=0;fontSize=16;fontStyle=0;fontFamily=Oxanium;fontSource=https%3A%2F%2Ffonts.googleapis.com%2Fcss%3Ffamily%3DOxanium;" parent="1" vertex="1">
          <mxGeometry x="545.0000000000001" y="2959.16" width="86.96" height="36.04" as="geometry" />
        </mxCell>
        <mxCell id="D0P-cQOBXl9gxgHHSvNB-68" value="1" style="rounded=0;whiteSpace=wrap;html=1;strokeWidth=2;fillColor=#ffcccc;strokeColor=#000000;container=0;fontSize=16;fontStyle=0;fontFamily=Oxanium;fontSource=https%3A%2F%2Ffonts.googleapis.com%2Fcss%3Ffamily%3DOxanium;" parent="1" vertex="1">
          <mxGeometry x="545.0000000000001" y="2995.2" width="86.96" height="36.04" as="geometry" />
        </mxCell>
        <mxCell id="D0P-cQOBXl9gxgHHSvNB-69" value="25" style="rounded=0;whiteSpace=wrap;html=1;strokeWidth=2;fillColor=#ffcccc;strokeColor=#000000;container=0;fontSize=16;fontStyle=0;fontFamily=Oxanium;fontSource=https%3A%2F%2Ffonts.googleapis.com%2Fcss%3Ffamily%3DOxanium;" parent="1" vertex="1">
          <mxGeometry x="545.0000000000001" y="3031.24" width="86.96" height="33.96" as="geometry" />
        </mxCell>
        <mxCell id="D0P-cQOBXl9gxgHHSvNB-70" value="1.6" style="rounded=0;whiteSpace=wrap;html=1;strokeWidth=2;fillColor=#ffcccc;strokeColor=default;container=0;fontSize=16;fontStyle=0;fontFamily=Oxanium;fontSource=https%3A%2F%2Ffonts.googleapis.com%2Fcss%3Ffamily%3DOxanium;" parent="1" vertex="1">
          <mxGeometry x="632" y="2923.12" width="86.75" height="36.04" as="geometry" />
        </mxCell>
        <mxCell id="D0P-cQOBXl9gxgHHSvNB-71" value="0.9" style="rounded=0;whiteSpace=wrap;html=1;strokeWidth=2;fillColor=#ffcccc;strokeColor=default;container=0;fontSize=16;fontStyle=0;fontFamily=Oxanium;fontSource=https%3A%2F%2Ffonts.googleapis.com%2Fcss%3Ffamily%3DOxanium;" parent="1" vertex="1">
          <mxGeometry x="632" y="2959.16" width="86.96" height="36.04" as="geometry" />
        </mxCell>
        <mxCell id="D0P-cQOBXl9gxgHHSvNB-72" value="0.1" style="rounded=0;whiteSpace=wrap;html=1;strokeWidth=2;fillColor=#ffcccc;strokeColor=default;container=0;fontSize=16;fontStyle=0;fontFamily=Oxanium;fontSource=https%3A%2F%2Ffonts.googleapis.com%2Fcss%3Ffamily%3DOxanium;" parent="1" vertex="1">
          <mxGeometry x="632" y="2995.2" width="86.96" height="36.04" as="geometry" />
        </mxCell>
        <mxCell id="D0P-cQOBXl9gxgHHSvNB-73" value="2.5" style="rounded=0;whiteSpace=wrap;html=1;strokeWidth=2;fillColor=#ffcccc;strokeColor=default;container=0;fontSize=16;fontStyle=0;fontFamily=Oxanium;fontSource=https%3A%2F%2Ffonts.googleapis.com%2Fcss%3Ffamily%3DOxanium;" parent="1" vertex="1">
          <mxGeometry x="632" y="3031.24" width="86.96" height="33.96" as="geometry" />
        </mxCell>
        <mxCell id="D0P-cQOBXl9gxgHHSvNB-74" value="&lt;span style=&quot;font-size: 16px;&quot;&gt;9&lt;/span&gt;" style="rounded=0;whiteSpace=wrap;html=1;strokeWidth=2;fillColor=#cdeb8b;strokeColor=#000000;container=0;fontSize=16;fontStyle=0;fontFamily=Oxanium;fontSource=https%3A%2F%2Ffonts.googleapis.com%2Fcss%3Ffamily%3DOxanium;" parent="1" vertex="1">
          <mxGeometry x="109" y="3065.2" width="86.96" height="36.04" as="geometry" />
        </mxCell>
        <mxCell id="D0P-cQOBXl9gxgHHSvNB-75" value="&lt;span style=&quot;font-size: 16px;&quot;&gt;10&lt;/span&gt;" style="rounded=0;whiteSpace=wrap;html=1;strokeWidth=2;fillColor=#cdeb8b;strokeColor=#000000;container=0;fontSize=16;fontStyle=0;fontFamily=Oxanium;fontSource=https%3A%2F%2Ffonts.googleapis.com%2Fcss%3Ffamily%3DOxanium;" parent="1" vertex="1">
          <mxGeometry x="109" y="3101.24" width="86.96" height="33.96" as="geometry" />
        </mxCell>
        <mxCell id="D0P-cQOBXl9gxgHHSvNB-78" value="9" style="rounded=0;whiteSpace=wrap;html=1;strokeWidth=2;fillColor=#cce5ff;strokeColor=#000000;container=0;fontSize=16;fontStyle=0;fontFamily=Oxanium;fontSource=https%3A%2F%2Ffonts.googleapis.com%2Fcss%3Ffamily%3DOxanium;" parent="1" vertex="1">
          <mxGeometry x="283.9200000000001" y="3065.2" width="86.96" height="36.04" as="geometry" />
        </mxCell>
        <mxCell id="PZnLodhZb1bgM4EHI_7N-1" value="" style="edgeStyle=orthogonalEdgeStyle;rounded=1;orthogonalLoop=1;jettySize=auto;html=1;curved=0;" parent="1" source="D0P-cQOBXl9gxgHHSvNB-79" target="v8tUN5qOXzX8aflVS6cc-6" edge="1">
          <mxGeometry relative="1" as="geometry" />
        </mxCell>
        <mxCell id="D0P-cQOBXl9gxgHHSvNB-79" value="12" style="rounded=0;whiteSpace=wrap;html=1;strokeWidth=2;fillColor=#cce5ff;strokeColor=#000000;container=0;fontSize=16;fontStyle=0;fontFamily=Oxanium;fontSource=https%3A%2F%2Ffonts.googleapis.com%2Fcss%3Ffamily%3DOxanium;" parent="1" vertex="1">
          <mxGeometry x="283.9200000000001" y="3101.24" width="86.96" height="33.96" as="geometry" />
        </mxCell>
        <mxCell id="D0P-cQOBXl9gxgHHSvNB-80" value="10" style="rounded=0;whiteSpace=wrap;html=1;strokeWidth=2;fillColor=#ffcccc;strokeColor=#000000;container=0;fontSize=16;fontStyle=0;fontFamily=Oxanium;fontSource=https%3A%2F%2Ffonts.googleapis.com%2Fcss%3Ffamily%3DOxanium;" parent="1" vertex="1">
          <mxGeometry x="370.9200000000001" y="3065.2" width="86.96" height="36.04" as="geometry" />
        </mxCell>
        <mxCell id="D0P-cQOBXl9gxgHHSvNB-81" value="10" style="rounded=0;whiteSpace=wrap;html=1;strokeWidth=2;fillColor=#ffcccc;strokeColor=#000000;container=0;fontSize=16;fontStyle=0;fontFamily=Oxanium;fontSource=https%3A%2F%2Ffonts.googleapis.com%2Fcss%3Ffamily%3DOxanium;" parent="1" vertex="1">
          <mxGeometry x="370.9200000000001" y="3101.24" width="86.96" height="33.96" as="geometry" />
        </mxCell>
        <mxCell id="D0P-cQOBXl9gxgHHSvNB-82" value="-1" style="rounded=0;whiteSpace=wrap;html=1;strokeWidth=2;fillColor=#ffcccc;strokeColor=#000000;container=0;fontSize=16;fontStyle=0;fontFamily=Oxanium;fontSource=https%3A%2F%2Ffonts.googleapis.com%2Fcss%3Ffamily%3DOxanium;" parent="1" vertex="1">
          <mxGeometry x="458.00000000000006" y="3065.2" width="86.96" height="36.04" as="geometry" />
        </mxCell>
        <mxCell id="D0P-cQOBXl9gxgHHSvNB-83" value="2" style="rounded=0;whiteSpace=wrap;html=1;strokeWidth=2;fillColor=#ffcccc;strokeColor=#000000;container=0;fontSize=16;fontStyle=0;fontFamily=Oxanium;fontSource=https%3A%2F%2Ffonts.googleapis.com%2Fcss%3Ffamily%3DOxanium;" parent="1" vertex="1">
          <mxGeometry x="458.00000000000006" y="3101.24" width="86.96" height="33.96" as="geometry" />
        </mxCell>
        <mxCell id="D0P-cQOBXl9gxgHHSvNB-84" value="1" style="rounded=0;whiteSpace=wrap;html=1;strokeWidth=2;fillColor=#ffcccc;strokeColor=#000000;container=0;fontSize=16;fontStyle=0;fontFamily=Oxanium;fontSource=https%3A%2F%2Ffonts.googleapis.com%2Fcss%3Ffamily%3DOxanium;" parent="1" vertex="1">
          <mxGeometry x="545.0000000000001" y="3065.2" width="86.96" height="36.04" as="geometry" />
        </mxCell>
        <mxCell id="D0P-cQOBXl9gxgHHSvNB-85" value="4" style="rounded=0;whiteSpace=wrap;html=1;strokeWidth=2;fillColor=#ffcccc;strokeColor=#000000;container=0;fontSize=16;fontStyle=0;fontFamily=Oxanium;fontSource=https%3A%2F%2Ffonts.googleapis.com%2Fcss%3Ffamily%3DOxanium;" parent="1" vertex="1">
          <mxGeometry x="545.0000000000001" y="3101.24" width="86.96" height="33.96" as="geometry" />
        </mxCell>
        <mxCell id="D0P-cQOBXl9gxgHHSvNB-86" value="0.1" style="rounded=0;whiteSpace=wrap;html=1;strokeWidth=2;fillColor=#ffcccc;strokeColor=default;container=0;fontSize=16;fontStyle=0;fontFamily=Oxanium;fontSource=https%3A%2F%2Ffonts.googleapis.com%2Fcss%3Ffamily%3DOxanium;" parent="1" vertex="1">
          <mxGeometry x="632" y="3065" width="86.96" height="36.24" as="geometry" />
        </mxCell>
        <mxCell id="D0P-cQOBXl9gxgHHSvNB-87" value="0.4" style="rounded=0;whiteSpace=wrap;html=1;strokeWidth=2;fillColor=#ffcccc;strokeColor=default;container=0;fontSize=16;fontStyle=0;fontFamily=Oxanium;fontSource=https%3A%2F%2Ffonts.googleapis.com%2Fcss%3Ffamily%3DOxanium;" parent="1" vertex="1">
          <mxGeometry x="632" y="3101.24" width="86.96" height="33.96" as="geometry" />
        </mxCell>
        <mxCell id="D0P-cQOBXl9gxgHHSvNB-23" value="&lt;b&gt;`E_i`&lt;/b&gt;" style="rounded=0;whiteSpace=wrap;html=1;strokeWidth=2;fillColor=#e51400;strokeColor=#000000;fontColor=#ffffff;container=0;fontSize=16;fontFamily=Mina;fontSource=https%3A%2F%2Ffonts.googleapis.com%2Fcss%3Ffamily%3DMina;" parent="1" vertex="1">
          <mxGeometry x="370.9600000000001" y="2745" width="86.96" height="36.04" as="geometry" />
        </mxCell>
        <mxCell id="D0P-cQOBXl9gxgHHSvNB-24" value="10" style="rounded=0;whiteSpace=wrap;html=1;strokeWidth=2;fillColor=#ffcccc;strokeColor=#000000;container=0;fontSize=16;fontStyle=0;fontFamily=Oxanium;fontSource=https%3A%2F%2Ffonts.googleapis.com%2Fcss%3Ffamily%3DOxanium;" parent="1" vertex="1">
          <mxGeometry x="370.9600000000001" y="2781.04" width="86.96" height="36.04" as="geometry" />
        </mxCell>
        <mxCell id="D0P-cQOBXl9gxgHHSvNB-25" value="10" style="rounded=0;whiteSpace=wrap;html=1;strokeWidth=2;fillColor=#ffcccc;strokeColor=#000000;container=0;fontSize=16;fontStyle=0;fontFamily=Oxanium;fontSource=https%3A%2F%2Ffonts.googleapis.com%2Fcss%3Ffamily%3DOxanium;" parent="1" vertex="1">
          <mxGeometry x="370.9200000000001" y="2817.08" width="86.96" height="36.04" as="geometry" />
        </mxCell>
        <mxCell id="D0P-cQOBXl9gxgHHSvNB-26" value="10" style="rounded=0;whiteSpace=wrap;html=1;strokeWidth=2;fillColor=#ffcccc;strokeColor=#000000;container=0;fontSize=16;fontStyle=0;fontFamily=Oxanium;fontSource=https%3A%2F%2Ffonts.googleapis.com%2Fcss%3Ffamily%3DOxanium;" parent="1" vertex="1">
          <mxGeometry x="370.9200000000001" y="2853.12" width="86.96" height="36.04" as="geometry" />
        </mxCell>
        <mxCell id="D0P-cQOBXl9gxgHHSvNB-27" value="10" style="rounded=0;whiteSpace=wrap;html=1;strokeWidth=2;fillColor=#ffcccc;strokeColor=#000000;container=0;fontSize=16;fontStyle=0;fontFamily=Oxanium;fontSource=https%3A%2F%2Ffonts.googleapis.com%2Fcss%3Ffamily%3DOxanium;" parent="1" vertex="1">
          <mxGeometry x="370.9200000000001" y="2889.16" width="86.96" height="33.96" as="geometry" />
        </mxCell>
        <mxCell id="D0P-cQOBXl9gxgHHSvNB-90" value="7.8" style="rounded=0;whiteSpace=wrap;html=1;strokeWidth=2;fillColor=#bac8d3;strokeColor=default;container=0;fontSize=16;fontStyle=0;fontFamily=Oxanium;fontSource=https%3A%2F%2Ffonts.googleapis.com%2Fcss%3Ffamily%3DOxanium;" parent="1" vertex="1">
          <mxGeometry x="632" y="3135.2" width="86.96" height="33.96" as="geometry" />
        </mxCell>
        <mxCell id="D0P-cQOBXl9gxgHHSvNB-41" value="&lt;b&gt;`(O-E)^2/E`&lt;/b&gt;" style="rounded=0;whiteSpace=wrap;html=1;strokeWidth=2;fillColor=#e51400;strokeColor=default;fontColor=#ffffff;container=0;fontSize=10;fontFamily=Mina;fontSource=https%3A%2F%2Ffonts.googleapis.com%2Fcss%3Ffamily%3DMina;" parent="1" vertex="1">
          <mxGeometry x="632" y="2745" width="86.96" height="36.04" as="geometry" />
        </mxCell>
        <mxCell id="D0P-cQOBXl9gxgHHSvNB-42" value="1.6" style="rounded=0;whiteSpace=wrap;html=1;strokeWidth=2;fillColor=#ffcccc;strokeColor=default;container=0;fontSize=16;fontStyle=0;fontFamily=Oxanium;fontSource=https%3A%2F%2Ffonts.googleapis.com%2Fcss%3Ffamily%3DOxanium;" parent="1" vertex="1">
          <mxGeometry x="632" y="2781.04" width="86.96" height="36.04" as="geometry" />
        </mxCell>
        <mxCell id="D0P-cQOBXl9gxgHHSvNB-43" value="0.1" style="rounded=0;whiteSpace=wrap;html=1;strokeWidth=2;fillColor=#ffcccc;strokeColor=default;container=0;fontSize=16;fontStyle=0;fontFamily=Oxanium;fontSource=https%3A%2F%2Ffonts.googleapis.com%2Fcss%3Ffamily%3DOxanium;" parent="1" vertex="1">
          <mxGeometry x="632" y="2817.08" width="86.96" height="36.04" as="geometry" />
        </mxCell>
        <mxCell id="D0P-cQOBXl9gxgHHSvNB-44" value="0.4" style="rounded=0;whiteSpace=wrap;html=1;strokeWidth=2;fillColor=#ffcccc;strokeColor=default;container=0;fontSize=16;fontStyle=0;fontFamily=Oxanium;fontSource=https%3A%2F%2Ffonts.googleapis.com%2Fcss%3Ffamily%3DOxanium;" parent="1" vertex="1">
          <mxGeometry x="632" y="2853.12" width="86.96" height="36.04" as="geometry" />
        </mxCell>
        <mxCell id="D0P-cQOBXl9gxgHHSvNB-45" value="0.1" style="rounded=0;whiteSpace=wrap;html=1;strokeWidth=2;fillColor=#ffcccc;strokeColor=default;container=0;fontSize=16;fontStyle=0;fontFamily=Oxanium;fontSource=https%3A%2F%2Ffonts.googleapis.com%2Fcss%3Ffamily%3DOxanium;" parent="1" vertex="1">
          <mxGeometry x="632" y="2889.16" width="86.96" height="33.96" as="geometry" />
        </mxCell>
        <mxCell id="D0P-cQOBXl9gxgHHSvNB-35" value="&lt;b&gt;`(O-E)^2`&lt;/b&gt;" style="rounded=0;whiteSpace=wrap;html=1;strokeWidth=2;fillColor=#e51400;strokeColor=#000000;fontColor=#ffffff;container=0;fontSize=14;fontFamily=Mina;fontSource=https%3A%2F%2Ffonts.googleapis.com%2Fcss%3Ffamily%3DMina;" parent="1" vertex="1">
          <mxGeometry x="545.0400000000002" y="2745" width="86.96" height="36.04" as="geometry" />
        </mxCell>
        <mxCell id="D0P-cQOBXl9gxgHHSvNB-36" value="16" style="rounded=0;whiteSpace=wrap;html=1;strokeWidth=2;fillColor=#ffcccc;strokeColor=#000000;container=0;fontSize=16;fontStyle=0;fontFamily=Oxanium;fontSource=https%3A%2F%2Ffonts.googleapis.com%2Fcss%3Ffamily%3DOxanium;" parent="1" vertex="1">
          <mxGeometry x="545.0400000000002" y="2781.04" width="86.96" height="36.04" as="geometry" />
        </mxCell>
        <mxCell id="D0P-cQOBXl9gxgHHSvNB-37" value="1" style="rounded=0;whiteSpace=wrap;html=1;strokeWidth=2;fillColor=#ffcccc;strokeColor=#000000;container=0;fontSize=16;fontStyle=0;fontFamily=Oxanium;fontSource=https%3A%2F%2Ffonts.googleapis.com%2Fcss%3Ffamily%3DOxanium;" parent="1" vertex="1">
          <mxGeometry x="545.0000000000001" y="2817.08" width="86.96" height="36.04" as="geometry" />
        </mxCell>
        <mxCell id="D0P-cQOBXl9gxgHHSvNB-38" value="4" style="rounded=0;whiteSpace=wrap;html=1;strokeWidth=2;fillColor=#ffcccc;strokeColor=#000000;container=0;fontSize=16;fontStyle=0;fontFamily=Oxanium;fontSource=https%3A%2F%2Ffonts.googleapis.com%2Fcss%3Ffamily%3DOxanium;" parent="1" vertex="1">
          <mxGeometry x="545.0000000000001" y="2853.12" width="86.96" height="36.04" as="geometry" />
        </mxCell>
        <mxCell id="D0P-cQOBXl9gxgHHSvNB-39" value="1" style="rounded=0;whiteSpace=wrap;html=1;strokeWidth=2;fillColor=#ffcccc;strokeColor=#000000;container=0;fontSize=16;fontStyle=0;fontFamily=Oxanium;fontSource=https%3A%2F%2Ffonts.googleapis.com%2Fcss%3Ffamily%3DOxanium;" parent="1" vertex="1">
          <mxGeometry x="545.0000000000001" y="2889.16" width="86.96" height="33.96" as="geometry" />
        </mxCell>
        <mxCell id="D0P-cQOBXl9gxgHHSvNB-29" value="&lt;b&gt;`O-E`&lt;/b&gt;" style="rounded=0;whiteSpace=wrap;html=1;strokeWidth=2;fillColor=#e51400;strokeColor=#000000;fontColor=#ffffff;container=0;fontSize=15;fontFamily=Mina;fontSource=https%3A%2F%2Ffonts.googleapis.com%2Fcss%3Ffamily%3DMina;" parent="1" vertex="1">
          <mxGeometry x="458.0400000000001" y="2745" width="86.96" height="36.04" as="geometry" />
        </mxCell>
        <mxCell id="D0P-cQOBXl9gxgHHSvNB-30" value="-4" style="rounded=0;whiteSpace=wrap;html=1;strokeWidth=2;fillColor=#ffcccc;strokeColor=#000000;container=0;fontSize=16;fontStyle=0;fontFamily=Oxanium;fontSource=https%3A%2F%2Ffonts.googleapis.com%2Fcss%3Ffamily%3DOxanium;" parent="1" vertex="1">
          <mxGeometry x="458.0400000000001" y="2781.04" width="86.96" height="36.04" as="geometry" />
        </mxCell>
        <mxCell id="D0P-cQOBXl9gxgHHSvNB-31" value="-1" style="rounded=0;whiteSpace=wrap;html=1;strokeWidth=2;fillColor=#ffcccc;strokeColor=#000000;container=0;fontSize=16;fontStyle=0;fontFamily=Oxanium;fontSource=https%3A%2F%2Ffonts.googleapis.com%2Fcss%3Ffamily%3DOxanium;" parent="1" vertex="1">
          <mxGeometry x="458.00000000000006" y="2817.08" width="86.96" height="36.04" as="geometry" />
        </mxCell>
        <mxCell id="D0P-cQOBXl9gxgHHSvNB-32" value="-2" style="rounded=0;whiteSpace=wrap;html=1;strokeWidth=2;fillColor=#ffcccc;strokeColor=#000000;container=0;fontSize=16;fontStyle=0;fontFamily=Oxanium;fontSource=https%3A%2F%2Ffonts.googleapis.com%2Fcss%3Ffamily%3DOxanium;" parent="1" vertex="1">
          <mxGeometry x="458.00000000000006" y="2853.12" width="86.96" height="36.04" as="geometry" />
        </mxCell>
        <mxCell id="D0P-cQOBXl9gxgHHSvNB-33" value="-1" style="rounded=0;whiteSpace=wrap;html=1;strokeWidth=2;fillColor=#ffcccc;strokeColor=#000000;container=0;fontSize=16;fontStyle=0;fontFamily=Oxanium;fontSource=https%3A%2F%2Ffonts.googleapis.com%2Fcss%3Ffamily%3DOxanium;" parent="1" vertex="1">
          <mxGeometry x="458.00000000000006" y="2889.16" width="86.96" height="33.96" as="geometry" />
        </mxCell>
        <mxCell id="D0P-cQOBXl9gxgHHSvNB-17" value="&lt;b&gt;`O_i`&lt;/b&gt;" style="rounded=0;whiteSpace=wrap;html=1;strokeWidth=2;fillColor=#0050ef;strokeColor=#000000;fontColor=#ffffff;container=0;fontSize=16;fontFamily=Mina;fontSource=https%3A%2F%2Ffonts.googleapis.com%2Fcss%3Ffamily%3DMina;" parent="1" vertex="1">
          <mxGeometry x="283.96000000000004" y="2745" width="86.96" height="36.04" as="geometry" />
        </mxCell>
        <mxCell id="D0P-cQOBXl9gxgHHSvNB-18" value="6" style="rounded=0;whiteSpace=wrap;html=1;strokeWidth=2;fillColor=#cce5ff;strokeColor=#000000;container=0;fontSize=16;fontStyle=0;fontFamily=Oxanium;fontSource=https%3A%2F%2Ffonts.googleapis.com%2Fcss%3Ffamily%3DOxanium;" parent="1" vertex="1">
          <mxGeometry x="283.96000000000004" y="2781.04" width="86.96" height="36.04" as="geometry" />
        </mxCell>
        <mxCell id="D0P-cQOBXl9gxgHHSvNB-19" value="9" style="rounded=0;whiteSpace=wrap;html=1;strokeWidth=2;fillColor=#cce5ff;strokeColor=#000000;container=0;fontSize=16;fontStyle=0;fontFamily=Oxanium;fontSource=https%3A%2F%2Ffonts.googleapis.com%2Fcss%3Ffamily%3DOxanium;" parent="1" vertex="1">
          <mxGeometry x="283.9200000000001" y="2817.08" width="86.96" height="36.04" as="geometry" />
        </mxCell>
        <mxCell id="D0P-cQOBXl9gxgHHSvNB-20" value="8" style="rounded=0;whiteSpace=wrap;html=1;strokeWidth=2;fillColor=#cce5ff;strokeColor=#000000;container=0;fontSize=16;fontStyle=0;fontFamily=Oxanium;fontSource=https%3A%2F%2Ffonts.googleapis.com%2Fcss%3Ffamily%3DOxanium;" parent="1" vertex="1">
          <mxGeometry x="283.9200000000001" y="2853.12" width="86.96" height="36.04" as="geometry" />
        </mxCell>
        <mxCell id="D0P-cQOBXl9gxgHHSvNB-21" value="9" style="rounded=0;whiteSpace=wrap;html=1;strokeWidth=2;fillColor=#cce5ff;strokeColor=#000000;container=0;fontSize=16;fontStyle=0;fontFamily=Oxanium;fontSource=https%3A%2F%2Ffonts.googleapis.com%2Fcss%3Ffamily%3DOxanium;" parent="1" vertex="1">
          <mxGeometry x="283.9200000000001" y="2889.16" width="86.96" height="33.96" as="geometry" />
        </mxCell>
        <mxCell id="D0P-cQOBXl9gxgHHSvNB-50" value="`[0.4-0.5]`" style="rounded=0;whiteSpace=wrap;html=1;strokeWidth=2;fillColor=#ffcc99;strokeColor=#000000;container=0;fontSize=15;fontStyle=0;fontFamily=Oxanium;fontSource=https%3A%2F%2Ffonts.googleapis.com%2Fcss%3Ffamily%3DOxanium;" parent="1" vertex="1">
          <mxGeometry x="196.04073085444645" y="2923.12" width="88.54887756660618" height="36.04000000000001" as="geometry" />
        </mxCell>
        <mxCell id="D0P-cQOBXl9gxgHHSvNB-51" value="`[0.5-0.6]`" style="rounded=0;whiteSpace=wrap;html=1;strokeWidth=2;fillColor=#ffcc99;strokeColor=#000000;container=0;fontSize=15;fontStyle=0;fontFamily=Oxanium;fontSource=https%3A%2F%2Ffonts.googleapis.com%2Fcss%3Ffamily%3DOxanium;" parent="1" vertex="1">
          <mxGeometry x="196" y="2959.16" width="88.54887756660618" height="36.04000000000001" as="geometry" />
        </mxCell>
        <mxCell id="D0P-cQOBXl9gxgHHSvNB-52" value="`[0.6-0.7]`" style="rounded=0;whiteSpace=wrap;html=1;strokeWidth=2;fillColor=#ffcc99;strokeColor=#000000;container=0;fontSize=15;fontStyle=0;fontFamily=Oxanium;fontSource=https%3A%2F%2Ffonts.googleapis.com%2Fcss%3Ffamily%3DOxanium;" parent="1" vertex="1">
          <mxGeometry x="196" y="2995.2" width="88.54887756660618" height="36.04000000000001" as="geometry" />
        </mxCell>
        <mxCell id="D0P-cQOBXl9gxgHHSvNB-53" value="`[0.7-0.8]`" style="rounded=0;whiteSpace=wrap;html=1;strokeWidth=2;fillColor=#ffcc99;strokeColor=#000000;container=0;fontSize=15;fontStyle=0;fontFamily=Oxanium;fontSource=https%3A%2F%2Ffonts.googleapis.com%2Fcss%3Ffamily%3DOxanium;" parent="1" vertex="1">
          <mxGeometry x="196" y="3031.24" width="88.54887756660618" height="33.960000000000015" as="geometry" />
        </mxCell>
        <mxCell id="D0P-cQOBXl9gxgHHSvNB-76" value="`[0.8-0.9]`" style="rounded=0;whiteSpace=wrap;html=1;strokeWidth=2;fillColor=#ffcc99;strokeColor=#000000;container=0;fontSize=15;fontStyle=0;fontFamily=Oxanium;fontSource=https%3A%2F%2Ffonts.googleapis.com%2Fcss%3Ffamily%3DOxanium;" parent="1" vertex="1">
          <mxGeometry x="196" y="3065.2" width="88.54887756660618" height="36.04000000000001" as="geometry" />
        </mxCell>
        <mxCell id="D0P-cQOBXl9gxgHHSvNB-77" value="`[0.9-1.0]`" style="rounded=0;whiteSpace=wrap;html=1;strokeWidth=2;fillColor=#ffcc99;strokeColor=#000000;container=0;fontSize=15;fontStyle=0;fontFamily=Oxanium;fontSource=https%3A%2F%2Ffonts.googleapis.com%2Fcss%3Ffamily%3DOxanium;" parent="1" vertex="1">
          <mxGeometry x="196" y="3101.24" width="88.54887756660618" height="33.960000000000015" as="geometry" />
        </mxCell>
        <mxCell id="D0P-cQOBXl9gxgHHSvNB-11" value="&lt;span style=&quot;font-size: 16px; font-weight: 700;&quot;&gt;Upperlimit&lt;/span&gt;" style="rounded=0;whiteSpace=wrap;html=1;strokeWidth=2;fillColor=#a0522d;strokeColor=#000000;fontColor=#ffffff;container=0;fontSize=16;fontFamily=Mina;fontSource=https%3A%2F%2Ffonts.googleapis.com%2Fcss%3Ffamily%3DMina;" parent="1" vertex="1">
          <mxGeometry x="196.04073085444648" y="2745" width="88.54887756660618" height="36.04000000000001" as="geometry" />
        </mxCell>
        <mxCell id="D0P-cQOBXl9gxgHHSvNB-12" value="`[0-0.1]`" style="rounded=0;whiteSpace=wrap;html=1;strokeWidth=2;fillColor=#ffcc99;strokeColor=#000000;container=0;fontSize=15;fontStyle=0;fontFamily=Oxanium;fontSource=https%3A%2F%2Ffonts.googleapis.com%2Fcss%3Ffamily%3DOxanium;" parent="1" vertex="1">
          <mxGeometry x="196.04073085444648" y="2781.04" width="88.54887756660618" height="36.04000000000001" as="geometry" />
        </mxCell>
        <mxCell id="D0P-cQOBXl9gxgHHSvNB-13" value="&lt;span&gt;`[0.1-0.2]`&lt;/span&gt;" style="rounded=0;whiteSpace=wrap;html=1;strokeWidth=2;fillColor=#ffcc99;strokeColor=#000000;container=0;fontSize=15;fontStyle=0;fontFamily=Oxanium;fontSource=https%3A%2F%2Ffonts.googleapis.com%2Fcss%3Ffamily%3DOxanium;" parent="1" vertex="1">
          <mxGeometry x="196" y="2817.08" width="88.54887756660618" height="36.04000000000001" as="geometry" />
        </mxCell>
        <mxCell id="D0P-cQOBXl9gxgHHSvNB-14" value="`[0.2-0.3]`" style="rounded=0;whiteSpace=wrap;html=1;strokeWidth=2;fillColor=#ffcc99;strokeColor=#000000;container=0;fontSize=15;fontStyle=0;fontFamily=Oxanium;fontSource=https%3A%2F%2Ffonts.googleapis.com%2Fcss%3Ffamily%3DOxanium;" parent="1" vertex="1">
          <mxGeometry x="196" y="2853.12" width="88.54887756660618" height="36.04000000000001" as="geometry" />
        </mxCell>
        <mxCell id="D0P-cQOBXl9gxgHHSvNB-15" value="`[0.3-0.4]`" style="rounded=0;whiteSpace=wrap;html=1;strokeWidth=2;fillColor=#ffcc99;strokeColor=#000000;container=0;fontSize=15;fontStyle=0;fontFamily=Oxanium;fontSource=https%3A%2F%2Ffonts.googleapis.com%2Fcss%3Ffamily%3DOxanium;" parent="1" vertex="1">
          <mxGeometry x="196" y="2889.16" width="88.54887756660618" height="33.960000000000015" as="geometry" />
        </mxCell>
        <mxCell id="D0P-cQOBXl9gxgHHSvNB-5" value="&lt;b&gt;Interval&lt;/b&gt;" style="rounded=0;whiteSpace=wrap;html=1;strokeWidth=2;fillColor=#008a00;strokeColor=#000000;fontColor=#ffffff;container=0;fontSize=16;fontFamily=Mina;fontSource=https%3A%2F%2Ffonts.googleapis.com%2Fcss%3Ffamily%3DMina;" parent="1" vertex="1">
          <mxGeometry x="109.03999999999999" y="2745" width="86.96" height="36.04" as="geometry" />
        </mxCell>
        <mxCell id="D0P-cQOBXl9gxgHHSvNB-6" value="1" style="rounded=0;whiteSpace=wrap;html=1;strokeWidth=2;fillColor=#cdeb8b;strokeColor=#000000;container=0;fontSize=16;fontStyle=0;fontFamily=Oxanium;fontSource=https%3A%2F%2Ffonts.googleapis.com%2Fcss%3Ffamily%3DOxanium;" parent="1" vertex="1">
          <mxGeometry x="109.03999999999999" y="2781.04" width="86.96" height="36.04" as="geometry" />
        </mxCell>
        <mxCell id="D0P-cQOBXl9gxgHHSvNB-7" value="&lt;span style=&quot;font-size: 16px;&quot;&gt;2&lt;/span&gt;" style="rounded=0;whiteSpace=wrap;html=1;strokeWidth=2;fillColor=#cdeb8b;strokeColor=#000000;container=0;fontSize=16;fontStyle=0;fontFamily=Oxanium;fontSource=https%3A%2F%2Ffonts.googleapis.com%2Fcss%3Ffamily%3DOxanium;" parent="1" vertex="1">
          <mxGeometry x="109" y="2817.08" width="86.96" height="36.04" as="geometry" />
        </mxCell>
        <mxCell id="D0P-cQOBXl9gxgHHSvNB-8" value="&lt;span style=&quot;font-size: 16px;&quot;&gt;3&lt;/span&gt;" style="rounded=0;whiteSpace=wrap;html=1;strokeWidth=2;fillColor=#cdeb8b;strokeColor=#000000;container=0;fontSize=16;fontStyle=0;fontFamily=Oxanium;fontSource=https%3A%2F%2Ffonts.googleapis.com%2Fcss%3Ffamily%3DOxanium;" parent="1" vertex="1">
          <mxGeometry x="109" y="2853.12" width="86.96" height="36.04" as="geometry" />
        </mxCell>
        <mxCell id="D0P-cQOBXl9gxgHHSvNB-9" value="&lt;span style=&quot;font-size: 16px;&quot;&gt;4&lt;/span&gt;" style="rounded=0;whiteSpace=wrap;html=1;strokeWidth=2;fillColor=#cdeb8b;strokeColor=#000000;container=0;fontSize=16;fontStyle=0;fontFamily=Oxanium;fontSource=https%3A%2F%2Ffonts.googleapis.com%2Fcss%3Ffamily%3DOxanium;" parent="1" vertex="1">
          <mxGeometry x="109" y="2889.16" width="86.96" height="33.96" as="geometry" />
        </mxCell>
        <mxCell id="D0P-cQOBXl9gxgHHSvNB-93" value="هنا بنـ Fill بقيمة الـ `E_i` اللي حسبناها قبل كده `E_i=N/n=100/10`" style="text;whiteSpace=wrap;fontFamily=Beiruti;fontSource=https%3A%2F%2Ffonts.googleapis.com%2Fcss%3Ffamily%3DBeiruti;align=center;fontStyle=1;textDirection=rtl;fontSize=13;verticalAlign=middle;" parent="1" vertex="1">
          <mxGeometry x="378" y="2675" width="110" height="70" as="geometry" />
        </mxCell>
        <mxCell id="Ke5pAPr_GrU_tqwF9Evr-1" style="rounded=1;orthogonalLoop=1;jettySize=auto;html=1;strokeColor=#EA6B66;endArrow=none;endFill=0;startArrow=baseDash;startFill=0;edgeStyle=orthogonalEdgeStyle;" parent="1" edge="1">
          <mxGeometry relative="1" as="geometry">
            <mxPoint x="305" y="2715" as="targetPoint" />
            <mxPoint x="326" y="2773.03" as="sourcePoint" />
            <Array as="points">
              <mxPoint x="326" y="2781" />
              <mxPoint x="306" y="2781" />
              <mxPoint x="306" y="2725" />
              <mxPoint x="305" y="2725" />
            </Array>
          </mxGeometry>
        </mxCell>
        <mxCell id="Ke5pAPr_GrU_tqwF9Evr-2" style="rounded=1;orthogonalLoop=1;jettySize=auto;html=1;strokeColor=#3333FF;endArrow=none;endFill=0;startArrow=baseDash;startFill=0;edgeStyle=orthogonalEdgeStyle;" parent="1" edge="1">
          <mxGeometry relative="1" as="geometry">
            <mxPoint x="392" y="2726" as="targetPoint" />
            <mxPoint x="412" y="2770" as="sourcePoint" />
            <Array as="points">
              <mxPoint x="412" y="2778" />
              <mxPoint x="392" y="2778" />
            </Array>
          </mxGeometry>
        </mxCell>
        <mxCell id="Ke5pAPr_GrU_tqwF9Evr-3" value="`\chi_{\circ}^2 =`" style="text;whiteSpace=wrap;fontFamily=Oxanium;fontSource=https%3A%2F%2Ffonts.googleapis.com%2Fcss%3Ffamily%3DOxanium;align=center;fontStyle=0;textDirection=rtl;fontSize=19;verticalAlign=middle;fillColor=none;strokeColor=none;gradientColor=none;" parent="1" vertex="1">
          <mxGeometry x="576" y="3138.59" width="45.96" height="27.18" as="geometry" />
        </mxCell>
        <mxCell id="v8tUN5qOXzX8aflVS6cc-5" value="&lt;div&gt;5&lt;/div&gt;" style="rounded=1;whiteSpace=wrap;html=1;hachureGap=4;fontFamily=Mina;strokeWidth=2;fillColor=#e1d5e7;strokeColor=#000000;fontSize=25;fontStyle=1;labelBorderColor=none;textShadow=0;labelBackgroundColor=none;align=center;spacing=7;verticalAlign=middle;" parent="1" vertex="1">
          <mxGeometry x="21.52" y="3178.75" width="40" height="40" as="geometry" />
        </mxCell>
        <mxCell id="v8tUN5qOXzX8aflVS6cc-6" value="&lt;font face=&quot;Mali&quot; data-font-src=&quot;https://fonts.googleapis.com/css?family=Mali&quot;&gt;Not Rejected if &lt;/font&gt;`\chi_{\circ}^2 &amp;lt; \chi_{\alpha}^2` &lt;font face=&quot;Lateef&quot;&gt;اللي بجيبها من الجدول&lt;/font&gt;, &lt;font face=&quot;Mali&quot; data-font-src=&quot;https://fonts.googleapis.com/css?family=Mali&quot;&gt;Otherwise Reject&lt;/font&gt;" style="rounded=1;whiteSpace=wrap;html=1;hachureGap=4;fontFamily=Mina;strokeWidth=2;fillColor=#e1d5e7;strokeColor=#000000;fontSize=15;fontStyle=1;labelBorderColor=none;textShadow=0;labelBackgroundColor=none;align=left;spacing=7;verticalAlign=middle;textDirection=ltr;" parent="1" vertex="1">
          <mxGeometry x="61.52000000000001" y="3178.75" width="476.96" height="40" as="geometry" />
        </mxCell>
        <mxCell id="v8tUN5qOXzX8aflVS6cc-7" style="edgeStyle=orthogonalEdgeStyle;rounded=1;orthogonalLoop=1;jettySize=auto;html=1;strokeColor=#EA6B66;endArrow=baseDash;endFill=0;curved=0;" parent="1" source="v8tUN5qOXzX8aflVS6cc-8" edge="1">
          <mxGeometry relative="1" as="geometry">
            <mxPoint x="198.48" y="3211.75" as="targetPoint" />
            <Array as="points">
              <mxPoint x="198.48" y="3247.75" />
              <mxPoint x="198.48" y="3214.75" />
            </Array>
          </mxGeometry>
        </mxCell>
        <mxCell id="v8tUN5qOXzX8aflVS6cc-8" value="اللي انا حاسبها" style="text;whiteSpace=wrap;fontFamily=Beiruti;fontSource=https%3A%2F%2Ffonts.googleapis.com%2Fcss%3Ffamily%3DBeiruti;fontStyle=1" parent="1" vertex="1">
          <mxGeometry x="137.48" y="3233.75" width="60" height="27" as="geometry" />
        </mxCell>
        <mxCell id="1VSz23jFe4aa1tyaqeh--1" value="قيمة الـ  `\chi_{\alpha}^2` دي بروح اجيبها من الجدول اللي هو مديهولي بمعلومية الـ `\alpha, n-1` بسكده" style="text;whiteSpace=wrap;fontFamily=Beiruti;fontSource=https%3A%2F%2Ffonts.googleapis.com%2Fcss%3Ffamily%3DBeiruti;align=center;fontStyle=1;fontSize=14;" parent="1" vertex="1">
          <mxGeometry x="450" y="3233.75" width="200.52" height="41.75" as="geometry" />
        </mxCell>
      </root>
    </mxGraphModel>
  </diagram>
  <diagram id="PyCIwNq1UhTMntHSYxkj" name="LCM">
    <mxGraphModel dx="1410" dy="-1495" grid="1" gridSize="10" guides="1" tooltips="1" connect="1" arrows="1" fold="1" page="1" pageScale="1" pageWidth="827" pageHeight="1169" math="1" shadow="0">
      <root>
        <mxCell id="0" />
        <mxCell id="1" parent="0" />
        <mxCell id="6njgCLjoG7kJNS9bL-9w-1" value="&lt;font data-font-src=&quot;https://fonts.googleapis.com/css?family=Mali&quot; face=&quot;Mali&quot;&gt;&lt;font style=&quot;color: rgb(255, 255, 255);&quot;&gt;Linear Congruential Method (&lt;/font&gt;&lt;font style=&quot;color: rgb(255, 255, 204);&quot;&gt;LCM&lt;/font&gt;&lt;font style=&quot;color: rgb(255, 255, 255);&quot;&gt;)&lt;/font&gt;&lt;/font&gt;" style="rounded=1;whiteSpace=wrap;html=1;hachureGap=4;fontFamily=Mina;strokeWidth=2;fillColor=#76608a;strokeColor=#000000;fontSize=22;fontStyle=1;labelBorderColor=none;textShadow=0;labelBackgroundColor=none;align=left;spacing=5;verticalAlign=middle;spacingTop=0;spacingRight=2;fontColor=#ffffff;container=0;spacingLeft=5;" parent="1" vertex="1">
          <mxGeometry x="40" y="2360" width="400" height="40" as="geometry" />
        </mxCell>
        <mxCell id="6njgCLjoG7kJNS9bL-9w-2" value="&lt;div style=&quot;line-height: 140%;&quot;&gt;Given a params `a`, `c`, `m`, `X_\circ`&lt;/div&gt;" style="rounded=1;whiteSpace=wrap;html=1;hachureGap=4;fontFamily=Mali;strokeWidth=2;fontSize=16;fontStyle=1;labelBorderColor=none;textShadow=0;labelBackgroundColor=none;align=left;spacing=7;verticalAlign=middle;fillColor=#bac8d3;strokeColor=default;fontSource=https%3A%2F%2Ffonts.googleapis.com%2Fcss%3Ffamily%3DMali;" parent="1" vertex="1">
          <mxGeometry x="40" y="2420" width="230" height="43" as="geometry" />
        </mxCell>
        <mxCell id="6njgCLjoG7kJNS9bL-9w-3" value="هدفنا اننا نعمل generate لـ Random Numbers عن طريق اننا  بنعمل seeder و بنستخدمة في اننا نطلع الـ `R` و أول Technique معانا هو LCM، بكل بساطة انا معايا معادلة و المعادلة ديه ليها Parameters معينة فيه منهم given زي الـ `a` و `c` و `m` و فيه منهم بيعتمد علي ال seeder اللي قبله زي الـ `X_i` و بشكل ابتدائي هو بيديك الـ `X_\circ`" style="text;whiteSpace=wrap;fontFamily=Beiruti;fontSource=https%3A%2F%2Ffonts.googleapis.com%2Fcss%3Ffamily%3DBeiruti;align=right;fontStyle=0;textDirection=rtl;fontSize=15;labelBackgroundColor=none;labelBorderColor=none;textShadow=0;" parent="1" vertex="1">
          <mxGeometry x="330" y="2420" width="478.5" height="90" as="geometry" />
        </mxCell>
        <mxCell id="3XvZgXC38OFqLWB26CIr-1" value="We apply on formula: `X_{i+1} = (a \cdot X_i + c) % m`" style="rounded=1;whiteSpace=wrap;html=1;hachureGap=4;fontFamily=Mina;strokeWidth=2;fillColor=#b1ddf0;strokeColor=default;fontSize=13;fontStyle=1;labelBorderColor=none;textShadow=0;labelBackgroundColor=none;align=left;spacing=7;verticalAlign=middle;" parent="1" vertex="1">
          <mxGeometry x="20" y="2560" width="310" height="44.55" as="geometry" />
        </mxCell>
        <mxCell id="3XvZgXC38OFqLWB26CIr-3" style="edgeStyle=orthogonalEdgeStyle;rounded=0;orthogonalLoop=1;jettySize=auto;html=1;endArrow=baseDash;endFill=0;fillColor=#d0cee2;strokeColor=#56517e;curved=1;" parent="1" source="3XvZgXC38OFqLWB26CIr-2" edge="1">
          <mxGeometry relative="1" as="geometry">
            <mxPoint x="235.00383911132812" y="2595.001536114032" as="targetPoint" />
            <mxPoint x="235.85" y="2632.54" as="sourcePoint" />
          </mxGeometry>
        </mxCell>
        <mxCell id="3XvZgXC38OFqLWB26CIr-2" value="Multiplier" style="text;html=1;align=center;verticalAlign=middle;resizable=0;points=[];autosize=1;strokeColor=none;fillColor=none;fontFamily=Mali;fontSource=https%3A%2F%2Ffonts.googleapis.com%2Fcss%3Ffamily%3DMali;fontStyle=1" parent="1" vertex="1">
          <mxGeometry x="180" y="2630" width="80" height="30" as="geometry" />
        </mxCell>
        <mxCell id="3XvZgXC38OFqLWB26CIr-4" value="Increment" style="text;html=1;align=center;verticalAlign=middle;resizable=0;points=[];autosize=1;strokeColor=none;fillColor=none;fontFamily=Mali;fontSource=https%3A%2F%2Ffonts.googleapis.com%2Fcss%3Ffamily%3DMali;fontStyle=1" parent="1" vertex="1">
          <mxGeometry x="260" y="2630" width="80" height="30" as="geometry" />
        </mxCell>
        <mxCell id="3XvZgXC38OFqLWB26CIr-5" style="edgeStyle=orthogonalEdgeStyle;rounded=0;orthogonalLoop=1;jettySize=auto;html=1;endArrow=baseDash;endFill=0;fillColor=#d0cee2;strokeColor=#56517e;curved=1;" parent="1" edge="1">
          <mxGeometry relative="1" as="geometry">
            <mxPoint x="280.00383911132815" y="2595.001536114032" as="targetPoint" />
            <mxPoint x="290" y="2630" as="sourcePoint" />
          </mxGeometry>
        </mxCell>
        <mxCell id="3XvZgXC38OFqLWB26CIr-6" value="Modulus" style="text;html=1;align=center;verticalAlign=middle;resizable=0;points=[];autosize=1;strokeColor=none;fillColor=none;fontFamily=Mali;fontSource=https%3A%2F%2Ffonts.googleapis.com%2Fcss%3Ffamily%3DMali;fontStyle=1" parent="1" vertex="1">
          <mxGeometry x="335" y="2610" width="70" height="30" as="geometry" />
        </mxCell>
        <mxCell id="3XvZgXC38OFqLWB26CIr-7" style="edgeStyle=orthogonalEdgeStyle;rounded=0;orthogonalLoop=1;jettySize=auto;html=1;endArrow=baseDash;endFill=0;fillColor=#d0cee2;strokeColor=#56517e;curved=1;" parent="1" source="3XvZgXC38OFqLWB26CIr-6" edge="1">
          <mxGeometry relative="1" as="geometry">
            <mxPoint x="308.00383911132815" y="2594.001536114032" as="targetPoint" />
            <mxPoint x="353" y="2614" as="sourcePoint" />
            <Array as="points">
              <mxPoint x="309" y="2625" />
              <mxPoint x="309" y="2594" />
            </Array>
          </mxGeometry>
        </mxCell>
        <mxCell id="3XvZgXC38OFqLWB26CIr-8" value="شوية حاجات لاحظناها أن كل ما الـ `m` بتزيد الـ ِCycle بتزيد كمان رينج الـقيم كلها معطيات و نواتج بتكون مش سالبة و اصغر من الـ `m`&#xa;&#xa;قيم الـ R بتكون في رينج `R  \in [0, {m-1}/m]` يعني من صفر لـ اقل من الـ `1`" style="text;whiteSpace=wrap;fontFamily=Beiruti;fontSource=https%3A%2F%2Ffonts.googleapis.com%2Fcss%3Ffamily%3DBeiruti;align=right;fontStyle=0;textDirection=rtl;fontSize=15;labelBackgroundColor=none;labelBorderColor=none;textShadow=0;" parent="1" vertex="1">
          <mxGeometry x="450" y="2560" width="348.5" height="100" as="geometry" />
        </mxCell>
        <mxCell id="3XvZgXC38OFqLWB26CIr-27" value="&lt;font face=&quot;Mali&quot;&gt;Ex: Use linear congruential method to generate sequence of random numbers with &lt;br&gt;`a = 17`, `c = 43`, `m=100`, `X_\circ=27`&lt;/font&gt;" style="rounded=1;whiteSpace=wrap;html=1;hachureGap=4;fontFamily=Mina;strokeWidth=2;fillColor=#fad7ac;strokeColor=default;fontSize=16;fontStyle=1;labelBorderColor=none;textShadow=0;labelBackgroundColor=none;align=left;spacing=7;verticalAlign=middle;" parent="1" vertex="1">
          <mxGeometry x="79" y="2990" width="670" height="70" as="geometry" />
        </mxCell>
        <mxCell id="PLEYl3UzaIWWC3gaPfr4-1" value="" style="group" parent="1" vertex="1" connectable="0">
          <mxGeometry x="139" y="3140" width="550" height="188.5" as="geometry" />
        </mxCell>
        <mxCell id="3XvZgXC38OFqLWB26CIr-18" value="&lt;font face=&quot;Mali&quot;&gt;`X_1 = (17 \cdot 27 + 43) % 100`&lt;/font&gt;" style="rounded=1;whiteSpace=wrap;html=1;hachureGap=4;fontFamily=Mina;strokeWidth=2;fillColor=#bac8d3;strokeColor=default;fontSize=16;fontStyle=1;labelBorderColor=none;textShadow=0;labelBackgroundColor=none;align=left;spacing=7;verticalAlign=middle;" parent="PLEYl3UzaIWWC3gaPfr4-1" vertex="1">
          <mxGeometry width="400" height="40" as="geometry" />
        </mxCell>
        <mxCell id="3XvZgXC38OFqLWB26CIr-19" value="&lt;font face=&quot;Mali&quot;&gt;`X_2 = (17 \cdot 2 + 43) % 100`&lt;/font&gt;" style="rounded=1;whiteSpace=wrap;html=1;hachureGap=4;fontFamily=Mina;strokeWidth=2;fillColor=#bac8d3;strokeColor=default;fontSize=16;fontStyle=1;labelBorderColor=none;textShadow=0;labelBackgroundColor=none;align=left;spacing=7;verticalAlign=middle;" parent="PLEYl3UzaIWWC3gaPfr4-1" vertex="1">
          <mxGeometry y="48.5" width="400" height="40" as="geometry" />
        </mxCell>
        <mxCell id="3XvZgXC38OFqLWB26CIr-20" value="&lt;font face=&quot;Mali&quot;&gt;`X_3 = (17 \cdot 77 + 43) % 100`&lt;/font&gt;" style="rounded=1;whiteSpace=wrap;html=1;hachureGap=4;fontFamily=Mina;strokeWidth=2;fillColor=#bac8d3;strokeColor=default;fontSize=16;fontStyle=1;labelBorderColor=none;textShadow=0;labelBackgroundColor=none;align=left;spacing=7;verticalAlign=middle;" parent="PLEYl3UzaIWWC3gaPfr4-1" vertex="1">
          <mxGeometry y="98.5" width="400" height="40" as="geometry" />
        </mxCell>
        <mxCell id="3XvZgXC38OFqLWB26CIr-21" value="&lt;font face=&quot;Mali&quot;&gt;`\cdots`&lt;/font&gt;" style="rounded=1;whiteSpace=wrap;html=1;hachureGap=4;fontFamily=Mina;strokeWidth=2;fillColor=#bac8d3;strokeColor=default;fontSize=16;fontStyle=1;labelBorderColor=none;textShadow=0;labelBackgroundColor=none;align=left;spacing=7;verticalAlign=middle;" parent="PLEYl3UzaIWWC3gaPfr4-1" vertex="1">
          <mxGeometry y="148.5" width="400" height="40" as="geometry" />
        </mxCell>
        <mxCell id="3XvZgXC38OFqLWB26CIr-26" value="&lt;font face=&quot;Mali&quot;&gt;`\cdots`&lt;/font&gt;" style="rounded=1;whiteSpace=wrap;html=1;hachureGap=4;fontFamily=Mina;strokeWidth=2;fillColor=#bac8d3;strokeColor=default;fontSize=14;fontStyle=1;labelBorderColor=none;textShadow=0;labelBackgroundColor=none;align=left;spacing=7;verticalAlign=middle;" parent="PLEYl3UzaIWWC3gaPfr4-1" vertex="1">
          <mxGeometry x="410" y="148.5" width="140" height="40" as="geometry" />
        </mxCell>
        <mxCell id="3XvZgXC38OFqLWB26CIr-23" value="&lt;font face=&quot;Mali&quot;&gt;`R_1 = 2/100 = 0.02`&lt;/font&gt;" style="rounded=1;whiteSpace=wrap;html=1;hachureGap=4;fontFamily=Mina;strokeWidth=2;fillColor=#bac8d3;strokeColor=default;fontSize=14;fontStyle=1;labelBorderColor=none;textShadow=0;labelBackgroundColor=none;align=left;spacing=7;verticalAlign=middle;" parent="PLEYl3UzaIWWC3gaPfr4-1" vertex="1">
          <mxGeometry x="410" width="140" height="40" as="geometry" />
        </mxCell>
        <mxCell id="3XvZgXC38OFqLWB26CIr-24" value="&lt;font face=&quot;Mali&quot;&gt;`R_2 = 77/100 = 0.77`&lt;/font&gt;" style="rounded=1;whiteSpace=wrap;html=1;hachureGap=4;fontFamily=Mina;strokeWidth=2;fillColor=#bac8d3;strokeColor=default;fontSize=14;fontStyle=1;labelBorderColor=none;textShadow=0;labelBackgroundColor=none;align=left;spacing=7;verticalAlign=middle;" parent="PLEYl3UzaIWWC3gaPfr4-1" vertex="1">
          <mxGeometry x="410" y="48.5" width="140" height="40" as="geometry" />
        </mxCell>
        <mxCell id="3XvZgXC38OFqLWB26CIr-25" value="&lt;font face=&quot;Mali&quot;&gt;`R_3=52/100=0.52`&lt;/font&gt;" style="rounded=1;whiteSpace=wrap;html=1;hachureGap=4;fontFamily=Mina;strokeWidth=2;fillColor=#bac8d3;strokeColor=default;fontSize=14;fontStyle=1;labelBorderColor=none;textShadow=0;labelBackgroundColor=none;align=left;spacing=7;verticalAlign=middle;" parent="PLEYl3UzaIWWC3gaPfr4-1" vertex="1">
          <mxGeometry x="410" y="98.5" width="140" height="40" as="geometry" />
        </mxCell>
        <mxCell id="PLEYl3UzaIWWC3gaPfr4-2" value="" style="group" parent="1" vertex="1" connectable="0">
          <mxGeometry x="139" y="2720" width="550" height="188.5" as="geometry" />
        </mxCell>
        <mxCell id="1f_92boboXnTyiL4tQLm-1" value="&lt;font face=&quot;Mali&quot;&gt;`X_1 = (a \cdot X_\circ + c) % m`&lt;/font&gt;" style="rounded=1;whiteSpace=wrap;html=1;hachureGap=4;fontFamily=Mina;strokeWidth=2;fillColor=#e1d5e7;strokeColor=default;fontSize=16;fontStyle=1;labelBorderColor=none;textShadow=0;labelBackgroundColor=none;align=left;spacing=7;verticalAlign=middle;" parent="PLEYl3UzaIWWC3gaPfr4-2" vertex="1">
          <mxGeometry x="40" width="400" height="40" as="geometry" />
        </mxCell>
        <mxCell id="1f_92boboXnTyiL4tQLm-2" value="&lt;div&gt;1&lt;/div&gt;" style="rounded=1;whiteSpace=wrap;html=1;hachureGap=4;fontFamily=Mina;strokeWidth=2;fillColor=#e1d5e7;strokeColor=default;fontSize=25;fontStyle=1;labelBorderColor=none;textShadow=0;labelBackgroundColor=none;align=center;spacing=7;verticalAlign=middle;" parent="PLEYl3UzaIWWC3gaPfr4-2" vertex="1">
          <mxGeometry width="40" height="40" as="geometry" />
        </mxCell>
        <mxCell id="1f_92boboXnTyiL4tQLm-3" value="&lt;font face=&quot;Mali&quot;&gt;`X_2 = (a \cdot X_1 + c) % m`&lt;/font&gt;" style="rounded=1;whiteSpace=wrap;html=1;hachureGap=4;fontFamily=Mina;strokeWidth=2;fillColor=#e1d5e7;strokeColor=default;fontSize=16;fontStyle=1;labelBorderColor=none;textShadow=0;labelBackgroundColor=none;align=left;spacing=7;verticalAlign=middle;" parent="PLEYl3UzaIWWC3gaPfr4-2" vertex="1">
          <mxGeometry x="40" y="48.5" width="400" height="40" as="geometry" />
        </mxCell>
        <mxCell id="1f_92boboXnTyiL4tQLm-4" value="&lt;div&gt;2&lt;/div&gt;" style="rounded=1;whiteSpace=wrap;html=1;hachureGap=4;fontFamily=Mina;strokeWidth=2;fillColor=#e1d5e7;strokeColor=default;fontSize=25;fontStyle=1;labelBorderColor=none;textShadow=0;labelBackgroundColor=none;align=center;spacing=7;verticalAlign=middle;" parent="PLEYl3UzaIWWC3gaPfr4-2" vertex="1">
          <mxGeometry y="48.5" width="40" height="40" as="geometry" />
        </mxCell>
        <mxCell id="1f_92boboXnTyiL4tQLm-5" value="&lt;font face=&quot;Mali&quot;&gt;`X_3 = (a \cdot X_2 + c) % m`&lt;/font&gt;" style="rounded=1;whiteSpace=wrap;html=1;hachureGap=4;fontFamily=Mina;strokeWidth=2;fillColor=#e1d5e7;strokeColor=default;fontSize=16;fontStyle=1;labelBorderColor=none;textShadow=0;labelBackgroundColor=none;align=left;spacing=7;verticalAlign=middle;" parent="PLEYl3UzaIWWC3gaPfr4-2" vertex="1">
          <mxGeometry x="40" y="98.5" width="400" height="40" as="geometry" />
        </mxCell>
        <mxCell id="1f_92boboXnTyiL4tQLm-6" value="&lt;div&gt;3&lt;/div&gt;" style="rounded=1;whiteSpace=wrap;html=1;hachureGap=4;fontFamily=Mina;strokeWidth=2;fillColor=#e1d5e7;strokeColor=default;fontSize=25;fontStyle=1;labelBorderColor=none;textShadow=0;labelBackgroundColor=none;align=center;spacing=7;verticalAlign=middle;" parent="PLEYl3UzaIWWC3gaPfr4-2" vertex="1">
          <mxGeometry y="98.5" width="40" height="40" as="geometry" />
        </mxCell>
        <mxCell id="1f_92boboXnTyiL4tQLm-7" value="&lt;font face=&quot;Mali&quot;&gt;`X_{i + 1} = (a \cdot X_i + c) % m`&lt;/font&gt;" style="rounded=1;whiteSpace=wrap;html=1;hachureGap=4;fontFamily=Mina;strokeWidth=2;fillColor=#e1d5e7;strokeColor=default;fontSize=16;fontStyle=1;labelBorderColor=none;textShadow=0;labelBackgroundColor=none;align=left;spacing=7;verticalAlign=middle;" parent="PLEYl3UzaIWWC3gaPfr4-2" vertex="1">
          <mxGeometry x="40" y="148.5" width="400" height="40" as="geometry" />
        </mxCell>
        <mxCell id="1f_92boboXnTyiL4tQLm-8" value="&lt;div&gt;..&lt;/div&gt;" style="rounded=1;whiteSpace=wrap;html=1;hachureGap=4;fontFamily=Mina;strokeWidth=2;fillColor=#e1d5e7;strokeColor=default;fontSize=25;fontStyle=1;labelBorderColor=none;textShadow=0;labelBackgroundColor=none;align=center;spacing=7;verticalAlign=middle;" parent="PLEYl3UzaIWWC3gaPfr4-2" vertex="1">
          <mxGeometry y="148.5" width="40" height="40" as="geometry" />
        </mxCell>
        <mxCell id="3XvZgXC38OFqLWB26CIr-9" value="&lt;font face=&quot;Mali&quot;&gt;`R_1 = X_1/m`&lt;/font&gt;" style="rounded=1;whiteSpace=wrap;html=1;hachureGap=4;fontFamily=Mina;strokeWidth=2;fillColor=#e1d5e7;strokeColor=default;fontSize=14;fontStyle=1;labelBorderColor=none;textShadow=0;labelBackgroundColor=none;align=left;spacing=7;verticalAlign=middle;" parent="PLEYl3UzaIWWC3gaPfr4-2" vertex="1">
          <mxGeometry x="450" width="100" height="40" as="geometry" />
        </mxCell>
        <mxCell id="3XvZgXC38OFqLWB26CIr-10" value="&lt;font face=&quot;Mali&quot;&gt;`R_2 = X_2/m`&lt;/font&gt;" style="rounded=1;whiteSpace=wrap;html=1;hachureGap=4;fontFamily=Mina;strokeWidth=2;fillColor=#e1d5e7;strokeColor=default;fontSize=14;fontStyle=1;labelBorderColor=none;textShadow=0;labelBackgroundColor=none;align=left;spacing=7;verticalAlign=middle;" parent="PLEYl3UzaIWWC3gaPfr4-2" vertex="1">
          <mxGeometry x="450" y="48.5" width="100" height="40" as="geometry" />
        </mxCell>
        <mxCell id="3XvZgXC38OFqLWB26CIr-11" value="&lt;font face=&quot;Mali&quot;&gt;`R_3=X_3/m`&lt;/font&gt;" style="rounded=1;whiteSpace=wrap;html=1;hachureGap=4;fontFamily=Mina;strokeWidth=2;fillColor=#e1d5e7;strokeColor=default;fontSize=14;fontStyle=1;labelBorderColor=none;textShadow=0;labelBackgroundColor=none;align=left;spacing=7;verticalAlign=middle;" parent="PLEYl3UzaIWWC3gaPfr4-2" vertex="1">
          <mxGeometry x="450" y="98.5" width="100" height="40" as="geometry" />
        </mxCell>
        <mxCell id="3XvZgXC38OFqLWB26CIr-12" value="&lt;font face=&quot;Mali&quot;&gt;`R_{i+1}=X_{i+1}/m`&lt;/font&gt;" style="rounded=1;whiteSpace=wrap;html=1;hachureGap=4;fontFamily=Mina;strokeWidth=2;fillColor=#e1d5e7;strokeColor=default;fontSize=14;fontStyle=1;labelBorderColor=none;textShadow=0;labelBackgroundColor=none;align=left;spacing=7;verticalAlign=middle;" parent="PLEYl3UzaIWWC3gaPfr4-2" vertex="1">
          <mxGeometry x="450" y="148.5" width="100" height="40" as="geometry" />
        </mxCell>
      </root>
    </mxGraphModel>
  </diagram>
  <diagram id="SMTgXpbJq1Kilyh0L7qB" name="Combined LCM">
    <mxGraphModel dx="1350" dy="-1548" grid="1" gridSize="10" guides="1" tooltips="1" connect="1" arrows="1" fold="1" page="1" pageScale="1" pageWidth="827" pageHeight="1169" math="1" shadow="0">
      <root>
        <mxCell id="0" />
        <mxCell id="1" parent="0" />
        <mxCell id="T6MzDhw3RiBCDIWgw46K-1" value="&lt;font data-font-src=&quot;https://fonts.googleapis.com/css?family=Mali&quot; face=&quot;Mali&quot;&gt;&lt;font style=&quot;color: rgb(255, 255, 255);&quot;&gt;Combined&amp;nbsp;Linear Congruential Method (C&lt;/font&gt;&lt;font style=&quot;color: rgb(255, 255, 204);&quot;&gt;LCM&lt;/font&gt;&lt;font style=&quot;color: rgb(255, 255, 255);&quot;&gt;)&lt;/font&gt;&lt;/font&gt;" style="rounded=1;whiteSpace=wrap;html=1;hachureGap=4;fontFamily=Mina;strokeWidth=2;fillColor=#76608a;strokeColor=#000000;fontSize=22;fontStyle=1;labelBorderColor=none;textShadow=0;labelBackgroundColor=none;align=left;spacing=5;verticalAlign=middle;spacingTop=0;spacingRight=2;fontColor=#ffffff;container=0;spacingLeft=5;" vertex="1" parent="1">
          <mxGeometry x="40" y="2360" width="520" height="40" as="geometry" />
        </mxCell>
        <mxCell id="T6MzDhw3RiBCDIWgw46K-2" value="&lt;div style=&quot;line-height: 140%;&quot;&gt;Given a params: `k`,&lt;br&gt;`a_1`, `c_1`, `m_1`, `X_{\circ, 1}`&lt;br&gt;`a_2`, `c_2`, `m_2`, `X_{\circ, 2}`&lt;br&gt;`\cdots`&lt;br&gt;`a_k`, `c_k`, `m_k`, `X_{\circ, k}`&lt;/div&gt;" style="rounded=1;whiteSpace=wrap;html=1;hachureGap=4;fontFamily=Mali;strokeWidth=2;fontSize=16;fontStyle=1;labelBorderColor=none;textShadow=0;labelBackgroundColor=none;align=left;spacing=7;verticalAlign=middle;fillColor=#bac8d3;strokeColor=default;fontSource=https%3A%2F%2Ffonts.googleapis.com%2Fcss%3Ffamily%3DMali;spacingLeft=7;" vertex="1" parent="1">
          <mxGeometry x="40" y="2410" width="180" height="130" as="geometry" />
        </mxCell>
        <mxCell id="T6MzDhw3RiBCDIWgw46K-3" value="زي  ما شوفنا في الـ LCM عشان نعمل generate لـrandom number بس قابلتنا مشكلة ان الـPeriod صغيرة (الارقام بتتكرر )،  فهنستخدم ال CLCM وهو بيعمل Combine لأكتر من Generator  شكل الـ given هيبقي `k` و ده عدد ال generators و `a_j ` و `c_j` و `m_j` و فيه منهم بيعتمد علي اكتر من  seeder اللي قبله زي الـ `X_{i, j}` و بشكل ابتدائي هو بيديك الـ `X_{\circ , j}`" style="text;whiteSpace=wrap;fontFamily=Beiruti;fontSource=https%3A%2F%2Ffonts.googleapis.com%2Fcss%3Ffamily%3DBeiruti;align=right;fontStyle=0;textDirection=rtl;fontSize=15;labelBackgroundColor=none;labelBorderColor=none;textShadow=0;" vertex="1" parent="1">
          <mxGeometry x="310" y="2420" width="498.5" height="90" as="geometry" />
        </mxCell>
        <mxCell id="T6MzDhw3RiBCDIWgw46K-4" value="We apply on formula: `X_{i+1,j} = (a_j \cdot X_{i, j} + c_j) % m_j`" style="rounded=1;whiteSpace=wrap;html=1;hachureGap=4;fontFamily=Mina;strokeWidth=2;fillColor=#b1ddf0;strokeColor=default;fontSize=13;fontStyle=1;labelBorderColor=none;textShadow=0;labelBackgroundColor=none;align=left;spacing=7;verticalAlign=middle;" vertex="1" parent="1">
          <mxGeometry x="20" y="2560" width="340" height="44.55" as="geometry" />
        </mxCell>
        <mxCell id="T6MzDhw3RiBCDIWgw46K-5" style="edgeStyle=orthogonalEdgeStyle;rounded=0;orthogonalLoop=1;jettySize=auto;html=1;endArrow=baseDash;endFill=0;fillColor=#d0cee2;strokeColor=#56517e;curved=1;" edge="1" parent="1" source="T6MzDhw3RiBCDIWgw46K-6">
          <mxGeometry relative="1" as="geometry">
            <mxPoint x="235.00383911132812" y="2595.001536114032" as="targetPoint" />
            <mxPoint x="235.85" y="2632.54" as="sourcePoint" />
          </mxGeometry>
        </mxCell>
        <mxCell id="T6MzDhw3RiBCDIWgw46K-6" value="Multiplier" style="text;html=1;align=center;verticalAlign=middle;resizable=0;points=[];autosize=1;strokeColor=none;fillColor=none;fontFamily=Mali;fontSource=https%3A%2F%2Ffonts.googleapis.com%2Fcss%3Ffamily%3DMali;fontStyle=1" vertex="1" parent="1">
          <mxGeometry x="180" y="2630" width="80" height="30" as="geometry" />
        </mxCell>
        <mxCell id="T6MzDhw3RiBCDIWgw46K-7" value="Increment" style="text;html=1;align=center;verticalAlign=middle;resizable=0;points=[];autosize=1;strokeColor=none;fillColor=none;fontFamily=Mali;fontSource=https%3A%2F%2Ffonts.googleapis.com%2Fcss%3Ffamily%3DMali;fontStyle=1" vertex="1" parent="1">
          <mxGeometry x="260" y="2630" width="80" height="30" as="geometry" />
        </mxCell>
        <mxCell id="T6MzDhw3RiBCDIWgw46K-8" style="edgeStyle=orthogonalEdgeStyle;rounded=0;orthogonalLoop=1;jettySize=auto;html=1;endArrow=baseDash;endFill=0;fillColor=#d0cee2;strokeColor=#56517e;curved=1;" edge="1" parent="1">
          <mxGeometry relative="1" as="geometry">
            <mxPoint x="280.00383911132815" y="2595.001536114032" as="targetPoint" />
            <mxPoint x="290" y="2630" as="sourcePoint" />
          </mxGeometry>
        </mxCell>
        <mxCell id="T6MzDhw3RiBCDIWgw46K-9" value="Modulus" style="text;html=1;align=center;verticalAlign=middle;resizable=0;points=[];autosize=1;strokeColor=none;fillColor=none;fontFamily=Mali;fontSource=https%3A%2F%2Ffonts.googleapis.com%2Fcss%3Ffamily%3DMali;fontStyle=1" vertex="1" parent="1">
          <mxGeometry x="335" y="2610" width="70" height="30" as="geometry" />
        </mxCell>
        <mxCell id="T6MzDhw3RiBCDIWgw46K-10" style="edgeStyle=orthogonalEdgeStyle;rounded=0;orthogonalLoop=1;jettySize=auto;html=1;endArrow=baseDash;endFill=0;fillColor=#d0cee2;strokeColor=#56517e;curved=1;" edge="1" parent="1" source="T6MzDhw3RiBCDIWgw46K-9">
          <mxGeometry relative="1" as="geometry">
            <mxPoint x="308.00383911132815" y="2594.001536114032" as="targetPoint" />
            <mxPoint x="353" y="2614" as="sourcePoint" />
            <Array as="points">
              <mxPoint x="309" y="2625" />
              <mxPoint x="309" y="2594" />
            </Array>
          </mxGeometry>
        </mxCell>
        <mxCell id="T6MzDhw3RiBCDIWgw46K-22" value="" style="group" vertex="1" connectable="0" parent="1">
          <mxGeometry x="90" y="2720" width="680" height="189" as="geometry" />
        </mxCell>
        <mxCell id="T6MzDhw3RiBCDIWgw46K-23" value="&lt;font face=&quot;Mali&quot;&gt;`X_{1,j} = (a_j \cdot X_{\circ,j} + c_j) % m_j`&lt;/font&gt;" style="rounded=1;whiteSpace=wrap;html=1;hachureGap=4;fontFamily=Mina;strokeWidth=2;fillColor=#e1d5e7;strokeColor=default;fontSize=16;fontStyle=1;labelBorderColor=none;textShadow=0;labelBackgroundColor=none;align=left;spacing=7;verticalAlign=middle;" vertex="1" parent="T6MzDhw3RiBCDIWgw46K-22">
          <mxGeometry x="40" width="400" height="40" as="geometry" />
        </mxCell>
        <mxCell id="T6MzDhw3RiBCDIWgw46K-24" value="&lt;div&gt;1&lt;/div&gt;" style="rounded=1;whiteSpace=wrap;html=1;hachureGap=4;fontFamily=Mina;strokeWidth=2;fillColor=#e1d5e7;strokeColor=default;fontSize=25;fontStyle=1;labelBorderColor=none;textShadow=0;labelBackgroundColor=none;align=center;spacing=7;verticalAlign=middle;" vertex="1" parent="T6MzDhw3RiBCDIWgw46K-22">
          <mxGeometry width="40" height="40" as="geometry" />
        </mxCell>
        <mxCell id="T6MzDhw3RiBCDIWgw46K-25" value="&lt;font face=&quot;Mali&quot;&gt;`X_{2,j} = (a_j \cdot X_{1,j} + c_j) % m_j`&lt;/font&gt;" style="rounded=1;whiteSpace=wrap;html=1;hachureGap=4;fontFamily=Mina;strokeWidth=2;fillColor=#e1d5e7;strokeColor=default;fontSize=16;fontStyle=1;labelBorderColor=none;textShadow=0;labelBackgroundColor=none;align=left;spacing=7;verticalAlign=middle;" vertex="1" parent="T6MzDhw3RiBCDIWgw46K-22">
          <mxGeometry x="40" y="48.5" width="400" height="40" as="geometry" />
        </mxCell>
        <mxCell id="T6MzDhw3RiBCDIWgw46K-26" value="&lt;div&gt;2&lt;/div&gt;" style="rounded=1;whiteSpace=wrap;html=1;hachureGap=4;fontFamily=Mina;strokeWidth=2;fillColor=#e1d5e7;strokeColor=default;fontSize=25;fontStyle=1;labelBorderColor=none;textShadow=0;labelBackgroundColor=none;align=center;spacing=7;verticalAlign=middle;" vertex="1" parent="T6MzDhw3RiBCDIWgw46K-22">
          <mxGeometry y="48.5" width="40" height="40" as="geometry" />
        </mxCell>
        <mxCell id="T6MzDhw3RiBCDIWgw46K-27" value="&lt;font face=&quot;Mali&quot;&gt;`X_{3,j} = (a_j \cdot X_{2,j} + c_j) % m_j`&lt;/font&gt;" style="rounded=1;whiteSpace=wrap;html=1;hachureGap=4;fontFamily=Mina;strokeWidth=2;fillColor=#e1d5e7;strokeColor=default;fontSize=16;fontStyle=1;labelBorderColor=none;textShadow=0;labelBackgroundColor=none;align=left;spacing=7;verticalAlign=middle;" vertex="1" parent="T6MzDhw3RiBCDIWgw46K-22">
          <mxGeometry x="40" y="98.5" width="400" height="40" as="geometry" />
        </mxCell>
        <mxCell id="T6MzDhw3RiBCDIWgw46K-28" value="&lt;div&gt;3&lt;/div&gt;" style="rounded=1;whiteSpace=wrap;html=1;hachureGap=4;fontFamily=Mina;strokeWidth=2;fillColor=#e1d5e7;strokeColor=default;fontSize=25;fontStyle=1;labelBorderColor=none;textShadow=0;labelBackgroundColor=none;align=center;spacing=7;verticalAlign=middle;" vertex="1" parent="T6MzDhw3RiBCDIWgw46K-22">
          <mxGeometry y="98.5" width="40" height="40" as="geometry" />
        </mxCell>
        <mxCell id="T6MzDhw3RiBCDIWgw46K-29" value="&lt;font face=&quot;Mali&quot;&gt;`X_{i + 1,j} = (a_j \cdot X_{i,j} + c_j) % m_j`&lt;/font&gt;" style="rounded=1;whiteSpace=wrap;html=1;hachureGap=4;fontFamily=Mina;strokeWidth=2;fillColor=#e1d5e7;strokeColor=default;fontSize=16;fontStyle=1;labelBorderColor=none;textShadow=0;labelBackgroundColor=none;align=left;spacing=7;verticalAlign=middle;" vertex="1" parent="T6MzDhw3RiBCDIWgw46K-22">
          <mxGeometry x="40" y="148.5" width="400" height="40" as="geometry" />
        </mxCell>
        <mxCell id="T6MzDhw3RiBCDIWgw46K-30" value="&lt;div&gt;..&lt;/div&gt;" style="rounded=1;whiteSpace=wrap;html=1;hachureGap=4;fontFamily=Mina;strokeWidth=2;fillColor=#e1d5e7;strokeColor=default;fontSize=25;fontStyle=1;labelBorderColor=none;textShadow=0;labelBackgroundColor=none;align=center;spacing=7;verticalAlign=middle;" vertex="1" parent="T6MzDhw3RiBCDIWgw46K-22">
          <mxGeometry y="148.5" width="40" height="40" as="geometry" />
        </mxCell>
        <mxCell id="T6MzDhw3RiBCDIWgw46K-31" value="&lt;font face=&quot;Mali&quot;&gt;`X_{i+1} =`&lt;br&gt;`(x_{i+1, 1} - x_{i + 1,2} \cdots) mod m_1 -1`&lt;/font&gt;" style="rounded=1;whiteSpace=wrap;html=1;hachureGap=4;fontFamily=Mina;strokeWidth=2;fillColor=#d5e8d4;strokeColor=#1A1A1A;fontSize=14;fontStyle=1;labelBorderColor=none;textShadow=0;labelBackgroundColor=none;align=left;spacing=7;verticalAlign=middle;" vertex="1" parent="T6MzDhw3RiBCDIWgw46K-22">
          <mxGeometry x="450" width="230" height="90" as="geometry" />
        </mxCell>
        <mxCell id="8vcGjpxcgdleFt7-bXFL-3" value="&lt;font face=&quot;Mali&quot;&gt;\[ R_{i+1} = \begin{cases} \frac{X_{i+1}}{m_1}, &amp;amp; x &amp;gt; 0 \\ \frac{m_1 - 1} {m_1}, &amp;amp; x=0 \end{cases} \]&lt;/font&gt;" style="rounded=1;whiteSpace=wrap;html=1;hachureGap=4;fontFamily=Mina;strokeWidth=2;fillColor=#fff2cc;strokeColor=#1A1A1A;fontSize=14;fontStyle=1;labelBorderColor=none;textShadow=0;labelBackgroundColor=none;align=left;spacing=7;verticalAlign=middle;" vertex="1" parent="T6MzDhw3RiBCDIWgw46K-22">
          <mxGeometry x="450" y="99" width="230" height="90" as="geometry" />
        </mxCell>
        <mxCell id="8vcGjpxcgdleFt7-bXFL-1" value="`X_{1,j} = \text{in range} [1, m_j -1]`" style="text;html=1;align=center;verticalAlign=middle;whiteSpace=wrap;rounded=0;fontFamily=Mina;fontStyle=1" vertex="1" parent="1">
          <mxGeometry x="404.99999999999994" y="2580" width="220" height="30" as="geometry" />
        </mxCell>
        <mxCell id="8vcGjpxcgdleFt7-bXFL-4" value="هنا بجيب الـ Seeder اللي هعمل Generate علي اساسه عن طريق اني بعمل Combine لأكتر من seeder جبتهم من كذا generator واللي عددهم `k`" style="text;whiteSpace=wrap;fontFamily=Beiruti;fontSource=https%3A%2F%2Ffonts.googleapis.com%2Fcss%3Ffamily%3DBeiruti;align=right;fontStyle=0;textDirection=rtl;fontSize=15;labelBackgroundColor=none;labelBorderColor=none;textShadow=0;" vertex="1" parent="1">
          <mxGeometry x="521" y="2650" width="249" height="70" as="geometry" />
        </mxCell>
        <mxCell id="8vcGjpxcgdleFt7-bXFL-5" value="Period = `\frac{(m_1 - 1)(m_2 - 1) \cdots}{2^{k-1}}`" style="text;html=1;align=center;verticalAlign=middle;whiteSpace=wrap;rounded=1;fontFamily=Mina;fontStyle=1;fontSize=21;fillColor=#f8cecc;strokeColor=#000000;strokeWidth=2;" vertex="1" parent="1">
          <mxGeometry x="194" y="2960" width="341" height="80" as="geometry" />
        </mxCell>
      </root>
    </mxGraphModel>
  </diagram>
</mxfile>
